SplineFontDB: 3.0
FontName: Overlock-Regular
FullName: Overlock
FamilyName: Overlock
Weight: Book
Copyright: Copyright (c) 2011, Dario Manuel Muhafara (http://www.tipo.net.ar), with Reserved Font Name "Overlock".
Version: 1.001
ItalicAngle: 0
UnderlinePosition: -113
UnderlineWidth: 20
Ascent: 800
Descent: 200
sfntRevision: 0x00010042
LayerCount: 2
Layer: 0 1 "Back"  1
Layer: 1 1 "Fore"  0
XUID: [1021 288 713564382 8875707]
FSType: 0
OS2Version: 2
OS2_WeightWidthSlopeOnly: 0
OS2_UseTypoMetrics: 1
CreationTime: 1324052811
ModificationTime: 1324083929
PfmFamily: 17
TTFWeight: 400
TTFWidth: 5
LineGap: 0
VLineGap: 0
Panose: 2 0 5 6 3 0 0 2 0 4
OS2TypoAscent: 166
OS2TypoAOffset: 1
OS2TypoDescent: -54
OS2TypoDOffset: 1
OS2TypoLinegap: 0
OS2WinAscent: 67
OS2WinAOffset: 1
OS2WinDescent: 1
OS2WinDOffset: 1
HheadAscent: 67
HheadAOffset: 1
HheadDescent: -1
HheadDOffset: 1
OS2SubXSize: 700
OS2SubYSize: 650
OS2SubXOff: 0
OS2SubYOff: 140
OS2SupXSize: 700
OS2SupYSize: 650
OS2SupXOff: 0
OS2SupYOff: 477
OS2StrikeYSize: 50
OS2StrikeYPos: 250
OS2Vendor: 'pyrs'
OS2CodePages: 20000001.00000000
OS2UnicodeRanges: 800000af.4000204b.00000000.00000000
Lookup: 258 0 0 "'kern' Horizontal Kerning in Latin lookup 0"  {"'kern' Horizontal Kerning in Latin lookup 0 subtable"  } ['kern' ('DFLT' <'dflt' > 'latn' <'dflt' > ) ]
MarkAttachClasses: 1
DEI: 91125
TtTable: prep
PUSHW_1
 511
SCANCTRL
PUSHB_1
 4
SCANTYPE
EndTTInstrs
ShortTable: maxp 16
  1
  0
  349
  111
  7
  0
  0
  2
  0
  1
  1
  0
  64
  0
  0
  0
EndShort
LangName: 1033 "" "" "" "DarioManuelMuhafara: Overlock Regular: 2011" "" "Version 1.001" "" "Overlock is a trademark of Dario Manuel Muhafara." "Dario Manuel Muhafara" "Dario Muhafara" "" "www.tipo.net.ar" "www.tipo.net.ar" "This Font Software is licensed under the SIL Open Font License,+AA0A-Version 1.1. This license is available with a FAQ at:+AA0A-http://scripts.sil.org/OFL" "http://scripts.sil.org/OFL" "" "" "" "Overlock Regular" 
GaspTable: 1 65535 15
Encoding: UnicodeBmp

StartChar: exclam
Encoding: 33 33 4
Width: 311
GlyphClass: 2
Flags: W
LayerCount: 2
Fore
SplineSet
161 -10 m 128,-1,1
 136 -10 136 -10 118 8 c 128,-1,2
 100 26 100 26 100 53 c 128,-1,3
 100 80 100 80 118 98.5 c 128,-1,4
 136 117 136 117 161 117 c 128,-1,5
 186 117 186 117 203.5 98.5 c 128,-1,6
 221 80 221 80 221 53 c 128,-1,7
 221 26 221 26 203.5 8 c 128,-1,0
 186 -10 186 -10 161 -10 c 128,-1,1
119 350 m 0,8,9
 119 602 119 602 101 678 c 1,10,11
 136 685 136 685 153 685 c 0,12,13
 200 685 200 685 200 636 c 0,14,15
 200 608 200 608 191 523.5 c 128,-1,16
 182 439 182 439 182 367 c 2,17,-1
 182 323 l 2,18,19
 182 243 182 243 198 199 c 1,20,21
 178 189 178 189 161 189 c 0,22,23
 121 189 121 189 120 237 c 0,24,25
 119 250 119 250 119 350 c 0,8,9
EndSplineSet
EndChar

StartChar: quotedbl
Encoding: 34 34 5
Width: 345
GlyphClass: 2
Flags: W
LayerCount: 2
Fore
SplineSet
57 637 m 128,-1,1
 50 688 50 688 50 702 c 128,-1,2
 50 716 50 716 63.5 726.5 c 128,-1,3
 77 737 77 737 96 737 c 128,-1,4
 115 737 115 737 127 726 c 128,-1,5
 139 715 139 715 139 682 c 128,-1,6
 139 649 139 649 120 524 c 0,7,8
 116 500 116 500 108 490.5 c 128,-1,9
 100 481 100 481 86.5 481 c 128,-1,10
 73 481 73 481 61 485 c 1,11,12
 64 503 64 503 64 544.5 c 128,-1,0
 64 586 64 586 57 637 c 128,-1,1
223 637 m 128,-1,14
 216 688 216 688 216 702 c 128,-1,15
 216 716 216 716 229.5 726.5 c 128,-1,16
 243 737 243 737 262 737 c 128,-1,17
 281 737 281 737 293 726 c 128,-1,18
 305 715 305 715 305 682 c 128,-1,19
 305 649 305 649 286 524 c 0,20,21
 282 500 282 500 274 490.5 c 128,-1,22
 266 481 266 481 252.5 481 c 128,-1,23
 239 481 239 481 227 485 c 1,24,25
 230 503 230 503 230 544.5 c 128,-1,13
 230 586 230 586 223 637 c 128,-1,14
EndSplineSet
EndChar

StartChar: numbersign
Encoding: 35 35 6
Width: 535
GlyphClass: 2
Flags: W
LayerCount: 2
Fore
SplineSet
206 272 m 1,0,1
 299 272 299 272 325 273 c 1,2,3
 331 309 331 309 340 389 c 1,4,5
 314 390 314 390 255 390 c 2,6,-1
 224 390 l 1,7,8
 211 317 211 317 206 272 c 1,0,1
489.5 218 m 128,-1,10
 479 213 479 213 466 213 c 128,-1,11
 453 213 453 213 363 218 c 1,12,13
 353 131 353 131 353 108 c 128,-1,14
 353 85 353 85 357 49 c 1,15,16
 343 41 343 41 325 41 c 0,17,18
 295 41 295 41 295 74 c 0,19,20
 295 89 295 89 316 220 c 1,21,22
 290 221 290 221 231 221 c 2,23,-1
 199 221 l 1,24,25
 188 122 188 122 188 103.5 c 128,-1,26
 188 85 188 85 192 49 c 1,27,28
 178 41 178 41 160 41 c 0,29,30
 130 41 130 41 130 74 c 0,31,32
 130 89 130 89 151 220 c 1,33,34
 68 216 68 216 17 202 c 1,35,36
 14 212 14 212 14 234 c 0,37,38
 14 274 14 274 71.5 274 c 128,-1,39
 129 274 129 274 160 273 c 1,40,-1
 175 389 l 1,41,42
 92 385 92 385 41 371 c 1,43,44
 38 381 38 381 38 404 c 0,45,46
 38 444 38 444 101 444 c 2,47,-1
 182 443 l 1,48,49
 197 553 197 553 200 610 c 1,50,51
 214 613 214 613 227 613 c 0,52,53
 258 613 258 613 258 581 c 0,54,55
 258 574 258 574 233 442 c 1,56,-1
 347 442 l 1,57,58
 348 451 348 451 356 518.5 c 128,-1,59
 364 586 364 586 365 610 c 1,60,61
 379 613 379 613 392 613 c 0,62,63
 423 613 423 613 423 581 c 0,64,65
 423 579 423 579 399 444 c 1,66,67
 517 449 517 449 535 450 c 1,68,69
 534 428 534 428 532.5 416.5 c 128,-1,70
 531 405 531 405 519.5 393.5 c 128,-1,71
 508 382 508 382 493 382 c 128,-1,72
 478 382 478 382 388 387 c 1,73,74
 379 333 379 333 371 273 c 1,75,76
 462 277 462 277 511 280 c 1,77,78
 509 249 509 249 504.5 236 c 128,-1,9
 500 223 500 223 489.5 218 c 128,-1,10
EndSplineSet
EndChar

StartChar: dollar
Encoding: 36 36 7
Width: 535
GlyphClass: 2
Flags: W
LayerCount: 2
Fore
SplineSet
237 385 m 1,0,-1
 237 610 l 1,1,2
 196 605 196 605 170.5 577.5 c 128,-1,3
 145 550 145 550 145 502 c 128,-1,4
 145 454 145 454 168.5 428.5 c 128,-1,5
 192 403 192 403 237 385 c 1,0,-1
276 290 m 1,6,-1
 276 49 l 1,7,8
 325 52 325 52 356.5 83 c 128,-1,9
 388 114 388 114 388 169 c 128,-1,10
 388 224 388 224 359.5 248.5 c 128,-1,11
 331 273 331 273 276 290 c 1,6,-1
392 532 m 1,12,13
 378 562 378 562 346 583 c 128,-1,14
 314 604 314 604 276 609 c 1,15,-1
 276 371 l 1,16,17
 380 342 380 342 420 300 c 128,-1,18
 460 258 460 258 460 182.5 c 128,-1,19
 460 107 460 107 410.5 51 c 128,-1,20
 361 -5 361 -5 277 -9 c 1,21,22
 279 -53 279 -53 281 -76 c 1,23,-1
 266 -78 l 1,24,25
 237 -78 237 -78 237 -51 c 2,26,-1
 237 -10 l 1,27,28
 167 -8 167 -8 114 19 c 128,-1,29
 61 46 61 46 61 82 c 0,30,31
 61 102 61 102 72.5 112.5 c 128,-1,32
 84 123 84 123 108 135 c 1,33,34
 123 103 123 103 159 80.5 c 128,-1,35
 195 58 195 58 237 51 c 1,36,-1
 237 301 l 1,37,38
 199 313 199 313 176 323.5 c 128,-1,39
 153 334 153 334 126 355 c 0,40,41
 73 396 73 396 73 492 c 0,42,43
 73 567 73 567 118.5 612 c 128,-1,44
 164 657 164 657 236 667 c 1,45,46
 234 714 234 714 232 736 c 1,47,48
 242 739 242 739 249 739 c 0,49,50
 276 739 276 739 276 712 c 2,51,-1
 276 671 l 1,52,53
 339 671 339 671 392 646.5 c 128,-1,54
 445 622 445 622 445 580 c 0,55,56
 445 542 445 542 392 532 c 1,12,13
EndSplineSet
EndChar

StartChar: percent
Encoding: 37 37 8
Width: 752
GlyphClass: 2
Flags: W
LayerCount: 2
Fore
SplineSet
663.5 35 m 128,-1,1
 625 -10 625 -10 559.5 -10 c 128,-1,2
 494 -10 494 -10 455.5 35 c 128,-1,3
 417 80 417 80 417 156.5 c 128,-1,4
 417 233 417 233 455.5 277.5 c 128,-1,5
 494 322 494 322 559.5 322 c 128,-1,6
 625 322 625 322 663.5 277 c 128,-1,7
 702 232 702 232 702 156 c 128,-1,0
 702 80 702 80 663.5 35 c 128,-1,1
615 71 m 128,-1,9
 636 102 636 102 636 149.5 c 128,-1,10
 636 197 636 197 616 235 c 128,-1,11
 596 273 596 273 561 273 c 128,-1,12
 526 273 526 273 503.5 243 c 128,-1,13
 481 213 481 213 481 165.5 c 128,-1,14
 481 118 481 118 501.5 79 c 128,-1,15
 522 40 522 40 558 40 c 128,-1,8
 594 40 594 40 615 71 c 128,-1,9
151 25 m 2,16,-1
 447 492 l 2,17,18
 523 613 523 613 567 692 c 1,19,20
 584 691 584 691 598 682 c 128,-1,21
 612 673 612 673 612 661.5 c 128,-1,22
 612 650 612 650 605 639 c 2,23,-1
 309 171 l 2,24,25
 238 59 238 59 189 -29 c 1,26,27
 146 -20 146 -20 143 1 c 1,28,29
 143 13 143 13 151 25 c 2,16,-1
296.5 378 m 128,-1,31
 258 333 258 333 192.5 333 c 128,-1,32
 127 333 127 333 88.5 378 c 128,-1,33
 50 423 50 423 50 499.5 c 128,-1,34
 50 576 50 576 88.5 620.5 c 128,-1,35
 127 665 127 665 192.5 665 c 128,-1,36
 258 665 258 665 296.5 620 c 128,-1,37
 335 575 335 575 335 499 c 128,-1,30
 335 423 335 423 296.5 378 c 128,-1,31
248 414 m 128,-1,39
 269 445 269 445 269 492.5 c 128,-1,40
 269 540 269 540 249 578 c 128,-1,41
 229 616 229 616 194 616 c 128,-1,42
 159 616 159 616 136.5 586 c 128,-1,43
 114 556 114 556 114 508.5 c 128,-1,44
 114 461 114 461 134.5 422 c 128,-1,45
 155 383 155 383 191 383 c 128,-1,38
 227 383 227 383 248 414 c 128,-1,39
EndSplineSet
EndChar

StartChar: ampersand
Encoding: 38 38 9
Width: 616
GlyphClass: 2
Flags: W
LayerCount: 2
Fore
SplineSet
316 472.5 m 128,-1,1
 335 502 335 502 335 536.5 c 128,-1,2
 335 571 335 571 314 596 c 128,-1,3
 293 621 293 621 250 621 c 0,4,5
 156 621 156 621 156 527 c 0,6,7
 156 483 156 483 215 383 c 1,8,9
 254 409 254 409 275.5 426 c 128,-1,0
 297 443 297 443 316 472.5 c 128,-1,1
189 299 m 1,10,11
 125 245 125 245 125 182.5 c 128,-1,12
 125 120 125 120 167 83 c 128,-1,13
 209 46 209 46 271.5 46 c 128,-1,14
 334 46 334 46 378 78 c 1,15,16
 275 176 275 176 189 299 c 1,10,11
158 346 m 1,17,18
 87 452 87 452 87 520.5 c 128,-1,19
 87 589 87 589 135.5 631 c 128,-1,20
 184 673 184 673 255.5 673 c 128,-1,21
 327 673 327 673 366 635.5 c 128,-1,22
 405 598 405 598 405 546 c 0,23,24
 405 514 405 514 392 483.5 c 128,-1,25
 379 453 379 453 363.5 433.5 c 128,-1,26
 348 414 348 414 320 392 c 0,27,28
 289 367 289 367 243 339 c 1,29,30
 329 214 329 214 423 134 c 1,31,32
 441 173 441 173 441 219.5 c 128,-1,33
 441 266 441 266 432 286 c 1,34,35
 454 298 454 298 468 298 c 0,36,37
 511 298 511 298 511 239 c 0,38,39
 511 157 511 157 472 97 c 1,40,41
 534 56 534 56 584 56 c 1,42,43
 586 46 586 46 586 31.5 c 128,-1,44
 586 17 586 17 574 3.5 c 128,-1,45
 562 -10 562 -10 537 -10 c 0,46,47
 488 -10 488 -10 421 41 c 1,48,49
 354 -10 354 -10 266 -10 c 128,-1,50
 178 -10 178 -10 114 38 c 128,-1,51
 50 86 50 86 50 171 c 0,52,53
 50 229 50 229 78.5 269.5 c 128,-1,54
 107 310 107 310 158 346 c 1,17,18
EndSplineSet
EndChar

StartChar: quotesingle
Encoding: 39 39 10
Width: 239
GlyphClass: 2
Flags: W
LayerCount: 2
Fore
SplineSet
67 637 m 128,-1,1
 60 688 60 688 60 702 c 128,-1,2
 60 716 60 716 73.5 726.5 c 128,-1,3
 87 737 87 737 106 737 c 128,-1,4
 125 737 125 737 137 726 c 128,-1,5
 149 715 149 715 149 682 c 128,-1,6
 149 649 149 649 130 524 c 0,7,8
 126 500 126 500 118 490.5 c 128,-1,9
 110 481 110 481 96.5 481 c 128,-1,10
 83 481 83 481 71 485 c 1,11,12
 74 503 74 503 74 544.5 c 128,-1,0
 74 586 74 586 67 637 c 128,-1,1
EndSplineSet
EndChar

StartChar: parenleft
Encoding: 40 40 11
Width: 343
GlyphClass: 2
Flags: W
LayerCount: 2
Fore
SplineSet
110.5 89.5 m 128,-1,1
 90 179 90 179 90 264 c 128,-1,2
 90 349 90 349 110.5 437 c 128,-1,3
 131 525 131 525 159 587.5 c 128,-1,4
 187 650 187 650 217 690.5 c 128,-1,5
 247 731 247 731 265.5 731 c 128,-1,6
 284 731 284 731 300 708 c 1,7,8
 238 638 238 638 200 513.5 c 128,-1,9
 162 389 162 389 162 260 c 128,-1,10
 162 131 162 131 201 10 c 128,-1,11
 240 -111 240 -111 300 -180 c 1,12,13
 284 -203 284 -203 266 -203 c 128,-1,14
 248 -203 248 -203 218.5 -163.5 c 128,-1,15
 189 -124 189 -124 160 -62 c 128,-1,0
 131 0 131 0 110.5 89.5 c 128,-1,1
EndSplineSet
EndChar

StartChar: parenright
Encoding: 41 41 12
Width: 320
GlyphClass: 2
Flags: W
LayerCount: 2
Fore
SplineSet
209.5 437 m 128,-1,1
 230 349 230 349 230 264 c 128,-1,2
 230 179 230 179 209.5 89.5 c 128,-1,3
 189 0 189 0 160 -62 c 128,-1,4
 131 -124 131 -124 101.5 -163.5 c 128,-1,5
 72 -203 72 -203 54 -203 c 128,-1,6
 36 -203 36 -203 20 -180 c 1,7,8
 80 -111 80 -111 119 10 c 128,-1,9
 158 131 158 131 158 260 c 128,-1,10
 158 389 158 389 120 513.5 c 128,-1,11
 82 638 82 638 20 708 c 1,12,13
 36 731 36 731 54.5 731 c 128,-1,14
 73 731 73 731 103 690.5 c 128,-1,15
 133 650 133 650 161 587.5 c 128,-1,0
 189 525 189 525 209.5 437 c 128,-1,1
EndSplineSet
EndChar

StartChar: asterisk
Encoding: 42 42 13
Width: 406
GlyphClass: 2
Flags: W
LayerCount: 2
Fore
SplineSet
201 530 m 1,0,1
 185 508 185 508 125 405 c 1,2,3
 106 412 106 412 90.5 426 c 128,-1,4
 75 440 75 440 75 454.5 c 128,-1,5
 75 469 75 469 89.5 485.5 c 128,-1,6
 104 502 104 502 128.5 525.5 c 128,-1,7
 153 549 153 549 160 556 c 1,8,9
 128 570 128 570 35 602 c 1,10,11
 39 625 39 625 51 643.5 c 128,-1,12
 63 662 63 662 77 662 c 128,-1,13
 91 662 91 662 102 656.5 c 128,-1,14
 113 651 113 651 139.5 633 c 128,-1,15
 166 615 166 615 177 608 c 1,16,17
 175 635 175 635 162 738 c 1,18,19
 179 743 179 743 194 743 c 0,20,21
 241 743 241 743 241 704 c 0,22,23
 241 694 241 694 228 605 c 1,24,25
 248 618 248 618 332 679 c 1,26,27
 361 654 361 654 361 625 c 0,28,29
 361 604 361 604 338 592 c 0,30,31
 310 577 310 577 243 553 c 1,32,33
 265 530 265 530 347 458 c 1,34,35
 324 417 324 417 292 417 c 0,36,37
 279 417 279 417 267 430.5 c 128,-1,38
 255 444 255 444 232.5 480 c 128,-1,39
 210 516 210 516 201 530 c 1,0,1
EndSplineSet
EndChar

StartChar: plus
Encoding: 43 43 14
Width: 535
GlyphClass: 2
Flags: W
LayerCount: 2
Fore
SplineSet
303 445 m 2,0,-1
 296 280 l 1,1,2
 414 280 414 280 483 288 c 1,3,4
 486 279 486 279 486 259.5 c 128,-1,5
 486 240 486 240 476 228 c 128,-1,6
 466 216 466 216 450 216 c 2,7,8
 450 216 450 216 295 223 c 1,9,10
 295 114 295 114 303 26 c 1,11,12
 288 23 288 23 272 23 c 128,-1,13
 256 23 256 23 243.5 32.5 c 128,-1,14
 231 42 231 42 231 59 c 2,15,-1
 238 224 l 1,16,17
 139 223 139 223 52 216 c 1,18,19
 49 231 49 231 49 246.5 c 128,-1,20
 49 262 49 262 58 275 c 128,-1,21
 67 288 67 288 85 288 c 2,22,-1
 239 281 l 1,23,24
 239 409 239 409 231 478 c 1,25,26
 240 481 240 481 259.5 481 c 128,-1,27
 279 481 279 481 291 471 c 128,-1,28
 303 461 303 461 303 445 c 2,0,-1
EndSplineSet
EndChar

StartChar: comma
Encoding: 44 44 15
Width: 227
GlyphClass: 2
Flags: W
LayerCount: 2
Fore
SplineSet
107 -22 m 0,0,1
 107 27 107 27 58 37 c 1,2,3
 48 53 48 53 48 72 c 128,-1,4
 48 91 48 91 65 105.5 c 128,-1,5
 82 120 82 120 107 120 c 128,-1,6
 132 120 132 120 150.5 97 c 128,-1,7
 169 74 169 74 169 18.5 c 128,-1,8
 169 -37 169 -37 134.5 -90 c 128,-1,9
 100 -143 100 -143 53 -143 c 0,10,11
 27 -143 27 -143 27 -113 c 0,12,13
 27 -105 27 -105 28 -101 c 1,14,-1
 33 -101 l 2,15,16
 65 -101 65 -101 86 -77 c 128,-1,17
 107 -53 107 -53 107 -22 c 0,0,1
EndSplineSet
EndChar

StartChar: hyphen
Encoding: 45 45 16
Width: 230
GlyphClass: 2
Flags: W
LayerCount: 2
Fore
SplineSet
61 294 m 2,0,-1
 144 290 l 1,1,2
 191 290 191 290 222 297 c 1,3,4
 225 288 225 288 225 269 c 128,-1,5
 225 250 225 250 215 239 c 128,-1,6
 205 228 205 228 189 228 c 1,7,-1
 112 233 l 1,8,9
 65 233 65 233 28 225 c 1,10,11
 25 240 25 240 25 255.5 c 128,-1,12
 25 271 25 271 33.5 282.5 c 128,-1,13
 42 294 42 294 61 294 c 2,0,-1
EndSplineSet
EndChar

StartChar: period
Encoding: 46 46 17
Width: 231
GlyphClass: 2
Flags: W
LayerCount: 2
Fore
SplineSet
111 -10 m 128,-1,1
 86 -10 86 -10 68 8 c 128,-1,2
 50 26 50 26 50 53 c 128,-1,3
 50 80 50 80 68 98.5 c 128,-1,4
 86 117 86 117 111 117 c 128,-1,5
 136 117 136 117 153.5 98.5 c 128,-1,6
 171 80 171 80 171 53 c 128,-1,7
 171 26 171 26 153.5 8 c 128,-1,0
 136 -10 136 -10 111 -10 c 128,-1,1
EndSplineSet
EndChar

StartChar: slash
Encoding: 47 47 18
Width: 258
GlyphClass: 2
Flags: W
LayerCount: 2
Fore
SplineSet
129 113 m 2,0,1
 107 -33 107 -33 99 -119 c 1,2,3
 86 -122 86 -122 75 -122 c 0,4,5
 42 -122 42 -122 42 -94 c 0,6,7
 42 -87 42 -87 136 507 c 1,8,9
 158 653 158 653 166 739 c 1,10,-1
 187 742 l 1,11,12
 223 742 223 742 223 715 c 1,13,-1
 129 113 l 2,0,1
EndSplineSet
EndChar

StartChar: zero
Encoding: 48 48 19
Width: 535
GlyphClass: 2
Flags: W
LayerCount: 2
Fore
SplineSet
267 -10 m 128,-1,1
 158 -10 158 -10 94 82.5 c 128,-1,2
 30 175 30 175 30 331.5 c 128,-1,3
 30 488 30 488 94 580.5 c 128,-1,4
 158 673 158 673 267 673 c 128,-1,5
 376 673 376 673 440.5 580.5 c 128,-1,6
 505 488 505 488 505 332 c 128,-1,7
 505 176 505 176 440.5 83 c 128,-1,0
 376 -10 376 -10 267 -10 c 128,-1,1
428 314 m 0,8,9
 428 476 428 476 356 566 c 1,10,11
 319 614 319 614 267 614 c 0,12,13
 197 614 197 614 151 541 c 128,-1,14
 105 468 105 468 105 362 c 0,15,16
 105 190 105 190 176 98 c 0,17,18
 214 49 214 49 266 49 c 0,19,20
 339 49 339 49 383.5 125 c 128,-1,21
 428 201 428 201 428 314 c 0,8,9
EndSplineSet
EndChar

StartChar: one
Encoding: 49 49 20
Width: 535
GlyphClass: 2
Flags: W
LayerCount: 2
Fore
SplineSet
245 57 m 1,0,-1
 247 354 l 2,1,2
 247 495 247 495 244 606 c 1,3,4
 136 595 136 595 119 592 c 1,5,6
 116 604 116 604 116 614 c 0,7,8
 116 652 116 652 155 657 c 0,9,10
 262 673 262 673 280 673 c 0,11,12
 323 673 323 673 323 635 c 0,13,14
 323 627 323 627 321 577 c 0,15,16
 315 427 315 427 315 311 c 2,17,-1
 315 249 l 2,18,19
 315 118 315 118 322 54 c 1,20,21
 391 54 391 54 426 58 c 1,22,23
 430 46 430 46 430 36 c 0,24,25
 430 -2 430 -2 391 -2 c 2,26,-1
 231 0 l 2,27,28
 155 0 155 0 124 -1 c 1,29,30
 119 14 119 14 119 23 c 0,31,32
 119 57 119 57 177 57 c 2,33,-1
 245 57 l 1,0,-1
EndSplineSet
EndChar

StartChar: two
Encoding: 50 50 21
Width: 535
GlyphClass: 2
Flags: W
LayerCount: 2
Fore
SplineSet
95 528 m 1,0,1
 57 533 57 533 57 561 c 0,2,3
 57 600 57 600 119.5 636.5 c 128,-1,4
 182 673 182 673 257.5 673 c 128,-1,5
 333 673 333 673 389.5 625 c 128,-1,6
 446 577 446 577 446 490 c 0,7,8
 446 438 446 438 430 394 c 128,-1,9
 414 350 414 350 371.5 298 c 128,-1,10
 329 246 329 246 275 195.5 c 128,-1,11
 221 145 221 145 123 63 c 1,12,13
 157 61 157 61 237 61 c 128,-1,14
 317 61 317 61 366 66 c 128,-1,15
 415 71 415 71 464 89 c 1,16,17
 478 64 478 64 478 42.5 c 128,-1,18
 478 21 478 21 453 12 c 0,19,20
 415 -2 415 -2 280.5 -2 c 128,-1,21
 146 -2 146 -2 87 0 c 1,22,23
 41 0 41 0 41 47 c 0,24,25
 41 56 41 56 42 60 c 1,26,27
 246 249 246 249 308.5 324 c 128,-1,28
 371 399 371 399 371 467.5 c 128,-1,29
 371 536 371 536 335 574.5 c 128,-1,30
 299 613 299 613 252 613 c 128,-1,31
 205 613 205 613 163 589.5 c 128,-1,32
 121 566 121 566 95 528 c 1,0,1
EndSplineSet
EndChar

StartChar: three
Encoding: 51 51 22
Width: 535
GlyphClass: 2
Flags: W
LayerCount: 2
Fore
SplineSet
325 364 m 1,0,1
 398 332 398 332 425 290 c 128,-1,2
 452 248 452 248 452 190 c 0,3,4
 452 109 452 109 389 49.5 c 128,-1,5
 326 -10 326 -10 216 -10 c 0,6,7
 141 -10 141 -10 103 9 c 128,-1,8
 65 28 65 28 65 52 c 0,9,10
 65 84 65 84 102 89 c 1,11,12
 136 49 136 49 214.5 49 c 128,-1,13
 293 49 293 49 334 90.5 c 128,-1,14
 375 132 375 132 375 188 c 128,-1,15
 375 244 375 244 327 285 c 128,-1,16
 279 326 279 326 194 326 c 0,17,18
 179 326 179 326 172 328 c 0,19,20
 155 331 155 331 155 361 c 0,21,22
 155 369 155 369 156 375 c 1,23,24
 255 375 255 375 304.5 414.5 c 128,-1,25
 354 454 354 454 354 502.5 c 128,-1,26
 354 551 354 551 325 582.5 c 128,-1,27
 296 614 296 614 254.5 614 c 128,-1,28
 213 614 213 614 178 594 c 128,-1,29
 143 574 143 574 121 536 c 1,30,31
 102 536 102 536 90 546 c 128,-1,32
 78 556 78 556 78 569 c 0,33,34
 78 604 78 604 133 638.5 c 128,-1,35
 188 673 188 673 263.5 673 c 128,-1,36
 339 673 339 673 385 627.5 c 128,-1,37
 431 582 431 582 431 519 c 0,38,39
 431 472 431 472 404.5 431 c 128,-1,40
 378 390 378 390 325 364 c 1,0,1
EndSplineSet
EndChar

StartChar: four
Encoding: 52 52 23
Width: 535
GlyphClass: 2
Flags: W
LayerCount: 2
Fore
SplineSet
115 273 m 1,0,1
 167 270 167 270 224.5 270 c 128,-1,2
 282 270 282 270 336 273 c 1,3,4
 336 408 336 408 339 579 c 1,5,6
 297 533 297 533 233 445.5 c 128,-1,7
 169 358 169 358 115 273 c 1,0,1
331 661 m 0,8,9
 345 673 345 673 370 673 c 128,-1,10
 395 673 395 673 413 671 c 1,11,12
 413 668 413 668 410 627 c 0,13,14
 404 520 404 520 404 365 c 2,15,-1
 404 276 l 1,16,17
 478 282 478 282 502 293 c 1,18,19
 510 275 510 275 510 250 c 128,-1,20
 510 225 510 225 488.5 217.5 c 128,-1,21
 467 210 467 210 405 209 c 1,22,23
 405 61 405 61 424 -2 c 1,24,25
 406 -10 406 -10 380 -10 c 128,-1,26
 354 -10 354 -10 344 3 c 128,-1,27
 334 16 334 16 334 52 c 128,-1,28
 334 88 334 88 336 208 c 1,29,30
 124 208 124 208 67 215 c 0,31,32
 44 218 44 218 44 256 c 0,33,34
 44 270 44 270 46 284 c 1,35,36
 89 358 89 358 188 490 c 128,-1,37
 287 622 287 622 331 661 c 0,8,9
EndSplineSet
EndChar

StartChar: five
Encoding: 53 53 24
Width: 535
GlyphClass: 2
Flags: W
LayerCount: 2
Fore
SplineSet
432 636 m 0,0,1
 432 592 432 592 354.5 592 c 128,-1,2
 277 592 277 592 169 598 c 1,3,-1
 155 423 l 1,4,5
 193 429 193 429 226 429 c 0,6,7
 336 429 336 429 392.5 372.5 c 128,-1,8
 449 316 449 316 449 220 c 128,-1,9
 449 124 449 124 386 57 c 128,-1,10
 323 -10 323 -10 212 -10 c 0,11,12
 137 -10 137 -10 99 9 c 128,-1,13
 61 28 61 28 61 52 c 0,14,15
 61 84 61 84 98 89 c 1,16,17
 132 49 132 49 210.5 49 c 128,-1,18
 289 49 289 49 330.5 97.5 c 128,-1,19
 372 146 372 146 372 211 c 128,-1,20
 372 276 372 276 324 324 c 128,-1,21
 276 372 276 372 193 372 c 0,22,23
 150 372 150 372 110 367 c 1,24,25
 100 377 100 377 100 403 c 128,-1,26
 100 429 100 429 113 664 c 1,27,28
 142 662 142 662 262 662 c 128,-1,29
 382 662 382 662 422 670 c 1,30,31
 432 655 432 655 432 636 c 0,0,1
EndSplineSet
EndChar

StartChar: six
Encoding: 54 54 25
Width: 535
GlyphClass: 2
Flags: W
LayerCount: 2
Fore
SplineSet
363.5 294.5 m 128,-1,1
 327 334 327 334 263.5 334 c 128,-1,2
 200 334 200 334 134 274 c 1,3,4
 137 111 137 111 204 68 c 0,5,6
 233 49 233 49 275 49 c 0,7,8
 334 49 334 49 367 90.5 c 128,-1,9
 400 132 400 132 400 193.5 c 128,-1,0
 400 255 400 255 363.5 294.5 c 128,-1,1
267 -10 m 0,10,11
 208 -10 208 -10 166 14 c 128,-1,12
 124 38 124 38 102 80 c 0,13,14
 59 159 59 159 59 275 c 0,15,16
 59 429 59 429 141 548 c 0,17,18
 180 604 180 604 242 638.5 c 128,-1,19
 304 673 304 673 378 673 c 0,20,21
 419 673 419 673 419 638 c 0,22,23
 419 627 419 627 415 609 c 1,24,25
 387 613 387 613 375 613 c 0,26,27
 268 613 268 613 206 531 c 128,-1,28
 144 449 144 449 135 330 c 1,29,30
 206 391 206 391 287 391 c 128,-1,31
 368 391 368 391 422.5 340 c 128,-1,32
 477 289 477 289 477 204.5 c 128,-1,33
 477 120 477 120 419.5 55 c 128,-1,34
 362 -10 362 -10 267 -10 c 0,10,11
EndSplineSet
EndChar

StartChar: seven
Encoding: 55 55 26
Width: 535
GlyphClass: 2
Flags: W
LayerCount: 2
Fore
SplineSet
411 597 m 1,0,1
 258 592 258 592 129 592 c 0,2,3
 53 592 53 592 53 636 c 0,4,5
 53 650 53 650 63 670 c 1,6,7
 112 662 112 662 175 662 c 0,8,9
 427 662 427 662 478 664 c 1,10,11
 486 648 486 648 486 627.5 c 128,-1,12
 486 607 486 607 480 589 c 0,13,14
 448 489 448 489 213 59 c 0,15,16
 193 22 193 22 177.5 6 c 128,-1,17
 162 -10 162 -10 145 -10 c 0,18,19
 116 -10 116 -10 81 29 c 1,20,21
 166 118 166 118 267.5 299.5 c 128,-1,22
 369 481 369 481 411 597 c 1,0,1
EndSplineSet
EndChar

StartChar: eight
Encoding: 56 56 27
Width: 535
GlyphClass: 2
Flags: W
LayerCount: 2
Fore
SplineSet
278 398 m 1,0,1
 376 440 376 440 376 528 c 0,2,3
 376 569 376 569 342.5 591.5 c 128,-1,4
 309 614 309 614 262 614 c 128,-1,5
 215 614 215 614 182 591.5 c 128,-1,6
 149 569 149 569 149 528 c 0,7,8
 149 450 149 450 278 398 c 1,0,1
162.5 86.5 m 128,-1,10
 200 49 200 49 262.5 49 c 128,-1,11
 325 49 325 49 362 86.5 c 128,-1,12
 399 124 399 124 399 178.5 c 128,-1,13
 399 233 399 233 362 268 c 128,-1,14
 325 303 325 303 247 337 c 1,15,16
 186 310 186 310 155.5 272.5 c 128,-1,17
 125 235 125 235 125 179.5 c 128,-1,9
 125 124 125 124 162.5 86.5 c 128,-1,10
263 -10 m 128,-1,19
 161 -10 161 -10 105.5 43 c 128,-1,20
 50 96 50 96 50 170.5 c 128,-1,21
 50 245 50 245 87.5 289.5 c 128,-1,22
 125 334 125 334 192 363 c 1,23,24
 132 396 132 396 104 433 c 128,-1,25
 76 470 76 470 76 532 c 128,-1,26
 76 594 76 594 130.5 633.5 c 128,-1,27
 185 673 185 673 262 673 c 128,-1,28
 339 673 339 673 394 633.5 c 128,-1,29
 449 594 449 594 449 531 c 0,30,31
 449 423 449 423 328 372 c 1,32,33
 402 337 402 337 439 291.5 c 128,-1,34
 476 246 476 246 476 171 c 128,-1,35
 476 96 476 96 420.5 43 c 128,-1,18
 365 -10 365 -10 263 -10 c 128,-1,19
EndSplineSet
EndChar

StartChar: nine
Encoding: 57 57 28
Width: 535
GlyphClass: 2
Flags: W
LayerCount: 2
Fore
SplineSet
157.5 369.5 m 128,-1,1
 194 330 194 330 257.5 330 c 128,-1,2
 321 330 321 330 387 390 c 1,3,4
 384 553 384 553 316 596 c 1,5,6
 288 615 288 615 246 615 c 0,7,8
 187 615 187 615 154 573.5 c 128,-1,9
 121 532 121 532 121 470.5 c 128,-1,0
 121 409 121 409 157.5 369.5 c 128,-1,1
254 674 m 0,10,11
 313 674 313 674 355 650 c 128,-1,12
 397 626 397 626 420 584 c 0,13,14
 462 505 462 505 462 389 c 0,15,16
 462 235 462 235 380 116 c 0,17,18
 341 60 341 60 279 25.5 c 128,-1,19
 217 -9 217 -9 143 -9 c 0,20,21
 102 -9 102 -9 102 26 c 0,22,23
 102 37 102 37 106 55 c 1,24,25
 134 51 134 51 146 51 c 0,26,27
 253 51 253 51 315 133 c 128,-1,28
 377 215 377 215 386 334 c 1,29,30
 315 273 315 273 234 273 c 128,-1,31
 153 273 153 273 98.5 324 c 128,-1,32
 44 375 44 375 44 459.5 c 128,-1,33
 44 544 44 544 101.5 609 c 128,-1,34
 159 674 159 674 254 674 c 0,10,11
EndSplineSet
EndChar

StartChar: colon
Encoding: 58 58 29
Width: 231
GlyphClass: 2
Flags: W
LayerCount: 2
Fore
SplineSet
111 -10 m 128,-1,1
 86 -10 86 -10 68 8 c 128,-1,2
 50 26 50 26 50 53 c 128,-1,3
 50 80 50 80 68 98.5 c 128,-1,4
 86 117 86 117 111 117 c 128,-1,5
 136 117 136 117 153.5 98.5 c 128,-1,6
 171 80 171 80 171 53 c 128,-1,7
 171 26 171 26 153.5 8 c 128,-1,0
 136 -10 136 -10 111 -10 c 128,-1,1
111 351 m 128,-1,9
 86 351 86 351 68 369 c 128,-1,10
 50 387 50 387 50 414 c 128,-1,11
 50 441 50 441 68 459.5 c 128,-1,12
 86 478 86 478 111 478 c 128,-1,13
 136 478 136 478 153.5 459.5 c 128,-1,14
 171 441 171 441 171 414 c 128,-1,15
 171 387 171 387 153.5 369 c 128,-1,8
 136 351 136 351 111 351 c 128,-1,9
EndSplineSet
EndChar

StartChar: semicolon
Encoding: 59 59 30
Width: 246
GlyphClass: 2
Flags: W
LayerCount: 2
Fore
SplineSet
108 351 m 128,-1,1
 83 351 83 351 65 369 c 128,-1,2
 47 387 47 387 47 414 c 128,-1,3
 47 441 47 441 65 459.5 c 128,-1,4
 83 478 83 478 108 478 c 128,-1,5
 133 478 133 478 150.5 459.5 c 128,-1,6
 168 441 168 441 168 414 c 128,-1,7
 168 387 168 387 150.5 369 c 128,-1,0
 133 351 133 351 108 351 c 128,-1,1
107 -22 m 0,8,9
 107 27 107 27 58 37 c 1,10,11
 48 53 48 53 48 72 c 128,-1,12
 48 91 48 91 65 105.5 c 128,-1,13
 82 120 82 120 107 120 c 128,-1,14
 132 120 132 120 150.5 97 c 128,-1,15
 169 74 169 74 169 18.5 c 128,-1,16
 169 -37 169 -37 134.5 -90 c 128,-1,17
 100 -143 100 -143 53 -143 c 0,18,19
 27 -143 27 -143 27 -113 c 0,20,21
 27 -105 27 -105 28 -101 c 1,22,-1
 33 -101 l 2,23,24
 65 -101 65 -101 86 -77 c 128,-1,25
 107 -53 107 -53 107 -22 c 0,8,9
EndSplineSet
EndChar

StartChar: less
Encoding: 60 60 31
Width: 535
GlyphClass: 2
Flags: W
LayerCount: 2
Fore
SplineSet
399 438 m 1,0,-1
 182 251 l 1,1,2
 219 214 219 214 399 52 c 1,3,4
 381 18 381 18 350 18 c 0,5,6
 336 18 336 18 325 29 c 2,7,-1
 106 251 l 1,8,-1
 325 461 l 1,9,10
 338 472 338 472 351.5 472 c 128,-1,11
 365 472 365 472 378.5 461.5 c 128,-1,12
 392 451 392 451 399 438 c 1,0,-1
EndSplineSet
EndChar

StartChar: equal
Encoding: 61 61 32
Width: 535
GlyphClass: 2
Flags: W
LayerCount: 2
Fore
SplineSet
430 116 m 2,0,-1
 274 124 l 1,1,2
 160 124 160 124 72 116 c 1,3,4
 69 131 69 131 69 146.5 c 128,-1,5
 69 162 69 162 78 175 c 128,-1,6
 87 188 87 188 105 188 c 0,7,8
 108 188 108 188 168 184.5 c 128,-1,9
 228 181 228 181 315 181 c 128,-1,10
 402 181 402 181 463 188 c 1,11,12
 466 179 466 179 466 159.5 c 128,-1,13
 466 140 466 140 456 128 c 128,-1,14
 446 116 446 116 430 116 c 2,0,-1
430 316 m 2,15,-1
 274 324 l 1,16,17
 160 324 160 324 72 316 c 1,18,19
 69 331 69 331 69 346.5 c 128,-1,20
 69 362 69 362 78 375 c 128,-1,21
 87 388 87 388 105 388 c 0,22,23
 108 388 108 388 168 384.5 c 128,-1,24
 228 381 228 381 315 381 c 128,-1,25
 402 381 402 381 463 388 c 1,26,27
 466 379 466 379 466 359.5 c 128,-1,28
 466 340 466 340 456 328 c 128,-1,29
 446 316 446 316 430 316 c 2,15,-1
EndSplineSet
EndChar

StartChar: greater
Encoding: 62 62 33
Width: 535
GlyphClass: 2
Flags: W
LayerCount: 2
Fore
SplineSet
337 251 m 1,0,1
 337 251 337 251 120 438 c 1,2,3
 127 451 127 451 140.5 461.5 c 128,-1,4
 154 472 154 472 167.5 472 c 128,-1,5
 181 472 181 472 194 461 c 1,6,-1
 413 251 l 1,7,-1
 194 29 l 2,8,9
 183 18 183 18 169 18 c 0,10,11
 138 18 138 18 120 52 c 1,12,13
 300 214 300 214 337 251 c 1,0,1
EndSplineSet
EndChar

StartChar: question
Encoding: 63 63 34
Width: 382
GlyphClass: 2
Flags: W
LayerCount: 2
Fore
SplineSet
219 199 m 1,0,1
 198 189 198 189 181 189 c 0,2,3
 135 189 135 189 135 257 c 0,4,5
 135 317 135 317 189 378 c 0,6,7
 211 403 211 403 234 428 c 0,8,9
 288 489 288 489 288 553 c 0,10,11
 288 595 288 595 253 616 c 0,12,13
 232 628 232 628 198 628 c 128,-1,14
 164 628 164 628 129.5 607.5 c 128,-1,15
 95 587 95 587 86 553 c 1,16,17
 40 560 40 560 40 597 c 0,18,19
 40 637 40 637 84 660.5 c 128,-1,20
 128 684 128 684 192.5 684 c 128,-1,21
 257 684 257 684 302 657 c 0,22,23
 362 622 362 622 362 551 c 0,24,25
 362 506 362 506 346 470 c 128,-1,26
 330 434 330 434 307.5 411 c 128,-1,27
 285 388 285 388 262 367 c 0,28,29
 208 316 208 316 208 262 c 0,30,31
 208 232 208 232 219 199 c 1,0,1
182 -10 m 128,-1,33
 157 -10 157 -10 139 8 c 128,-1,34
 121 26 121 26 121 53 c 128,-1,35
 121 80 121 80 139 98.5 c 128,-1,36
 157 117 157 117 182 117 c 128,-1,37
 207 117 207 117 224.5 98.5 c 128,-1,38
 242 80 242 80 242 53 c 128,-1,39
 242 26 242 26 224.5 8 c 128,-1,32
 207 -10 207 -10 182 -10 c 128,-1,33
EndSplineSet
EndChar

StartChar: at
Encoding: 64 64 35
Width: 861
GlyphClass: 2
Flags: W
LayerCount: 2
Fore
SplineSet
363 54 m 0,0,1
 314 54 314 54 283 90.5 c 128,-1,2
 252 127 252 127 252 196 c 0,3,4
 252 298 252 298 305 370.5 c 128,-1,5
 358 443 358 443 440.5 443 c 128,-1,6
 523 443 523 443 586 397 c 1,7,8
 549 249 549 249 549 172 c 0,9,10
 549 117 549 117 588.5 117 c 128,-1,11
 628 117 628 117 664.5 170 c 128,-1,12
 701 223 701 223 701 320 c 128,-1,13
 701 417 701 417 645.5 475.5 c 128,-1,14
 590 534 590 534 475 534 c 0,15,16
 382 534 382 534 307 479.5 c 128,-1,17
 232 425 232 425 194.5 345.5 c 128,-1,18
 157 266 157 266 157 174.5 c 128,-1,19
 157 83 157 83 215.5 17.5 c 128,-1,20
 274 -48 274 -48 388 -48 c 0,21,22
 443 -48 443 -48 488.5 -26 c 128,-1,23
 534 -4 534 -4 550 32 c 1,24,25
 593 14 593 14 593 -16 c 0,26,27
 593 -55 593 -55 532.5 -82 c 128,-1,28
 472 -109 472 -109 391 -109 c 0,29,30
 243 -109 243 -109 166 -26 c 128,-1,31
 89 57 89 57 89 180 c 0,32,33
 89 253 89 253 117 325 c 128,-1,34
 145 397 145 397 194.5 456.5 c 128,-1,35
 244 516 244 516 321.5 553 c 128,-1,36
 399 590 399 590 490 590 c 0,37,38
 619 590 619 590 695 518.5 c 128,-1,39
 771 447 771 447 771 337.5 c 128,-1,40
 771 228 771 228 705.5 148.5 c 128,-1,41
 640 69 640 69 573 69 c 128,-1,42
 506 69 506 69 487 146 c 1,43,44
 436 54 436 54 363 54 c 0,0,1
481 204 m 1,45,46
 485 230 485 230 491.5 285 c 128,-1,47
 498 340 498 340 500 356 c 1,48,49
 466 384 466 384 424.5 384 c 128,-1,50
 383 384 383 384 352.5 338 c 128,-1,51
 322 292 322 292 322 217 c 0,52,53
 322 173 322 173 337 144 c 128,-1,54
 352 115 352 115 378 115 c 128,-1,55
 404 115 404 115 432 138 c 128,-1,56
 460 161 460 161 481 204 c 1,45,46
EndSplineSet
EndChar

StartChar: A
Encoding: 65 65 36
Width: 551
GlyphClass: 2
Flags: W
LayerCount: 2
Fore
SplineSet
388 268 m 1,0,1
 354 357 354 357 285 569 c 1,2,3
 276 546 276 546 239 441 c 128,-1,4
 202 336 202 336 174 268 c 1,5,6
 252 266 252 266 305 266 c 128,-1,7
 358 266 358 266 388 268 c 1,0,1
409 209 m 1,8,9
 297 207 297 207 273 207 c 128,-1,10
 249 207 249 207 149 209 c 1,11,12
 82 40 82 40 65 -21 c 1,13,14
 32 -14 32 -14 18.5 -5 c 128,-1,15
 5 4 5 4 5 17.5 c 128,-1,16
 5 31 5 31 48 131 c 0,17,18
 192 470 192 470 247 660 c 1,19,20
 266 663 266 663 290 663 c 128,-1,21
 314 663 314 663 324 654.5 c 128,-1,22
 334 646 334 646 345 610 c 0,23,24
 408 407 408 407 471.5 241.5 c 128,-1,25
 535 76 535 76 569 10 c 1,26,27
 541 -10 541 -10 521 -10 c 0,28,29
 489 -10 489 -10 478 17 c 0,30,31
 459 66 459 66 409 209 c 1,8,9
EndSplineSet
EndChar

StartChar: B
Encoding: 66 66 37
Width: 547
GlyphClass: 2
Flags: W
LayerCount: 2
Fore
SplineSet
224 612 m 0,0,1
 200 612 200 612 156 608 c 1,2,3
 160 524 160 524 160 383 c 1,4,5
 192 381 192 381 215 381 c 0,6,7
 401 381 401 381 401 495 c 0,8,9
 401 612 401 612 224 612 c 0,0,1
272 51 m 0,10,11
 337 51 337 51 381 87.5 c 128,-1,12
 425 124 425 124 425 190.5 c 128,-1,13
 425 257 425 257 375.5 294 c 128,-1,14
 326 331 326 331 257.5 331 c 128,-1,15
 189 331 189 331 159 326 c 1,16,17
 159 246 159 246 146 87 c 1,18,19
 165 72 165 72 201.5 61.5 c 128,-1,20
 238 51 238 51 272 51 c 0,10,11
69 53 m 1,21,22
 85 167 85 167 85 370 c 128,-1,23
 85 573 85 573 72 661 c 1,24,25
 146 673 146 673 243 673 c 128,-1,26
 340 673 340 673 409 633 c 128,-1,27
 478 593 478 593 478 497 c 128,-1,28
 478 401 478 401 391 362 c 1,29,30
 502 315 502 315 502 191 c 0,31,32
 502 96 502 96 440.5 43 c 128,-1,33
 379 -10 379 -10 290 -10 c 0,34,35
 145 -10 145 -10 69 53 c 1,21,22
EndSplineSet
EndChar

StartChar: C
Encoding: 67 67 38
Width: 602
GlyphClass: 2
Flags: W
LayerCount: 2
Fore
SplineSet
514 134 m 1,0,1
 558 116 558 116 558 82.5 c 128,-1,2
 558 49 558 49 501 19.5 c 128,-1,3
 444 -10 444 -10 360 -10 c 0,4,5
 219 -10 219 -10 134 84.5 c 128,-1,6
 49 179 49 179 49 335.5 c 128,-1,7
 49 492 49 492 134 582.5 c 128,-1,8
 219 673 219 673 364 673 c 0,9,10
 442 673 442 673 495 641.5 c 128,-1,11
 548 610 548 610 548 564 c 0,12,13
 548 523 548 523 491 514 c 1,14,15
 472 563 472 563 431 587.5 c 128,-1,16
 390 612 390 612 344 612 c 0,17,18
 250 612 250 612 190.5 537.5 c 128,-1,19
 131 463 131 463 131 343.5 c 128,-1,20
 131 224 131 224 191 137.5 c 128,-1,21
 251 51 251 51 359 51 c 0,22,23
 407 51 407 51 448.5 72 c 128,-1,24
 490 93 490 93 514 134 c 1,0,1
EndSplineSet
EndChar

StartChar: D
Encoding: 68 68 39
Width: 635
GlyphClass: 2
Flags: W
LayerCount: 2
Fore
SplineSet
66 53 m 1,0,1
 80 144 80 144 81 354 c 128,-1,2
 82 564 82 564 69 661 c 1,3,4
 129 673 129 673 215.5 673 c 128,-1,5
 302 673 302 673 364 656 c 128,-1,6
 426 639 426 639 477.5 601.5 c 128,-1,7
 529 564 529 564 557.5 496 c 128,-1,8
 586 428 586 428 586 333 c 0,9,10
 586 183 586 183 506 86.5 c 128,-1,11
 426 -10 426 -10 284 -10 c 128,-1,12
 142 -10 142 -10 66 53 c 1,0,1
153 608 m 1,13,14
 157 539 157 539 157 381 c 128,-1,15
 157 223 157 223 143 87 c 1,16,17
 197 51 197 51 268 51 c 128,-1,18
 339 51 339 51 385 75 c 128,-1,19
 431 99 431 99 456 140 c 0,20,21
 502 216 502 216 502 313 c 0,22,23
 502 462 502 462 428 537 c 128,-1,24
 354 612 354 612 217 612 c 0,25,26
 195 612 195 612 153 608 c 1,13,14
EndSplineSet
EndChar

StartChar: E
Encoding: 69 69 40
Width: 486
GlyphClass: 2
Flags: W
LayerCount: 2
Fore
SplineSet
78 57 m 2,0,-1
 80 224 l 1,1,-1
 80 424 l 2,2,3
 80 567 80 567 66 657 c 1,4,5
 173 666 173 666 300.5 666 c 128,-1,6
 428 666 428 666 446 651 c 0,7,8
 455 643 455 643 455 622 c 128,-1,9
 455 601 455 601 447 581 c 1,10,11
 390 602 390 602 261 602 c 0,12,13
 208 602 208 602 151 599 c 1,14,15
 155 555 155 555 155 387 c 1,16,-1
 234 387 l 2,17,18
 318 387 318 387 354 391 c 1,19,20
 358 383 358 383 358 362.5 c 128,-1,21
 358 342 358 342 347.5 334 c 128,-1,22
 337 326 337 326 312.5 325 c 128,-1,23
 288 324 288 324 243 324 c 2,24,-1
 155 324 l 1,25,26
 155 106 155 106 162 62 c 1,27,28
 206 60 206 60 233 60 c 0,29,30
 401 60 401 60 448 83 c 1,31,32
 456 63 456 63 456 42 c 128,-1,33
 456 21 456 21 447 13 c 0,34,35
 429 -2 429 -2 293 -2 c 128,-1,36
 157 -2 157 -2 127.5 -0.5 c 128,-1,37
 98 1 98 1 88 14 c 128,-1,38
 78 27 78 27 78 57 c 2,0,-1
EndSplineSet
EndChar

StartChar: F
Encoding: 70 70 41
Width: 455
GlyphClass: 2
Flags: W
LayerCount: 2
Fore
SplineSet
78 54 m 2,0,-1
 80 231 l 1,1,-1
 80 424 l 2,2,3
 80 567 80 567 66 657 c 1,4,5
 173 666 173 666 300.5 666 c 128,-1,6
 428 666 428 666 446 651 c 0,7,8
 455 643 455 643 455 622 c 128,-1,9
 455 601 455 601 447 581 c 1,10,11
 390 602 390 602 261 602 c 0,12,13
 208 602 208 602 151 599 c 1,14,15
 155 555 155 555 155 480 c 2,16,-1
 155 377 l 1,17,-1
 234 377 l 2,18,19
 317 377 317 377 354 381 c 1,20,21
 358 373 358 373 358 349.5 c 128,-1,22
 358 326 358 326 342 320 c 128,-1,23
 326 314 326 314 268 314 c 2,24,-1
 155 314 l 1,25,-1
 155 203 l 2,26,27
 155 68 155 68 174 5 c 1,28,29
 156 -3 156 -3 127 -3 c 128,-1,30
 98 -3 98 -3 88 10 c 128,-1,31
 78 23 78 23 78 54 c 2,0,-1
EndSplineSet
EndChar

StartChar: G
Encoding: 71 71 42
Width: 615
GlyphClass: 2
Flags: W
LayerCount: 2
Fore
SplineSet
558 85 m 0,0,1
 558 49 558 49 501 19.5 c 128,-1,2
 444 -10 444 -10 360 -10 c 0,3,4
 219 -10 219 -10 134 84.5 c 128,-1,5
 49 179 49 179 49 335.5 c 128,-1,6
 49 492 49 492 134 582.5 c 128,-1,7
 219 673 219 673 364 673 c 0,8,9
 442 673 442 673 495 641.5 c 128,-1,10
 548 610 548 610 548 564 c 0,11,12
 548 523 548 523 491 514 c 1,13,14
 472 563 472 563 431 587.5 c 128,-1,15
 390 612 390 612 344 612 c 0,16,17
 250 612 250 612 190.5 537.5 c 128,-1,18
 131 463 131 463 131 343.5 c 128,-1,19
 131 224 131 224 191 137.5 c 128,-1,20
 251 51 251 51 358 51 c 0,21,22
 438 51 438 51 487 99 c 1,23,24
 485 224 485 224 480 301 c 1,25,26
 497 304 497 304 516 304 c 0,27,28
 565 304 565 304 565 266 c 1,29,-1
 562 202 l 2,30,31
 558 138 558 138 558 85 c 0,0,1
EndSplineSet
EndChar

StartChar: H
Encoding: 72 72 43
Width: 627
GlyphClass: 2
Flags: W
LayerCount: 2
Fore
SplineSet
71 54 m 2,0,-1
 73 231 l 1,1,-1
 73 431 l 2,2,3
 73 572 73 572 66 663 c 1,4,5
 83 666 83 666 107 666 c 0,6,7
 156 666 156 666 156 628 c 0,8,9
 156 623 156 623 154 588 c 0,10,11
 148 481 148 481 148 391 c 1,12,13
 196 389 196 389 307.5 389 c 128,-1,14
 419 389 419 389 467 391 c 1,15,-1
 467 442 l 1,16,17
 466 586 466 586 460 663 c 1,18,19
 477 666 477 666 501 666 c 0,20,21
 550 666 550 666 550 628 c 0,22,23
 550 622 550 622 548 588 c 0,24,25
 542 484 542 484 542 404 c 2,26,-1
 542 203 l 2,27,28
 542 68 542 68 561 5 c 1,29,30
 543 -3 543 -3 514 -3 c 128,-1,31
 485 -3 485 -3 475 10 c 128,-1,32
 465 23 465 23 465 54 c 2,33,34
 465 54 465 54 467 231 c 1,35,-1
 467 332 l 1,36,37
 416 330 416 330 306 330 c 128,-1,38
 196 330 196 330 148 332 c 1,39,-1
 148 203 l 2,40,41
 148 68 148 68 167 5 c 1,42,43
 149 -3 149 -3 120 -3 c 128,-1,44
 91 -3 91 -3 81 10 c 128,-1,45
 71 23 71 23 71 54 c 2,0,-1
EndSplineSet
EndChar

StartChar: I
Encoding: 73 73 44
Width: 221
GlyphClass: 2
Flags: W
LayerCount: 2
Fore
SplineSet
71 54 m 2,0,-1
 73 231 l 1,1,-1
 73 431 l 2,2,3
 73 572 73 572 66 663 c 1,4,5
 83 666 83 666 107 666 c 0,6,7
 156 666 156 666 156 628 c 0,8,9
 156 622 156 622 154 588 c 0,10,11
 148 484 148 484 148 404 c 2,12,-1
 148 203 l 2,13,14
 148 68 148 68 167 5 c 1,15,16
 149 -3 149 -3 120 -3 c 128,-1,17
 91 -3 91 -3 81 10 c 128,-1,18
 71 23 71 23 71 54 c 2,0,-1
EndSplineSet
EndChar

StartChar: J
Encoding: 74 74 45
Width: 222
GlyphClass: 2
Flags: W
LayerCount: 2
Fore
SplineSet
74 136 m 2,0,-1
 73 431 l 2,1,2
 73 572 73 572 66 663 c 1,3,4
 83 666 83 666 107 666 c 0,5,6
 156 666 156 666 156 628 c 0,7,8
 156 623 156 623 154 591 c 0,9,10
 148 495 148 495 148 421 c 2,11,-1
 148 111 l 2,12,13
 148 56 148 56 136 13 c 128,-1,14
 124 -30 124 -30 106.5 -54 c 128,-1,15
 89 -78 89 -78 68 -94 c 1,16,17
 32 -119 32 -119 3 -119 c 0,18,19
 -34 -119 -34 -119 -38 -62 c 1,20,21
 20 -50 20 -50 49 -20 c 0,22,23
 70 2 70 2 73 69 c 0,24,25
 74 91 74 91 74 136 c 2,0,-1
EndSplineSet
EndChar

StartChar: K
Encoding: 75 75 46
Width: 515
GlyphClass: 2
Flags: W
LayerCount: 2
Fore
SplineSet
71 54 m 2,0,-1
 73 231 l 1,1,-1
 73 431 l 2,2,3
 73 572 73 572 66 663 c 1,4,5
 86 666 86 666 100 666 c 0,6,7
 156 666 156 666 156 628 c 0,8,9
 156 623 156 623 154 585 c 0,10,11
 148 471 148 471 148 374 c 1,12,13
 234 443 234 443 316 526.5 c 128,-1,14
 398 610 398 610 416 664 c 1,15,16
 468 655 468 655 468 626 c 128,-1,17
 468 597 468 597 398 523 c 128,-1,18
 328 449 328 449 234 370 c 1,19,20
 345 185 345 185 417 97 c 0,21,22
 429 82 429 82 436 76 c 0,23,24
 458 55 458 55 488 55 c 0,25,26
 500 55 500 55 511 58 c 1,27,28
 515 44 515 44 515 28 c 128,-1,29
 515 12 515 12 498 1 c 128,-1,30
 481 -10 481 -10 456 -10 c 0,31,32
 413 -10 413 -10 366 41 c 0,33,34
 324 86 324 86 285 145 c 128,-1,35
 246 204 246 204 214 254 c 128,-1,36
 182 304 182 304 172 319 c 1,37,38
 155 306 155 306 148 301 c 1,39,-1
 148 203 l 2,40,41
 148 68 148 68 167 5 c 1,42,43
 151 -3 151 -3 121 -3 c 128,-1,44
 91 -3 91 -3 81 10.5 c 128,-1,45
 71 24 71 24 71 54 c 2,0,-1
EndSplineSet
EndChar

StartChar: L
Encoding: 76 76 47
Width: 429
GlyphClass: 2
Flags: W
LayerCount: 2
Fore
SplineSet
71 57 m 2,0,-1
 73 224 l 1,1,-1
 73 431 l 2,2,3
 73 572 73 572 66 663 c 1,4,5
 83 666 83 666 107 666 c 0,6,7
 156 666 156 666 156 628 c 0,8,9
 156 622 156 622 154 588 c 0,10,11
 148 484 148 484 148 404 c 2,12,-1
 148 314 l 2,13,14
 148 106 148 106 155 62 c 1,15,16
 197 60 197 60 221 60 c 0,17,18
 377 60 377 60 422 83 c 1,19,20
 429 62 429 62 429 41.5 c 128,-1,21
 429 21 429 21 420 13 c 0,22,23
 403 -2 403 -2 275 -2 c 128,-1,24
 147 -2 147 -2 118.5 -0.5 c 128,-1,25
 90 1 90 1 80.5 14 c 128,-1,26
 71 27 71 27 71 57 c 2,0,-1
EndSplineSet
EndChar

StartChar: M
Encoding: 77 77 48
Width: 797
GlyphClass: 2
Flags: W
LayerCount: 2
Fore
SplineSet
83 54 m 2,0,-1
 85 231 l 1,1,-1
 85 483 l 2,2,3
 85 595 85 595 66 659 c 1,4,5
 98 667 98 667 124 667 c 0,6,7
 166 667 166 667 195 619 c 1,8,9
 234 551 234 551 274 453 c 128,-1,10
 314 355 314 355 336.5 287.5 c 128,-1,11
 359 220 359 220 400 92 c 1,12,13
 431 216 431 216 483.5 360 c 128,-1,14
 536 504 536 504 601 619 c 0,15,16
 628 667 628 667 674 667 c 0,17,18
 708 667 708 667 730 659 c 1,19,20
 712 599 712 599 712 436 c 2,21,-1
 712 203 l 2,22,23
 712 68 712 68 731 5 c 1,24,25
 713 -3 713 -3 684 -3 c 128,-1,26
 655 -3 655 -3 645 10 c 128,-1,27
 635 23 635 23 635 42 c 128,-1,28
 635 61 635 61 636 124 c 0,29,30
 637 313 637 313 637 558 c 1,31,32
 545 373 545 373 436 2 c 1,33,34
 424 -2 424 -2 409 -2 c 0,35,36
 370 -2 370 -2 359 24 c 0,37,38
 335 78 335 78 268.5 264.5 c 128,-1,39
 202 451 202 451 150 556 c 1,40,-1
 150 203 l 2,41,42
 150 68 150 68 169 5 c 1,43,44
 151 -3 151 -3 127 -3 c 128,-1,45
 103 -3 103 -3 93 10 c 128,-1,46
 83 23 83 23 83 54 c 2,0,-1
EndSplineSet
EndChar

StartChar: N
Encoding: 78 78 49
Width: 629
GlyphClass: 2
Flags: W
LayerCount: 2
Fore
SplineSet
485 119 m 1,0,1
 479 191 479 191 479 371 c 2,2,-1
 479 431 l 2,3,4
 479 572 479 572 472 663 c 1,5,6
 489 666 489 666 503 666 c 0,7,8
 552 666 552 666 552 628 c 0,9,10
 552 622 552 622 550 588 c 0,11,12
 544 484 544 484 544 404 c 2,13,-1
 544 233 l 2,14,15
 544 92 544 92 551 1 c 1,16,17
 535 -3 535 -3 518 -3 c 0,18,19
 484 -3 484 -3 466 24 c 0,20,21
 425 87 425 87 324 265.5 c 128,-1,22
 223 444 223 444 151 552 c 1,23,24
 150 514 150 514 150 203 c 0,25,26
 150 68 150 68 169 5 c 1,27,28
 151 -3 151 -3 127 -3 c 128,-1,29
 103 -3 103 -3 93 10 c 128,-1,30
 83 23 83 23 83 54 c 2,31,-1
 85 231 l 1,32,-1
 85 431 l 2,33,34
 85 598 85 598 66 659 c 1,35,36
 85 667 85 667 109 667 c 128,-1,37
 133 667 133 667 144 660 c 0,38,39
 187 634 187 634 297 451.5 c 128,-1,40
 407 269 407 269 485 119 c 1,0,1
EndSplineSet
EndChar

StartChar: O
Encoding: 79 79 50
Width: 712
GlyphClass: 2
Flags: W
LayerCount: 2
Fore
SplineSet
579.5 83 m 128,-1,1
 496 -10 496 -10 355.5 -10 c 128,-1,2
 215 -10 215 -10 132 83 c 128,-1,3
 49 176 49 176 49 332 c 128,-1,4
 49 488 49 488 132 580.5 c 128,-1,5
 215 673 215 673 355.5 673 c 128,-1,6
 496 673 496 673 579.5 580.5 c 128,-1,7
 663 488 663 488 663 332 c 128,-1,0
 663 176 663 176 579.5 83 c 128,-1,1
529 515 m 0,8,9
 504 559 504 559 459 585.5 c 128,-1,10
 414 612 414 612 356 612 c 0,11,12
 253 612 253 612 192 541.5 c 128,-1,13
 131 471 131 471 131 362 c 0,14,15
 131 243 131 243 181 151 c 0,16,17
 206 105 206 105 250.5 78 c 128,-1,18
 295 51 295 51 354 51 c 0,19,20
 462 51 462 51 520.5 123.5 c 128,-1,21
 579 196 579 196 579 311.5 c 128,-1,22
 579 427 579 427 529 515 c 0,8,9
EndSplineSet
EndChar

StartChar: P
Encoding: 80 80 51
Width: 504
GlyphClass: 2
Flags: W
LayerCount: 2
Fore
SplineSet
154 329 m 1,0,1
 198 304 198 304 260 304 c 128,-1,2
 322 304 322 304 360.5 343.5 c 128,-1,3
 399 383 399 383 399 450 c 0,4,5
 399 542 399 542 356 577 c 128,-1,6
 313 612 313 612 222 612 c 0,7,8
 196 612 196 612 150 608 c 1,9,10
 154 550 154 550 154 404 c 2,11,-1
 154 329 l 1,0,1
77 54 m 2,12,-1
 79 231 l 1,13,-1
 79 431 l 2,14,15
 79 569 79 569 66 661 c 1,16,17
 140 673 140 673 215 673 c 0,18,19
 483 673 483 673 483 457 c 0,20,21
 483 353 483 353 420.5 298 c 128,-1,22
 358 243 358 243 280.5 243 c 128,-1,23
 203 243 203 243 154 275 c 1,24,-1
 154 203 l 2,25,26
 154 68 154 68 173 5 c 1,27,28
 155 -3 155 -3 126 -3 c 128,-1,29
 97 -3 97 -3 87 10 c 128,-1,30
 77 23 77 23 77 54 c 2,12,-1
EndSplineSet
EndChar

StartChar: Q
Encoding: 81 81 52
Width: 712
GlyphClass: 2
Flags: W
LayerCount: 2
Fore
SplineSet
529 515 m 0,0,1
 504 559 504 559 459 585.5 c 128,-1,2
 414 612 414 612 356 612 c 0,3,4
 253 612 253 612 192 541.5 c 128,-1,5
 131 471 131 471 131 362 c 0,6,7
 131 243 131 243 181 151 c 0,8,9
 206 105 206 105 250.5 78 c 128,-1,10
 295 51 295 51 354 51 c 0,11,12
 462 51 462 51 520.5 123.5 c 128,-1,13
 579 196 579 196 579 311.5 c 128,-1,14
 579 427 579 427 529 515 c 0,0,1
325 -9 m 1,15,16
 198 1 198 1 123.5 92.5 c 128,-1,17
 49 184 49 184 49 336 c 128,-1,18
 49 488 49 488 132 580.5 c 128,-1,19
 215 673 215 673 355.5 673 c 128,-1,20
 496 673 496 673 579.5 580.5 c 128,-1,21
 663 488 663 488 663 336.5 c 128,-1,22
 663 185 663 185 588.5 94 c 128,-1,23
 514 3 514 3 387 -8 c 1,24,25
 399 -52 399 -52 429.5 -74 c 128,-1,26
 460 -96 460 -96 500.5 -96 c 128,-1,27
 541 -96 541 -96 562 -88 c 128,-1,28
 583 -80 583 -80 611 -58 c 1,29,30
 621 -64 621 -64 630.5 -79 c 128,-1,31
 640 -94 640 -94 640 -104 c 0,32,33
 640 -129 640 -129 599.5 -143 c 128,-1,34
 559 -157 559 -157 508 -157 c 0,35,36
 435 -157 435 -157 386.5 -117 c 128,-1,37
 338 -77 338 -77 325 -9 c 1,15,16
EndSplineSet
EndChar

StartChar: R
Encoding: 82 82 53
Width: 530
GlyphClass: 2
Flags: W
LayerCount: 2
Fore
SplineSet
77 54 m 2,0,-1
 79 231 l 1,1,-1
 79 431 l 2,2,3
 79 569 79 569 66 661 c 1,4,5
 140 673 140 673 215 673 c 0,6,7
 483 673 483 673 483 474 c 0,8,9
 483 392 483 392 438 341.5 c 128,-1,10
 393 291 393 291 319 277 c 0,11,12
 319 276 319 276 336 240 c 128,-1,13
 353 204 353 204 359.5 192 c 128,-1,14
 366 180 366 180 380 153 c 0,15,16
 406 103 406 103 425 84 c 1,17,18
 451 55 451 55 489 55 c 0,19,20
 501 55 501 55 516 58 c 1,21,22
 525 40 525 40 525 28 c 0,23,24
 525 -10 525 -10 450 -10 c 0,25,26
 409 -10 409 -10 374 30 c 0,27,28
 355 52 355 52 341.5 69 c 128,-1,29
 328 86 328 86 308.5 122 c 128,-1,30
 289 158 289 158 281 173.5 c 128,-1,31
 273 189 273 189 254 230.5 c 128,-1,32
 235 272 235 272 232 278 c 1,33,34
 204 282 204 282 204 300 c 0,35,36
 204 309 204 309 209 327 c 1,37,38
 237 322 237 322 256 322 c 0,39,40
 323 322 323 322 361 361.5 c 128,-1,41
 399 401 399 401 399 475 c 128,-1,42
 399 549 399 549 357 580.5 c 128,-1,43
 315 612 315 612 228 612 c 0,44,45
 196 612 196 612 150 608 c 1,46,47
 154 550 154 550 154 404 c 2,48,-1
 154 203 l 2,49,50
 154 68 154 68 173 5 c 1,51,52
 155 -3 155 -3 126 -3 c 128,-1,53
 97 -3 97 -3 87 10 c 128,-1,54
 77 23 77 23 77 54 c 2,0,-1
EndSplineSet
EndChar

StartChar: S
Encoding: 83 83 54
Width: 518
GlyphClass: 2
Flags: W
LayerCount: 2
Fore
SplineSet
401 533 m 1,0,1
 384 566 384 566 340 587.5 c 128,-1,2
 296 609 296 609 247 609 c 128,-1,3
 198 609 198 609 163.5 581 c 128,-1,4
 129 553 129 553 129 505.5 c 128,-1,5
 129 458 129 458 154.5 431.5 c 128,-1,6
 180 405 180 405 218 394.5 c 128,-1,7
 256 384 256 384 301 369 c 128,-1,8
 346 354 346 354 384 338 c 128,-1,9
 422 322 422 322 447.5 283 c 128,-1,10
 473 244 473 244 473 189 c 128,-1,11
 473 134 473 134 453 94.5 c 128,-1,12
 433 55 433 55 399 33 c 0,13,14
 333 -10 333 -10 248.5 -10 c 128,-1,15
 164 -10 164 -10 104.5 17.5 c 128,-1,16
 45 45 45 45 45 84 c 0,17,18
 45 107 45 107 70 123 c 0,19,20
 78 128 78 128 96 137 c 1,21,22
 115 100 115 100 164.5 76.5 c 128,-1,23
 214 53 214 53 267.5 53 c 128,-1,24
 321 53 321 53 361 83.5 c 128,-1,25
 401 114 401 114 401 166 c 128,-1,26
 401 218 401 218 365.5 245.5 c 128,-1,27
 330 273 330 273 279.5 287 c 128,-1,28
 229 301 229 301 178.5 318 c 128,-1,29
 128 335 128 335 92.5 375.5 c 128,-1,30
 57 416 57 416 57 483 c 0,31,32
 57 575 57 575 117.5 624 c 128,-1,33
 178 673 178 673 272 673 c 0,34,35
 341 673 341 673 399.5 649 c 128,-1,36
 458 625 458 625 458 583 c 0,37,38
 458 543 458 543 401 533 c 1,0,1
EndSplineSet
EndChar

StartChar: T
Encoding: 84 84 55
Width: 465
GlyphClass: 2
Flags: W
LayerCount: 2
Fore
SplineSet
194 54 m 2,0,-1
 196 231 l 1,1,-1
 196 431 l 2,2,3
 196 524 196 524 193 602 c 1,4,5
 51 602 51 602 3 598 c 1,6,7
 0 607 0 607 0 626 c 128,-1,8
 0 645 0 645 10.5 652 c 128,-1,9
 21 659 21 659 45 660 c 128,-1,10
 69 661 69 661 151 661 c 2,11,-1
 269 661 l 2,12,13
 427 661 427 661 462 664 c 1,14,15
 465 655 465 655 465 636.5 c 128,-1,16
 465 618 465 618 454.5 611 c 128,-1,17
 444 604 444 604 417 603 c 128,-1,18
 390 602 390 602 278 602 c 1,19,20
 271 459 271 459 271 404 c 2,21,-1
 271 203 l 2,22,23
 271 68 271 68 290 5 c 1,24,25
 272 -3 272 -3 243 -3 c 128,-1,26
 214 -3 214 -3 204 10 c 128,-1,27
 194 23 194 23 194 54 c 2,0,-1
EndSplineSet
EndChar

StartChar: U
Encoding: 85 85 56
Width: 644
GlyphClass: 2
Flags: W
LayerCount: 2
Fore
SplineSet
80 192 m 1,0,-1
 89 501 l 1,1,2
 89 596 89 596 72 658 c 1,3,4
 92 666 92 666 119 666 c 128,-1,5
 146 666 146 666 159.5 654.5 c 128,-1,6
 173 643 173 643 173 607.5 c 128,-1,7
 173 572 173 572 165.5 425.5 c 128,-1,8
 158 279 158 279 158 203.5 c 128,-1,9
 158 128 158 128 198.5 91 c 128,-1,10
 239 54 239 54 290 54 c 128,-1,11
 341 54 341 54 395 78 c 128,-1,12
 449 102 449 102 483 134 c 1,13,-1
 484 262 l 1,14,-1
 484 431 l 2,15,16
 484 572 484 572 477 663 c 1,17,18
 494 666 494 666 518 666 c 0,19,20
 567 666 567 666 567 628 c 0,21,22
 567 626 567 626 565 591 c 0,23,24
 559 486 559 486 559 320 c 128,-1,25
 559 154 559 154 562 101.5 c 128,-1,26
 565 49 565 49 578 5 c 1,27,28
 560 -3 560 -3 531.5 -3 c 128,-1,29
 503 -3 503 -3 492.5 9.5 c 128,-1,30
 482 22 482 22 482 56 c 2,31,-1
 482 67 l 1,32,33
 442 33 442 33 386 11.5 c 128,-1,34
 330 -10 330 -10 283 -10 c 0,35,36
 189 -10 189 -10 134.5 34.5 c 128,-1,37
 80 79 80 79 80 192 c 1,0,-1
EndSplineSet
EndChar

StartChar: V
Encoding: 86 86 57
Width: 558
GlyphClass: 2
Flags: W
LayerCount: 2
Fore
SplineSet
463 667 m 1,0,1
 491 673 491 673 510 673 c 0,2,3
 548 673 548 673 548 624 c 0,4,5
 548 514 548 514 478 329.5 c 128,-1,6
 408 145 408 145 335 52 c 0,7,8
 310 19 310 19 293 8 c 128,-1,9
 276 -3 276 -3 259 -3 c 128,-1,10
 242 -3 242 -3 220 -1 c 1,11,12
 188 160 188 160 111 368 c 128,-1,13
 34 576 34 576 -20 629 c 1,14,15
 22 666 22 666 52.5 666 c 128,-1,16
 83 666 83 666 101 623 c 0,17,18
 140 534 140 534 193 370 c 128,-1,19
 246 206 246 206 276 85 c 1,20,21
 335 151 335 151 401 326.5 c 128,-1,22
 467 502 467 502 467 617 c 0,23,24
 467 653 467 653 463 667 c 1,0,1
EndSplineSet
EndChar

StartChar: W
Encoding: 87 87 58
Width: 942
GlyphClass: 2
Flags: W
LayerCount: 2
Fore
SplineSet
837 667 m 1,0,1
 865 673 865 673 883 673 c 0,2,3
 922 673 922 673 922 630 c 0,4,5
 922 514 922 514 856.5 330.5 c 128,-1,6
 791 147 791 147 720 52 c 0,7,8
 695 19 695 19 679.5 8 c 128,-1,9
 664 -3 664 -3 647 -3 c 128,-1,10
 630 -3 630 -3 610 -1 c 1,11,12
 571 209 571 209 485 440 c 1,13,14
 453 329 453 329 405.5 220.5 c 128,-1,15
 358 112 358 112 323 65.5 c 128,-1,16
 288 19 288 19 272.5 8 c 128,-1,17
 257 -3 257 -3 240.5 -3 c 128,-1,18
 224 -3 224 -3 204 -1 c 1,19,20
 175 159 175 159 102.5 367.5 c 128,-1,21
 30 576 30 576 -20 629 c 1,22,23
 21 666 21 666 51.5 666 c 128,-1,24
 82 666 82 666 100 623 c 0,25,26
 137 536 137 536 184 374 c 128,-1,27
 231 212 231 212 260 85 c 1,28,29
 314 150 314 150 374 325.5 c 128,-1,30
 434 501 434 501 434 616 c 0,31,32
 434 652 434 652 430 667 c 1,33,34
 458 673 458 673 476 673 c 0,35,36
 515 673 515 673 515 630 c 0,37,38
 515 601 515 601 510 573 c 1,39,40
 576 469 576 469 666 85 c 1,41,42
 720 151 720 151 780.5 326 c 128,-1,43
 841 501 841 501 841 616 c 0,44,45
 841 652 841 652 837 667 c 1,0,1
EndSplineSet
EndChar

StartChar: X
Encoding: 88 88 59
Width: 576
GlyphClass: 2
Flags: W
LayerCount: 2
Fore
SplineSet
25 43 m 0,0,1
 25 102 25 102 247 345 c 1,2,3
 100 581 100 581 30 626 c 1,4,5
 68 673 68 673 104 673 c 0,6,7
 125 673 125 673 155 631 c 0,8,9
 219 539 219 539 300 405 c 1,10,11
 356 473 356 473 400 551.5 c 128,-1,12
 444 630 444 630 450 672 c 1,13,14
 521 658 521 658 521 616 c 0,15,16
 521 589 521 589 463 506.5 c 128,-1,17
 405 424 405 424 336 346 c 1,18,19
 492 80 492 80 570 33 c 1,20,21
 532 -10 532 -10 504.5 -10 c 128,-1,22
 477 -10 477 -10 449 29 c 1,23,24
 390 107 390 107 283 285 c 1,25,26
 226 230 226 230 167 138 c 128,-1,27
 108 46 108 46 94 -10 c 1,28,29
 25 3 25 3 25 43 c 0,0,1
EndSplineSet
EndChar

StartChar: Y
Encoding: 89 89 60
Width: 501
GlyphClass: 2
Flags: W
LayerCount: 2
Fore
SplineSet
496 627 m 0,0,1
 496 602 496 602 420 485.5 c 128,-1,2
 344 369 344 369 287 301 c 1,3,-1
 287 216 l 2,4,5
 287 70 287 70 306 5 c 1,6,7
 288 -3 288 -3 259 -3 c 128,-1,8
 230 -3 230 -3 220 10 c 128,-1,9
 210 23 210 23 210 54 c 0,10,11
 211 146 211 146 212 232 c 1,12,-1
 212 294 l 1,13,14
 67 567 67 567 -10 619 c 1,15,16
 5 639 5 639 12 645 c 128,-1,17
 19 651 19 651 26 657 c 0,18,19
 38 667 38 667 53 667 c 0,20,21
 78 667 78 667 101 633 c 0,22,23
 161 546 161 546 261 361 c 1,24,25
 309 424 309 424 363.5 529.5 c 128,-1,26
 418 635 418 635 420 672 c 1,27,28
 496 667 496 667 496 627 c 0,0,1
EndSplineSet
EndChar

StartChar: Z
Encoding: 90 90 61
Width: 535
GlyphClass: 2
Flags: W
LayerCount: 2
Fore
SplineSet
499 648 m 1,0,1
 515 630 515 630 515 607 c 128,-1,2
 515 584 515 584 498 562 c 2,3,-1
 94 57 l 1,4,5
 130 53 130 53 175 53 c 0,6,7
 369 53 369 53 491 85 c 1,8,9
 501 59 501 59 501 39.5 c 128,-1,10
 501 20 501 20 484 12 c 0,11,12
 446 -6 446 -6 290 -6 c 128,-1,13
 134 -6 134 -6 44 6 c 1,14,15
 26 30 26 30 26 59 c 128,-1,16
 26 88 26 88 51 119 c 2,17,-1
 428 600 l 1,18,19
 381 606 381 606 306 606 c 0,20,21
 165 606 165 606 56 579 c 1,22,23
 46 603 46 603 46 621 c 0,24,25
 46 649 46 649 75 657 c 1,26,27
 117 667 117 667 251.5 667 c 128,-1,28
 386 667 386 667 499 648 c 1,0,1
EndSplineSet
EndChar

StartChar: bracketleft
Encoding: 91 91 62
Width: 380
GlyphClass: 2
Flags: W
LayerCount: 2
Fore
SplineSet
216 664 m 1,0,-1
 216 -134 l 1,1,2
 254 -132 254 -132 287.5 -132 c 128,-1,3
 321 -132 321 -132 330.5 -140.5 c 128,-1,4
 340 -149 340 -149 340 -164 c 128,-1,5
 340 -179 340 -179 336 -190 c 1,6,-1
 150 -190 l 1,7,-1
 150 720 l 1,8,-1
 336 720 l 1,9,10
 340 712 340 712 340 694 c 0,11,12
 340 662 340 662 296.5 662 c 128,-1,13
 253 662 253 662 216 664 c 1,0,-1
EndSplineSet
EndChar

StartChar: backslash
Encoding: 92 92 63
Width: 258
GlyphClass: 2
Flags: W
LayerCount: 2
Fore
SplineSet
129 113 m 1,0,1
 35 700 35 700 35 715 c 0,2,3
 35 742 35 742 71 742 c 0,4,5
 83 742 83 742 92 739 c 1,6,7
 100 653 100 653 122 507 c 1,8,9
 216 -87 216 -87 216 -94 c 0,10,11
 216 -122 216 -122 183 -122 c 0,12,13
 172 -122 172 -122 159 -119 c 1,14,15
 151 -33 151 -33 129 113 c 1,0,1
EndSplineSet
EndChar

StartChar: bracketright
Encoding: 93 93 64
Width: 350
GlyphClass: 2
Flags: W
LayerCount: 2
Fore
SplineSet
154 -134 m 1,0,-1
 154 664 l 1,1,2
 117 662 117 662 84.5 662 c 128,-1,3
 52 662 52 662 41 669.5 c 128,-1,4
 30 677 30 677 30 694 c 128,-1,5
 30 711 30 711 34 720 c 1,6,-1
 220 720 l 1,7,-1
 220 -190 l 1,8,-1
 34 -190 l 1,9,10
 30 -179 30 -179 30 -164 c 0,11,12
 30 -132 30 -132 73 -132 c 128,-1,13
 116 -132 116 -132 154 -134 c 1,0,-1
EndSplineSet
EndChar

StartChar: asciicircum
Encoding: 94 94 65
Width: 470
GlyphClass: 2
Flags: W
LayerCount: 2
Fore
SplineSet
236 582 m 1,0,1
 82 417 82 417 52 417 c 0,2,3
 41 417 41 417 25 433 c 1,4,5
 48 472 48 472 119.5 552 c 128,-1,6
 191 632 191 632 235 675 c 1,7,8
 279 632 279 632 350.5 552 c 128,-1,9
 422 472 422 472 445 433 c 1,10,11
 429 417 429 417 421 417 c 128,-1,12
 413 417 413 417 402 423.5 c 128,-1,13
 391 430 391 430 376.5 442.5 c 128,-1,14
 362 455 362 455 348 467.5 c 128,-1,15
 334 480 334 480 316 498.5 c 128,-1,16
 298 517 298 517 286.5 529 c 128,-1,17
 275 541 275 541 258 559 c 128,-1,18
 241 577 241 577 236 582 c 1,0,1
EndSplineSet
EndChar

StartChar: underscore
Encoding: 95 95 66
Width: 535
GlyphClass: 2
Flags: W
LayerCount: 2
Fore
SplineSet
499 -152 m 2,0,-1
 348 -144 l 1,1,-1
 205 -144 l 2,2,3
 91 -144 91 -144 3 -152 c 1,4,5
 0 -137 0 -137 0 -121.5 c 128,-1,6
 0 -106 0 -106 9 -93 c 128,-1,7
 18 -80 18 -80 36 -80 c 0,8,9
 39 -80 39 -80 99 -83.5 c 128,-1,10
 159 -87 159 -87 203 -87 c 2,11,-1
 345 -87 l 2,12,13
 472 -87 472 -87 532 -80 c 1,14,15
 535 -89 535 -89 535 -108.5 c 128,-1,16
 535 -128 535 -128 525 -140 c 128,-1,17
 515 -152 515 -152 499 -152 c 2,0,-1
EndSplineSet
EndChar

StartChar: grave
Encoding: 96 96 67
Width: 201
GlyphClass: 2
Flags: W
LayerCount: 2
Fore
SplineSet
-15 702 m 1,0,1
 22 661 22 661 63 629.5 c 128,-1,2
 104 598 104 598 122 583.5 c 128,-1,3
 140 569 140 569 140 554 c 128,-1,4
 140 539 140 539 124 525 c 1,5,6
 96 546 96 546 47.5 573 c 128,-1,7
 -1 600 -1 600 -25.5 618 c 128,-1,8
 -50 636 -50 636 -50 659 c 128,-1,9
 -50 682 -50 682 -15 702 c 1,0,1
EndSplineSet
EndChar

StartChar: a
Encoding: 97 97 68
Width: 464
GlyphClass: 2
Flags: W
LayerCount: 2
Fore
SplineSet
392 312 m 1,0,-1
 390 177 l 1,1,2
 390 62 390 62 409 5 c 1,3,4
 393 -3 393 -3 370.5 -3 c 128,-1,5
 348 -3 348 -3 339 7.5 c 128,-1,6
 330 18 330 18 327 41 c 1,7,8
 265 -10 265 -10 199 -10 c 0,9,10
 45 -10 45 -10 45 131 c 0,11,12
 45 182 45 182 69 206 c 128,-1,13
 93 230 93 230 135 242 c 0,14,15
 210 262 210 262 325 269 c 1,16,17
 325 354 325 354 304 386.5 c 128,-1,18
 283 419 283 419 215 419 c 0,19,20
 187 419 187 419 157 401 c 128,-1,21
 127 383 127 383 112 349 c 1,22,23
 66 358 66 358 66 389 c 0,24,25
 66 428 66 428 114 451.5 c 128,-1,26
 162 475 162 475 237 475 c 128,-1,27
 312 475 312 475 352 439.5 c 128,-1,28
 392 404 392 404 392 312 c 1,0,-1
324 218 m 1,29,30
 295 215 295 215 280.5 213 c 128,-1,31
 266 211 266 211 241.5 208 c 128,-1,32
 217 205 217 205 205 202 c 128,-1,33
 193 199 193 199 175.5 194 c 128,-1,34
 158 189 158 189 149.5 183 c 128,-1,35
 141 177 141 177 132 170 c 0,36,37
 115 156 115 156 115 131 c 0,38,39
 115 86 115 86 141 64.5 c 128,-1,40
 167 43 167 43 207 43 c 0,41,42
 275 43 275 43 322 88 c 1,43,44
 321 102 321 102 321 139 c 128,-1,45
 321 176 321 176 324 218 c 1,29,30
EndSplineSet
EndChar

StartChar: b
Encoding: 98 98 69
Width: 508
GlyphClass: 2
Flags: W
LayerCount: 2
Fore
SplineSet
139 422 m 1,0,1
 212 475 212 475 292 475 c 128,-1,2
 372 475 372 475 420.5 418.5 c 128,-1,3
 469 362 469 362 469 251 c 128,-1,4
 469 140 469 140 415 65 c 128,-1,5
 361 -10 361 -10 255 -10 c 128,-1,6
 149 -10 149 -10 69 58 c 1,7,8
 76 118 76 118 76 240 c 128,-1,9
 76 362 76 362 71 532 c 128,-1,10
 66 702 66 702 60 740 c 1,11,12
 72 743 72 743 96 743 c 0,13,14
 141 743 141 743 141 705 c 0,15,16
 141 692 141 692 140 573 c 128,-1,17
 139 454 139 454 139 422 c 1,0,1
140 366 m 1,18,-1
 141 218 l 2,19,20
 141 138 141 138 138 98 c 1,21,22
 197 46 197 46 265.5 46 c 128,-1,23
 334 46 334 46 366.5 103.5 c 128,-1,24
 399 161 399 161 399 245.5 c 128,-1,25
 399 330 399 330 363 374.5 c 128,-1,26
 327 419 327 419 273 419 c 0,27,28
 201 419 201 419 140 366 c 1,18,-1
EndSplineSet
EndChar

StartChar: c
Encoding: 99 99 70
Width: 447
GlyphClass: 2
Flags: W
LayerCount: 2
Fore
SplineSet
261 46 m 0,0,1
 291 46 291 46 322 59 c 128,-1,2
 353 72 353 72 366 98 c 1,3,4
 406 82 406 82 406 58 c 0,5,6
 406 25 406 25 360.5 7.5 c 128,-1,7
 315 -10 315 -10 258 -10 c 0,8,9
 167 -10 167 -10 106 49.5 c 128,-1,10
 45 109 45 109 45 227 c 0,11,12
 45 290 45 290 65 339.5 c 128,-1,13
 85 389 85 389 118 418 c 0,14,15
 185 475 185 475 265 475 c 0,16,17
 316 475 316 475 362 452 c 128,-1,18
 408 429 408 429 408 387 c 0,19,20
 408 351 408 351 360 344 c 1,21,22
 350 380 350 380 317.5 399.5 c 128,-1,23
 285 419 285 419 249 419 c 0,24,25
 193 419 193 419 154.5 369.5 c 128,-1,26
 116 320 116 320 116 230 c 128,-1,27
 116 140 116 140 156.5 93 c 128,-1,28
 197 46 197 46 261 46 c 0,0,1
EndSplineSet
EndChar

StartChar: d
Encoding: 100 100 71
Width: 516
GlyphClass: 2
Flags: W
LayerCount: 2
Fore
SplineSet
446 705 m 2,0,-1
 437 223 l 1,1,2
 437 56 437 56 456 5 c 1,3,4
 440 -3 440 -3 418 -3 c 0,5,6
 376 -3 376 -3 374 47 c 1,7,8
 314 -10 314 -10 238.5 -10 c 128,-1,9
 163 -10 163 -10 104 58.5 c 128,-1,10
 45 127 45 127 45 234 c 128,-1,11
 45 341 45 341 106.5 408 c 128,-1,12
 168 475 168 475 255 475 c 0,13,14
 315 475 315 475 371 441 c 1,15,16
 373 505 373 505 373 586.5 c 128,-1,17
 373 668 373 668 365 740 c 1,18,19
 381 743 381 743 401 743 c 0,20,21
 446 743 446 743 446 705 c 2,0,-1
369 389 m 1,22,23
 316 419 316 419 266 419 c 0,24,25
 196 419 196 419 155.5 371.5 c 128,-1,26
 115 324 115 324 115 240.5 c 128,-1,27
 115 157 115 157 157 100 c 128,-1,28
 199 43 199 43 258.5 43 c 128,-1,29
 318 43 318 43 371 100 c 1,30,31
 369 358 369 358 369 389 c 1,22,23
EndSplineSet
EndChar

StartChar: e
Encoding: 101 101 72
Width: 470
GlyphClass: 2
Flags: W
LayerCount: 2
Fore
SplineSet
268 475 m 0,0,1
 338 475 338 475 381.5 435.5 c 128,-1,2
 425 396 425 396 425 350 c 128,-1,3
 425 304 425 304 411 278 c 128,-1,4
 397 252 397 252 374.5 237 c 128,-1,5
 352 222 352 222 310 214 c 0,6,7
 246 202 246 202 118 202 c 1,8,9
 126 130 126 130 161.5 88 c 128,-1,10
 197 46 197 46 267 46 c 128,-1,11
 337 46 337 46 366 98 c 1,12,13
 406 82 406 82 406 54 c 128,-1,14
 406 26 406 26 360.5 8 c 128,-1,15
 315 -10 315 -10 259 -10 c 0,16,17
 165 -10 165 -10 105 49.5 c 128,-1,18
 45 109 45 109 45 228.5 c 128,-1,19
 45 348 45 348 111.5 411.5 c 128,-1,20
 178 475 178 475 268 475 c 0,0,1
264 420 m 0,21,22
 204 420 204 420 161.5 379 c 128,-1,23
 119 338 119 338 117 252 c 1,24,25
 260 252 260 252 307 273 c 0,26,27
 327 282 327 282 341.5 299 c 128,-1,28
 356 316 356 316 356 344.5 c 128,-1,29
 356 373 356 373 329.5 396.5 c 128,-1,30
 303 420 303 420 264 420 c 0,21,22
EndSplineSet
EndChar

StartChar: f
Encoding: 102 102 73
Width: 303
GlyphClass: 2
Flags: W
LayerCount: 2
Fore
SplineSet
84 49 m 2,0,-1
 86 409 l 1,1,2
 53 409 53 409 8 404 c 1,3,4
 5 414 5 414 5 431 c 0,5,6
 5 459 5 459 42 463 c 0,7,8
 64 465 64 465 86 465 c 1,9,10
 86 615 86 615 130 668 c 0,11,12
 170 715 170 715 250 715 c 0,13,14
 286 715 286 715 312 704 c 128,-1,15
 338 693 338 693 338 674 c 128,-1,16
 338 655 338 655 318 628 c 1,17,18
 284 659 284 659 234 659 c 128,-1,19
 184 659 184 659 168 624 c 128,-1,20
 152 589 152 589 152 512 c 2,21,-1
 152 465 l 1,22,23
 249 465 249 465 288 469 c 1,24,25
 292 461 292 461 292 443.5 c 128,-1,26
 292 426 292 426 281.5 419 c 128,-1,27
 271 412 271 412 243.5 411 c 128,-1,28
 216 410 216 410 152 410 c 1,29,-1
 152 202 l 2,30,31
 152 69 152 69 171 5 c 1,32,33
 153 -3 153 -3 129 -3 c 128,-1,34
 105 -3 105 -3 94.5 9 c 128,-1,35
 84 21 84 21 84 49 c 2,0,-1
EndSplineSet
EndChar

StartChar: g
Encoding: 103 103 74
Width: 518
GlyphClass: 2
Flags: W
LayerCount: 2
Fore
SplineSet
142 -37 m 1,0,1
 105 -92 105 -92 105 -131 c 0,2,3
 105 -196 105 -196 226 -196 c 0,4,5
 314 -196 314 -196 360 -168 c 128,-1,6
 406 -140 406 -140 406 -103 c 128,-1,7
 406 -66 406 -66 387 -54 c 128,-1,8
 368 -42 368 -42 328 -42 c 2,9,-1
 225 -42 l 2,10,11
 168 -42 168 -42 142 -37 c 1,0,1
326 202 m 128,-1,13
 354 230 354 230 354 286.5 c 128,-1,14
 354 343 354 343 321.5 381 c 128,-1,15
 289 419 289 419 233 419 c 0,16,17
 114 419 114 419 114 305 c 0,18,19
 114 248 114 248 145.5 211 c 128,-1,20
 177 174 177 174 237.5 174 c 128,-1,12
 298 174 298 174 326 202 c 128,-1,13
234 118 m 0,21,22
 204 118 204 118 179 124 c 1,23,24
 164 106 164 106 152.5 83 c 128,-1,25
 141 60 141 60 141 48 c 0,26,27
 141 23 141 23 207 23 c 2,28,-1
 322 23 l 2,29,30
 470 23 470 23 470 -84 c 0,31,32
 470 -159 470 -159 397.5 -205.5 c 128,-1,33
 325 -252 325 -252 227.5 -252 c 128,-1,34
 130 -252 130 -252 82.5 -218 c 128,-1,35
 35 -184 35 -184 35 -130 c 128,-1,36
 35 -76 35 -76 101 -24 c 1,37,38
 71 -2 71 -2 71 22 c 0,39,40
 71 60 71 60 140 137 c 1,41,42
 44 180 44 180 44 296 c 0,43,44
 44 372 44 372 98 423.5 c 128,-1,45
 152 475 152 475 230.5 475 c 128,-1,46
 309 475 309 475 359 436 c 1,47,48
 401 492 401 492 449 492 c 0,49,50
 469 492 469 492 483.5 483 c 128,-1,51
 498 474 498 474 498 458.5 c 128,-1,52
 498 443 498 443 490 422 c 1,53,54
 482 424 482 424 455 424 c 128,-1,55
 428 424 428 424 391 404 c 1,56,57
 424 358 424 358 424 296 c 0,58,59
 424 214 424 214 368 166 c 128,-1,60
 312 118 312 118 234 118 c 0,21,22
EndSplineSet
EndChar

StartChar: h
Encoding: 104 104 75
Width: 505
GlyphClass: 2
Flags: W
LayerCount: 2
Fore
SplineSet
357 48 m 2,0,-1
 363 317 l 1,1,2
 363 362 363 362 336 390.5 c 128,-1,3
 309 419 309 419 276.5 419 c 128,-1,4
 244 419 244 419 203 400.5 c 128,-1,5
 162 382 162 382 136 353 c 1,6,7
 132 211 132 211 132 146 c 128,-1,8
 132 81 132 81 139 1 c 1,9,10
 123 -2 123 -2 105 -2 c 0,11,12
 60 -2 60 -2 60 36 c 0,13,14
 60 44 60 44 62 124 c 0,15,16
 70 362 70 362 70 519.5 c 128,-1,17
 70 677 70 677 62 740 c 1,18,19
 78 743 78 743 98 743 c 0,20,21
 143 743 143 743 143 706.5 c 128,-1,22
 143 670 143 670 136 413 c 1,23,24
 208 475 208 475 297 475 c 0,25,26
 432 475 432 475 432 319 c 1,27,-1
 428 156 l 1,28,29
 428 64 428 64 445 5 c 1,30,31
 425 -3 425 -3 402.5 -3 c 128,-1,32
 380 -3 380 -3 368.5 8.5 c 128,-1,33
 357 20 357 20 357 48 c 2,0,-1
EndSplineSet
EndChar

StartChar: i
Encoding: 105 105 76
Width: 213
GlyphClass: 2
Flags: W
LayerCount: 2
Fore
SplineSet
71 54 m 2,0,-1
 73 231 l 1,1,2
 73 374 73 374 66 465 c 1,3,4
 82 468 82 468 100 468 c 0,5,6
 147 468 147 468 147 430 c 0,7,8
 147 425 147 425 145 390 c 0,9,10
 139 283 139 283 139 175.5 c 128,-1,11
 139 68 139 68 158 5 c 1,12,13
 140 -3 140 -3 115.5 -3 c 128,-1,14
 91 -3 91 -3 81 10 c 128,-1,15
 71 23 71 23 71 54 c 2,0,-1
140 536.5 m 128,-1,17
 124 521 124 521 103.5 521 c 128,-1,18
 83 521 83 521 68 536 c 128,-1,19
 53 551 53 551 53 574 c 128,-1,20
 53 597 53 597 69 612.5 c 128,-1,21
 85 628 85 628 105.5 628 c 128,-1,22
 126 628 126 628 141 612.5 c 128,-1,23
 156 597 156 597 156 574.5 c 128,-1,16
 156 552 156 552 140 536.5 c 128,-1,17
EndSplineSet
EndChar

StartChar: j
Encoding: 106 106 77
Width: 225
GlyphClass: 2
Flags: W
LayerCount: 2
Fore
SplineSet
83 -79 m 2,0,-1
 80 231 l 1,1,2
 80 374 80 374 73 465 c 1,3,4
 89 468 89 468 107 468 c 0,5,6
 154 468 154 468 154 430 c 0,7,8
 154 426 154 426 152 396 c 0,9,10
 146 304 146 304 146 190 c 1,11,-1
 150 -72 l 1,12,13
 150 -160 150 -160 106 -206.5 c 128,-1,14
 62 -253 62 -253 -20 -253 c 0,15,16
 -66 -253 -66 -253 -100.5 -238 c 128,-1,17
 -135 -223 -135 -223 -135 -200.5 c 128,-1,18
 -135 -178 -135 -178 -109 -159 c 1,19,20
 -68 -201 -68 -201 -6 -201 c 0,21,22
 34 -201 34 -201 58.5 -172 c 128,-1,23
 83 -143 83 -143 83 -79 c 2,0,-1
149 536.5 m 128,-1,25
 133 521 133 521 112.5 521 c 128,-1,26
 92 521 92 521 77 536 c 128,-1,27
 62 551 62 551 62 574 c 128,-1,28
 62 597 62 597 78 612.5 c 128,-1,29
 94 628 94 628 114.5 628 c 128,-1,30
 135 628 135 628 150 612.5 c 128,-1,31
 165 597 165 597 165 574.5 c 128,-1,24
 165 552 165 552 149 536.5 c 128,-1,25
EndSplineSet
EndChar

StartChar: k
Encoding: 107 107 78
Width: 477
GlyphClass: 2
Flags: W
LayerCount: 2
Fore
SplineSet
66 49 m 2,0,-1
 68 335 l 1,1,-1
 68 451 l 2,2,3
 68 687 68 687 60 740 c 1,4,5
 76 743 76 743 95 743 c 0,6,7
 141 743 141 743 141 705 c 0,8,9
 141 701 141 701 140 659 c 0,10,11
 134 505 134 505 134 408 c 1,12,13
 205 475 205 475 287 475 c 0,14,15
 352 475 352 475 386 439.5 c 128,-1,16
 420 404 420 404 420 347.5 c 128,-1,17
 420 291 420 291 382.5 246.5 c 128,-1,18
 345 202 345 202 278 195 c 1,19,20
 331 107 331 107 357.5 79.5 c 128,-1,21
 384 52 384 52 415 52 c 0,22,23
 431 52 431 52 441 56 c 1,24,25
 450 38 450 38 450 23.5 c 128,-1,26
 450 9 450 9 429 -0.5 c 128,-1,27
 408 -10 408 -10 389 -10 c 0,28,29
 350 -10 350 -10 317 26 c 256,30,31
 284 62 284 62 261 100.5 c 128,-1,32
 238 139 238 139 223 164 c 128,-1,33
 208 189 208 189 203 198 c 1,34,35
 177 201 177 201 177 219 c 0,36,37
 177 230 177 230 182 243 c 1,38,39
 214 236 214 236 233 236 c 0,40,41
 288 236 288 236 318 266.5 c 128,-1,42
 348 297 348 297 348 334 c 128,-1,43
 348 371 348 371 327.5 395 c 128,-1,44
 307 419 307 419 272 419 c 128,-1,45
 237 419 237 419 199 398.5 c 128,-1,46
 161 378 161 378 134 347 c 1,47,-1
 134 202 l 2,48,49
 134 69 134 69 153 5 c 1,50,51
 135 -3 135 -3 111 -3 c 128,-1,52
 87 -3 87 -3 76.5 9 c 128,-1,53
 66 21 66 21 66 49 c 2,0,-1
EndSplineSet
EndChar

StartChar: l
Encoding: 108 108 79
Width: 213
GlyphClass: 2
Flags: W
LayerCount: 2
Fore
SplineSet
66 49 m 2,0,-1
 68 335 l 1,1,-1
 68 451 l 2,2,3
 68 687 68 687 60 740 c 1,4,5
 76 743 76 743 95 743 c 0,6,7
 141 743 141 743 141 705 c 0,8,9
 141 701 141 701 140 652 c 0,10,11
 134 470 134 470 134 358 c 2,12,-1
 134 202 l 2,13,14
 134 69 134 69 153 5 c 1,15,16
 135 -3 135 -3 111 -3 c 128,-1,17
 87 -3 87 -3 76.5 9 c 128,-1,18
 66 21 66 21 66 49 c 2,0,-1
EndSplineSet
EndChar

StartChar: m
Encoding: 109 109 80
Width: 773
GlyphClass: 2
Flags: W
LayerCount: 2
Fore
SplineSet
625 48 m 2,0,-1
 631 307 l 1,1,2
 631 364 631 364 607.5 391.5 c 128,-1,3
 584 419 584 419 546 419 c 0,4,5
 488 419 488 419 422 366 c 1,6,7
 424 230 424 230 424 149.5 c 128,-1,8
 424 69 424 69 430 1 c 1,9,10
 414 -2 414 -2 396 -2 c 0,11,12
 351 -2 351 -2 351 36 c 0,13,14
 351 40 351 40 352 76 c 0,15,16
 356 162 356 162 356 307 c 0,17,18
 356 419 356 419 268 419 c 0,19,20
 211 419 211 419 145 364 c 1,21,22
 147 228 147 228 147 148.5 c 128,-1,23
 147 69 147 69 153 1 c 1,24,25
 137 -2 137 -2 119 -2 c 0,26,27
 74 -2 74 -2 74 36 c 0,28,29
 74 40 74 40 76.5 109.5 c 128,-1,30
 79 179 79 179 79 248 c 0,31,32
 79 412 79 412 60 460 c 1,33,34
 80 468 80 468 96 468 c 0,35,36
 142 468 142 468 142 418 c 1,37,38
 173 443 173 443 216 459 c 128,-1,39
 259 475 259 475 299 475 c 0,40,41
 381 475 381 475 410 410 c 1,42,43
 437 437 437 437 485.5 456 c 128,-1,44
 534 475 534 475 582.5 475 c 128,-1,45
 631 475 631 475 665 441.5 c 128,-1,46
 699 408 699 408 699 334 c 1,47,-1
 696 156 l 1,48,49
 696 64 696 64 713 5 c 1,50,51
 693 -3 693 -3 670.5 -3 c 128,-1,52
 648 -3 648 -3 636.5 8.5 c 128,-1,53
 625 20 625 20 625 48 c 2,0,-1
EndSplineSet
EndChar

StartChar: n
Encoding: 110 110 81
Width: 519
GlyphClass: 2
Flags: W
LayerCount: 2
Fore
SplineSet
371 48 m 2,0,-1
 377 307 l 1,1,2
 377 363 377 363 349.5 391 c 128,-1,3
 322 419 322 419 279 419 c 0,4,5
 211 419 211 419 145 364 c 1,6,7
 147 228 147 228 147 148.5 c 128,-1,8
 147 69 147 69 153 1 c 1,9,10
 137 -2 137 -2 119 -2 c 0,11,12
 74 -2 74 -2 74 36 c 0,13,14
 74 40 74 40 76.5 109.5 c 128,-1,15
 79 179 79 179 79 248 c 0,16,17
 79 412 79 412 60 460 c 1,18,19
 80 468 80 468 96 468 c 0,20,21
 142 468 142 468 142 418 c 1,22,23
 172 441 172 441 219 458 c 128,-1,24
 266 475 266 475 318 475 c 128,-1,25
 370 475 370 475 407.5 441.5 c 128,-1,26
 445 408 445 408 445 334 c 1,27,-1
 442 156 l 1,28,29
 442 64 442 64 459 5 c 1,30,31
 439 -3 439 -3 416.5 -3 c 128,-1,32
 394 -3 394 -3 382.5 8.5 c 128,-1,33
 371 20 371 20 371 48 c 2,0,-1
EndSplineSet
EndChar

StartChar: o
Encoding: 111 111 82
Width: 525
GlyphClass: 2
Flags: W
LayerCount: 2
Fore
SplineSet
420 56 m 128,-1,1
 360 -10 360 -10 262.5 -10 c 128,-1,2
 165 -10 165 -10 105 56 c 128,-1,3
 45 122 45 122 45 232 c 128,-1,4
 45 342 45 342 105 408.5 c 128,-1,5
 165 475 165 475 262.5 475 c 128,-1,6
 360 475 360 475 420 408.5 c 128,-1,7
 480 342 480 342 480 232 c 128,-1,0
 480 122 480 122 420 56 c 128,-1,1
371 93 m 128,-1,9
 410 140 410 140 410 222 c 128,-1,10
 410 304 410 304 370 361.5 c 128,-1,11
 330 419 330 419 261 419 c 128,-1,12
 192 419 192 419 153.5 371.5 c 128,-1,13
 115 324 115 324 115 242 c 128,-1,14
 115 160 115 160 154 103 c 128,-1,15
 193 46 193 46 262.5 46 c 128,-1,8
 332 46 332 46 371 93 c 128,-1,9
EndSplineSet
EndChar

StartChar: p
Encoding: 112 112 83
Width: 517
GlyphClass: 2
Flags: W
LayerCount: 2
Fore
SplineSet
76 -196 m 2,0,-1
 79 249 l 1,1,2
 79 407 79 407 60 460 c 1,3,4
 78 468 78 468 99 468 c 0,5,6
 142 468 142 468 142 418 c 1,7,8
 218 475 218 475 296.5 475 c 128,-1,9
 375 475 375 475 423.5 421.5 c 128,-1,10
 472 368 472 368 472 259 c 0,11,12
 472 103 472 103 377 29 c 0,13,14
 327 -10 327 -10 262.5 -10 c 128,-1,15
 198 -10 198 -10 145 24 c 1,16,17
 145 -146 145 -146 152 -186.5 c 128,-1,18
 159 -227 159 -227 165 -245 c 1,19,20
 147 -253 147 -253 121.5 -253 c 128,-1,21
 96 -253 96 -253 86 -240 c 128,-1,22
 76 -227 76 -227 76 -196 c 2,0,-1
147 76 m 1,23,24
 193 46 193 46 267 46 c 0,25,26
 312 46 312 46 344 76 c 1,27,28
 401 132 401 132 401 244 c 0,29,30
 401 334 401 334 366.5 376.5 c 128,-1,31
 332 419 332 419 271 419 c 128,-1,32
 210 419 210 419 145 364 c 1,33,34
 147 144 147 144 147 76 c 1,23,24
EndSplineSet
EndChar

StartChar: q
Encoding: 113 113 84
Width: 518
GlyphClass: 2
Flags: W
LayerCount: 2
Fore
SplineSet
374 39 m 1,0,1
 320 -10 320 -10 242 -10 c 128,-1,2
 164 -10 164 -10 104.5 59 c 128,-1,3
 45 128 45 128 45 236 c 128,-1,4
 45 344 45 344 107 409.5 c 128,-1,5
 169 475 169 475 262 475 c 0,6,7
 374 475 374 475 457 407 c 1,8,9
 441 236 441 236 441 20.5 c 128,-1,10
 441 -195 441 -195 458 -245 c 1,11,12
 438 -253 438 -253 414 -253 c 0,13,14
 370 -253 370 -253 370 -202.5 c 128,-1,15
 370 -152 370 -152 372 -69 c 128,-1,16
 374 14 374 14 374 39 c 1,0,1
256 419 m 0,17,18
 197 419 197 419 156 371.5 c 128,-1,19
 115 324 115 324 115 241 c 128,-1,20
 115 158 115 158 156.5 102 c 128,-1,21
 198 46 198 46 261 46 c 128,-1,22
 324 46 324 46 375 101 c 1,23,24
 376 209 376 209 385 371 c 1,25,26
 333 419 333 419 256 419 c 0,17,18
EndSplineSet
EndChar

StartChar: r
Encoding: 114 114 85
Width: 315
GlyphClass: 2
Flags: W
LayerCount: 2
Fore
SplineSet
65 54 m 2,0,-1
 67 231 l 1,1,2
 67 374 67 374 60 465 c 1,3,4
 76 468 76 468 94 468 c 0,5,6
 137 468 137 468 137 430 c 0,7,8
 137 428 137 428 136.5 416.5 c 128,-1,9
 136 405 136 405 136 395 c 1,10,11
 156 426 156 426 189.5 450.5 c 128,-1,12
 223 475 223 475 251 475 c 0,13,14
 305 475 305 475 305 436 c 0,15,16
 305 417 305 417 285 391 c 1,17,18
 263 410 263 410 236 410 c 128,-1,19
 209 410 209 410 181 388 c 128,-1,20
 153 366 153 366 134 330 c 1,21,22
 133 296 133 296 133 182 c 128,-1,23
 133 68 133 68 152 5 c 1,24,25
 134 -3 134 -3 109.5 -3 c 128,-1,26
 85 -3 85 -3 75 10 c 128,-1,27
 65 23 65 23 65 54 c 2,0,-1
EndSplineSet
EndChar

StartChar: s
Encoding: 115 115 86
Width: 409
GlyphClass: 2
Flags: W
LayerCount: 2
Fore
SplineSet
310 354 m 1,0,1
 299 383 299 383 265 401 c 128,-1,2
 231 419 231 419 195.5 419 c 128,-1,3
 160 419 160 419 135 400.5 c 128,-1,4
 110 382 110 382 110 350 c 128,-1,5
 110 318 110 318 136.5 301 c 128,-1,6
 163 284 163 284 201 275 c 128,-1,7
 239 266 239 266 277 254.5 c 128,-1,8
 315 243 315 243 341.5 213 c 128,-1,9
 368 183 368 183 368 135 c 0,10,11
 368 64 368 64 317 27 c 128,-1,12
 266 -10 266 -10 200.5 -10 c 128,-1,13
 135 -10 135 -10 87.5 13 c 128,-1,14
 40 36 40 36 40 70 c 0,15,16
 40 99 40 99 85 112 c 1,17,18
 96 80 96 80 132.5 63 c 128,-1,19
 169 46 169 46 212 46 c 128,-1,20
 255 46 255 46 281.5 65 c 128,-1,21
 308 84 308 84 308 119 c 128,-1,22
 308 154 308 154 281.5 170 c 128,-1,23
 255 186 255 186 217 194.5 c 128,-1,24
 179 203 179 203 141 214.5 c 128,-1,25
 103 226 103 226 76.5 258 c 128,-1,26
 50 290 50 290 50 345.5 c 128,-1,27
 50 401 50 401 101.5 438 c 128,-1,28
 153 475 153 475 209 475 c 128,-1,29
 265 475 265 475 310 454 c 128,-1,30
 355 433 355 433 355 399 c 128,-1,31
 355 365 355 365 310 354 c 1,0,1
EndSplineSet
EndChar

StartChar: t
Encoding: 116 116 87
Width: 352
GlyphClass: 2
Flags: W
LayerCount: 2
Fore
SplineSet
96 411 m 1,0,1
 93 411 93 411 3 404 c 1,2,3
 0 413 0 413 0 432.5 c 128,-1,4
 0 452 0 452 15 458.5 c 128,-1,5
 30 465 30 465 66 465 c 2,6,-1
 94 465 l 1,7,8
 92 532 92 532 88 577 c 1,9,10
 103 580 103 580 121 580 c 0,11,12
 169 580 169 580 169 542 c 0,13,14
 169 528 169 528 165 464 c 1,15,16
 292 464 292 464 333 469 c 1,17,18
 337 461 337 461 337 443.5 c 128,-1,19
 337 426 337 426 326.5 419 c 128,-1,20
 316 412 316 412 287.5 411 c 128,-1,21
 259 410 259 410 163 410 c 1,22,23
 161 302 161 302 161 199.5 c 128,-1,24
 161 97 161 97 180.5 70 c 128,-1,25
 200 43 200 43 243.5 43 c 128,-1,26
 287 43 287 43 317 73 c 1,27,28
 335 54 335 54 335 35 c 128,-1,29
 335 16 335 16 309 3 c 128,-1,30
 283 -10 283 -10 246 -10 c 0,31,32
 163 -10 163 -10 128.5 38 c 128,-1,33
 94 86 94 86 94 181 c 1,34,35
 96 362 96 362 96 411 c 1,0,1
EndSplineSet
EndChar

StartChar: u
Encoding: 117 117 88
Width: 518
GlyphClass: 2
Flags: W
LayerCount: 2
Fore
SplineSet
443 430 m 2,0,-1
 439 203 l 1,1,2
 439 76 439 76 458 5 c 1,3,4
 438 -3 438 -3 421 -3 c 0,5,6
 375 -3 375 -3 375 47 c 1,7,8
 303 -10 303 -10 216 -10 c 0,9,10
 74 -10 74 -10 74 131 c 1,11,-1
 77 309 l 1,12,13
 77 400 77 400 60 460 c 1,14,15
 80 468 80 468 102.5 468 c 128,-1,16
 125 468 125 468 136.5 456.5 c 128,-1,17
 148 445 148 445 148 417 c 2,18,19
 148 417 148 417 142 158 c 1,20,21
 142 104 142 104 168.5 75 c 128,-1,22
 195 46 195 46 237 46 c 0,23,24
 309 46 309 46 372 101 c 1,25,26
 371 144 371 144 371 261 c 128,-1,27
 371 378 371 378 364 465 c 1,28,29
 380 468 380 468 398 468 c 0,30,31
 443 468 443 468 443 430 c 2,0,-1
EndSplineSet
EndChar

StartChar: v
Encoding: 118 118 89
Width: 439
GlyphClass: 2
Flags: W
LayerCount: 2
Fore
SplineSet
368 475 m 0,0,1
 405 475 405 475 405 437 c 0,2,3
 405 369 405 369 355.5 233.5 c 128,-1,4
 306 98 306 98 254 36 c 0,5,6
 235 13 235 13 222 5 c 128,-1,7
 209 -3 209 -3 193.5 -3 c 128,-1,8
 178 -3 178 -3 163 0 c 1,9,10
 140 115 140 115 87 260.5 c 128,-1,11
 34 406 34 406 -3 443 c 1,12,13
 27 470 27 470 52 470 c 128,-1,14
 77 470 77 470 92 435 c 0,15,16
 113 387 113 387 154 270 c 128,-1,17
 195 153 195 153 215 72 c 1,18,19
 256 125 256 125 297.5 240 c 128,-1,20
 339 355 339 355 339 439 c 0,21,22
 339 455 339 455 336 470 c 1,23,24
 351 475 351 475 368 475 c 0,0,1
EndSplineSet
EndChar

StartChar: w
Encoding: 119 119 90
Width: 693
GlyphClass: 2
Flags: W
LayerCount: 2
Fore
SplineSet
622 475 m 0,0,1
 659 475 659 475 659 438 c 128,-1,2
 659 401 659 401 641.5 333 c 128,-1,3
 624 265 624 265 599 199 c 1,4,5
 535 41 535 41 484 5 c 0,6,7
 472 -3 472 -3 457.5 -3 c 128,-1,8
 443 -3 443 -3 428 0 c 1,9,10
 402 132 402 132 349 286 c 1,11,12
 294 112 294 112 234 36 c 0,13,14
 215 13 215 13 203.5 5 c 128,-1,15
 192 -3 192 -3 177.5 -3 c 128,-1,16
 163 -3 163 -3 148 0 c 1,17,18
 126 115 126 115 78 261 c 128,-1,19
 30 407 30 407 -3 443 c 1,20,21
 27 470 27 470 52 470 c 128,-1,22
 77 470 77 470 92 435 c 0,23,24
 110 390 110 390 146 272 c 128,-1,25
 182 154 182 154 200 72 c 1,26,27
 237 125 237 125 275 240 c 128,-1,28
 313 355 313 355 313 438 c 0,29,30
 313 455 313 455 310 470 c 1,31,32
 325 475 325 475 342 475 c 0,33,34
 379 475 379 475 379 435 c 128,-1,35
 379 395 379 395 378 388 c 1,36,37
 401 350 401 350 431 255 c 128,-1,38
 461 160 461 160 480 72 c 1,39,40
 517 125 517 125 555 240 c 128,-1,41
 593 355 593 355 593 438 c 0,42,43
 593 455 593 455 590 470 c 1,44,45
 605 475 605 475 622 475 c 0,0,1
EndSplineSet
EndChar

StartChar: x
Encoding: 120 120 91
Width: 433
GlyphClass: 2
Flags: W
LayerCount: 2
Fore
SplineSet
327 475 m 1,0,1
 383 465 383 465 383 437 c 0,2,3
 383 392 383 392 254 246 c 1,4,5
 360 65 360 65 418 29 c 1,6,7
 389 -10 389 -10 365.5 -10 c 128,-1,8
 342 -10 342 -10 322 18 c 0,9,10
 283 71 283 71 208 194 c 1,11,12
 167 147 167 147 127 86.5 c 128,-1,13
 87 26 87 26 79 -10 c 1,14,15
 25 -1 25 -1 25 28 c 0,16,17
 25 54 25 54 58 95 c 128,-1,18
 91 136 91 136 104.5 152.5 c 128,-1,19
 118 169 118 169 148.5 202.5 c 128,-1,20
 179 236 179 236 181 238 c 1,21,22
 80 404 80 404 28 437 c 1,23,24
 59 475 59 475 82 475 c 128,-1,25
 105 475 105 475 126 448 c 1,26,27
 174 377 174 377 226 292 c 1,28,29
 264 341 264 341 293.5 394 c 128,-1,30
 323 447 323 447 327 475 c 1,0,1
EndSplineSet
EndChar

StartChar: y
Encoding: 121 121 92
Width: 441
GlyphClass: 2
Flags: W
LayerCount: 2
Fore
SplineSet
376 475 m 0,0,1
 411 475 411 475 411 431.5 c 128,-1,2
 411 388 411 388 375.5 275.5 c 128,-1,3
 340 163 340 163 291 59 c 0,4,5
 203 -128 203 -128 125 -225 c 0,6,7
 105 -251 105 -251 86 -251 c 0,8,9
 58 -251 58 -251 31 -211 c 1,10,11
 61 -192 61 -192 111 -133.5 c 128,-1,12
 161 -75 161 -75 198 -16 c 1,13,14
 163 100 163 100 103 248.5 c 128,-1,15
 43 397 43 397 0 438 c 1,16,17
 35 470 35 470 57.5 470 c 128,-1,18
 80 470 80 470 96 438 c 0,19,20
 120 390 120 390 167 270.5 c 128,-1,21
 214 151 214 151 237 72 c 1,22,23
 280 165 280 165 312.5 272 c 128,-1,24
 345 379 345 379 345 441 c 0,25,26
 345 446 345 446 343 470 c 1,27,28
 358 475 358 475 376 475 c 0,0,1
EndSplineSet
EndChar

StartChar: z
Encoding: 122 122 93
Width: 454
GlyphClass: 2
Flags: W
LayerCount: 2
Fore
SplineSet
378 451 m 1,0,1
 394 435 394 435 394 405.5 c 128,-1,2
 394 376 394 376 377 359 c 2,3,-1
 82 52 l 1,4,5
 116 49 116 49 149 49 c 0,6,7
 256 49 256 49 371 79 c 1,8,9
 380 61 380 61 380 43.5 c 128,-1,10
 380 26 380 26 371.5 17.5 c 128,-1,11
 363 9 363 9 354 6 c 0,12,13
 309 -6 309 -6 207.5 -6 c 128,-1,14
 106 -6 106 -6 40 6 c 1,15,16
 25 27 25 27 25 57 c 128,-1,17
 25 87 25 87 47 109 c 2,18,-1
 338 408 l 1,19,20
 282 414 282 414 230 414 c 0,21,22
 126 414 126 414 54 390 c 1,23,24
 45 412 45 412 46 434 c 128,-1,25
 47 456 47 456 71 463.5 c 128,-1,26
 95 471 95 471 193.5 471 c 128,-1,27
 292 471 292 471 378 451 c 1,0,1
EndSplineSet
EndChar

StartChar: braceleft
Encoding: 123 123 94
Width: 426
GlyphClass: 2
Flags: W
LayerCount: 2
Fore
SplineSet
182 286 m 1,0,1
 207 277 207 277 229 244 c 128,-1,2
 251 211 251 211 251 180 c 2,3,-1
 251 -19 l 2,4,5
 251 -40 251 -40 252.5 -49 c 128,-1,6
 254 -58 254 -58 261 -68 c 0,7,8
 272 -83 272 -83 327 -83 c 0,9,10
 352 -83 352 -83 363.5 -90.5 c 128,-1,11
 375 -98 375 -98 375 -115.5 c 128,-1,12
 375 -133 375 -133 371 -141 c 1,13,14
 358 -142 358 -142 335 -142 c 0,15,16
 248 -142 248 -142 216 -115.5 c 128,-1,17
 184 -89 184 -89 184 -31 c 2,18,-1
 184 178 l 2,19,20
 184 208 184 208 155 234.5 c 128,-1,21
 126 261 126 261 70 261 c 1,22,-1
 70 311 l 1,23,24
 126 311 126 311 155.5 338 c 128,-1,25
 185 365 185 365 185 395 c 2,26,-1
 185 604 l 2,27,28
 185 662 185 662 216.5 688.5 c 128,-1,29
 248 715 248 715 335 715 c 0,30,31
 358 715 358 715 371 714 c 1,32,33
 375 706 375 706 375 688.5 c 128,-1,34
 375 671 375 671 363.5 663.5 c 128,-1,35
 352 656 352 656 313.5 656 c 128,-1,36
 275 656 275 656 262.5 643 c 128,-1,37
 250 630 250 630 250 592 c 2,38,-1
 250 393 l 2,39,40
 250 362 250 362 228.5 328.5 c 128,-1,41
 207 295 207 295 182 286 c 1,0,1
EndSplineSet
EndChar

StartChar: bar
Encoding: 124 124 95
Width: 535
GlyphClass: 2
Flags: W
LayerCount: 2
Fore
SplineSet
237 136 m 2,0,-1
 237 444 l 2,1,2
 237 680 237 680 229 733 c 1,3,4
 245 736 245 736 259 736 c 0,5,6
 305 736 305 736 305 698 c 0,7,8
 305 694 305 694 304 644 c 0,9,10
 298 463 298 463 298 351 c 2,11,-1
 298 43 l 2,12,13
 298 -193 298 -193 306 -246 c 1,14,15
 290 -249 290 -249 276 -249 c 0,16,17
 230 -249 230 -249 230 -211 c 0,18,19
 230 -207 230 -207 232 -158 c 0,20,21
 237 -34 237 -34 237 136 c 2,0,-1
EndSplineSet
EndChar

StartChar: braceright
Encoding: 125 125 96
Width: 404
GlyphClass: 2
Flags: W
LayerCount: 2
Fore
SplineSet
223 286 m 1,0,1
 198 295 198 295 176.5 328.5 c 128,-1,2
 155 362 155 362 155 393 c 2,3,-1
 155 592 l 2,4,5
 155 612 155 612 153.5 621.5 c 128,-1,6
 152 631 152 631 144 640 c 1,7,8
 132 656 132 656 92.5 656 c 128,-1,9
 53 656 53 656 41.5 663.5 c 128,-1,10
 30 671 30 671 30 688.5 c 128,-1,11
 30 706 30 706 34 714 c 1,12,13
 47 715 47 715 70 715 c 0,14,15
 157 715 157 715 188.5 688.5 c 128,-1,16
 220 662 220 662 220 604 c 2,17,-1
 220 395 l 2,18,19
 220 365 220 365 249.5 338 c 128,-1,20
 279 311 279 311 335 311 c 1,21,-1
 335 261 l 1,22,23
 279 261 279 261 250 234.5 c 128,-1,24
 221 208 221 208 221 178 c 2,25,-1
 221 -31 l 2,26,27
 221 -89 221 -89 189 -115.5 c 128,-1,28
 157 -142 157 -142 70 -142 c 0,29,30
 47 -142 47 -142 34 -141 c 1,31,32
 30 -133 30 -133 30 -115.5 c 128,-1,33
 30 -98 30 -98 41.5 -90.5 c 128,-1,34
 53 -83 53 -83 79.5 -83 c 128,-1,35
 106 -83 106 -83 121.5 -80 c 128,-1,36
 137 -77 137 -77 144 -67.5 c 128,-1,37
 151 -58 151 -58 152.5 -49 c 128,-1,38
 154 -40 154 -40 154 -19 c 2,39,-1
 154 180 l 2,40,41
 154 211 154 211 176 244 c 128,-1,42
 198 277 198 277 223 286 c 1,0,1
EndSplineSet
EndChar

StartChar: asciitilde
Encoding: 126 126 97
Width: 546
GlyphClass: 2
Flags: W
LayerCount: 2
Fore
SplineSet
40 267 m 0,0,1
 40 329 40 329 138 329 c 0,2,3
 189 329 189 329 268.5 309 c 128,-1,4
 348 289 348 289 385 289 c 0,5,6
 451 289 451 289 487 324 c 1,7,8
 506 299 506 299 506 271 c 128,-1,9
 506 243 506 243 470 228 c 128,-1,10
 434 213 434 213 394 213 c 128,-1,11
 354 213 354 213 278 233 c 128,-1,12
 202 253 202 253 161 253 c 0,13,14
 95 253 95 253 59 218 c 1,15,16
 40 243 40 243 40 267 c 0,0,1
EndSplineSet
EndChar

StartChar: exclamdown
Encoding: 161 161 98
Width: 311
GlyphClass: 2
Flags: W
LayerCount: 2
Fore
SplineSet
150 475 m 128,-1,1
 175 475 175 475 193 457 c 128,-1,2
 211 439 211 439 211 412 c 128,-1,3
 211 385 211 385 193 366.5 c 128,-1,4
 175 348 175 348 150 348 c 128,-1,5
 125 348 125 348 107.5 366.5 c 128,-1,6
 90 385 90 385 90 412 c 128,-1,7
 90 439 90 439 107.5 457 c 128,-1,0
 125 475 125 475 150 475 c 128,-1,1
192 114 m 0,8,9
 192 -138 192 -138 210 -212 c 1,10,11
 175 -219 175 -219 158 -219 c 0,12,13
 111 -219 111 -219 111 -170 c 0,14,15
 111 -142 111 -142 120 -58 c 128,-1,16
 129 26 129 26 129 98 c 2,17,-1
 129 142 l 2,18,19
 129 222 129 222 113 266 c 1,20,21
 133 276 133 276 150 276 c 0,22,23
 190 276 190 276 191 228 c 0,24,25
 192 215 192 215 192 114 c 0,8,9
EndSplineSet
EndChar

StartChar: cent
Encoding: 162 162 99
Width: 535
GlyphClass: 2
Flags: W
LayerCount: 2
Fore
SplineSet
172 458 m 128,-1,1
 136 412 136 412 136 335.5 c 128,-1,2
 136 259 136 259 172 213 c 128,-1,3
 208 167 208 167 265 152 c 1,4,-1
 265 518 l 1,5,0
 208 504 208 504 172 458 c 128,-1,1
427 456 m 1,6,7
 377 525 377 525 312 525 c 2,8,-1
 304 525 l 1,9,-1
 304 146 l 1,10,-1
 314 146 l 2,11,12
 378 146 378 146 427 215 c 1,13,14
 470 205 470 205 470 169 c 128,-1,15
 470 133 470 133 416 111.5 c 128,-1,16
 362 90 362 90 312 90 c 2,17,-1
 304 90 l 1,18,19
 305 54 305 54 309 6 c 1,20,-1
 294 4 l 1,21,22
 265 4 265 4 265 31 c 2,23,-1
 265 94 l 1,24,25
 177 107 177 107 118.5 167 c 128,-1,26
 60 227 60 227 60 335 c 128,-1,27
 60 443 60 443 119 503.5 c 128,-1,28
 178 564 178 564 265 577 c 1,29,30
 264 601 264 601 260 669 c 1,31,32
 270 672 270 672 277 672 c 0,33,34
 304 672 304 672 304 645 c 2,35,-1
 304 581 l 1,36,-1
 312 581 l 2,37,38
 362 581 362 581 416 559.5 c 128,-1,39
 470 538 470 538 470 502 c 128,-1,40
 470 466 470 466 427 456 c 1,6,7
EndSplineSet
EndChar

StartChar: sterling
Encoding: 163 163 100
Width: 535
GlyphClass: 2
Flags: W
LayerCount: 2
Fore
SplineSet
410 391 m 1,0,1
 414 383 414 383 414 364 c 128,-1,2
 414 345 414 345 401.5 338.5 c 128,-1,3
 389 332 389 332 354 332 c 128,-1,4
 319 332 319 332 294 333 c 1,5,6
 299 310 299 310 299 290 c 0,7,8
 299 180 299 180 146 55 c 1,9,10
 169 52 169 52 233 52 c 0,11,12
 367 52 367 52 453 84 c 1,13,14
 468 62 468 62 468 41.5 c 128,-1,15
 468 21 468 21 441 10 c 1,16,17
 405 -3 405 -3 275 -3 c 128,-1,18
 145 -3 145 -3 79 9 c 1,19,20
 70 21 70 21 70 50 c 1,21,22
 141 93 141 93 180.5 154 c 128,-1,23
 220 215 220 215 220 267 c 0,24,25
 220 298 220 298 208 336 c 1,26,27
 145 336 145 336 100 332 c 1,28,29
 97 341 97 341 97 348 c 0,30,31
 97 372 97 372 130.5 374.5 c 128,-1,32
 164 377 164 377 192 377 c 1,33,34
 188 386 188 386 177 410 c 128,-1,35
 166 434 166 434 162 446 c 0,36,37
 147 485 147 485 147 512 c 0,38,39
 147 571 147 571 190.5 622 c 128,-1,40
 234 673 234 673 301 673 c 0,41,42
 330 673 330 673 354.5 658.5 c 128,-1,43
 379 644 379 644 379 616.5 c 128,-1,44
 379 589 379 589 345 573 c 1,45,46
 324 608 324 608 278 608 c 0,47,48
 251 608 251 608 232 591 c 128,-1,49
 213 574 213 574 213 547 c 128,-1,50
 213 520 213 520 223.5 495 c 128,-1,51
 234 470 234 470 252 436 c 128,-1,52
 270 402 270 402 279 380 c 1,53,54
 366 385 366 385 410 391 c 1,0,1
EndSplineSet
EndChar

StartChar: yen
Encoding: 165 165 101
Width: 535
GlyphClass: 2
Flags: W
LayerCount: 2
Fore
SplineSet
224 196 m 1,0,-1
 215 196 l 2,1,2
 110 196 110 196 54 191 c 1,3,4
 51 202 51 202 51 208 c 0,5,6
 51 235 51 235 78 235 c 2,7,-1
 225 235 l 1,8,-1
 225 306 l 1,9,-1
 215 306 l 2,10,11
 110 306 110 306 54 301 c 1,12,13
 51 312 51 312 51 318 c 0,14,15
 51 345 51 345 78 345 c 2,16,-1
 205 345 l 1,17,18
 86 572 86 572 7 628 c 1,19,20
 32 668 32 668 65 668 c 0,21,22
 85 668 85 668 109 632 c 0,23,24
 196 505 196 505 272 363 c 1,25,26
 319 426 319 426 372.5 530 c 128,-1,27
 426 634 426 634 428 671 c 1,28,29
 432 672 432 672 443 672 c 0,30,31
 489 672 489 672 489 633 c 0,32,33
 489 610 489 610 433.5 513 c 128,-1,34
 378 416 378 416 324 345 c 1,35,36
 416 345 416 345 469 350 c 1,37,-1
 471 335 l 1,38,39
 471 306 471 306 444 306 c 2,40,-1
 292 306 l 1,41,-1
 292 235 l 1,42,-1
 307 235 l 2,43,44
 412 235 412 235 469 240 c 1,45,-1
 471 225 l 1,46,47
 471 196 471 196 444 196 c 2,48,-1
 292 196 l 1,49,50
 292 64 292 64 310 5 c 1,51,52
 292 -3 292 -3 268 -3 c 0,53,54
 223 -3 223 -3 223 46 c 0,55,56
 224 119 224 119 224 196 c 1,0,-1
EndSplineSet
EndChar

StartChar: brokenbar
Encoding: 166 166 102
Width: 535
GlyphClass: 2
Flags: W
LayerCount: 2
Fore
SplineSet
230 332 m 1,0,-1
 237 534 l 1,1,-1
 237 564 l 2,2,3
 237 681 237 681 229 734 c 1,4,5
 245 737 245 737 259 737 c 0,6,7
 305 737 305 737 305 699 c 1,8,-1
 298 528 l 1,9,-1
 298 489 l 2,10,11
 298 369 298 369 306 297 c 1,12,13
 290 294 290 294 276 294 c 0,14,15
 230 294 230 294 230 332 c 1,0,-1
230 -211 m 1,16,-1
 237 -9 l 1,17,-1
 237 22 l 2,18,19
 237 139 237 139 229 192 c 1,20,21
 245 195 245 195 259 195 c 0,22,23
 305 195 305 195 305 157 c 1,24,-1
 298 -14 l 1,25,-1
 298 -54 l 2,26,27
 298 -174 298 -174 306 -246 c 1,28,29
 290 -249 290 -249 276 -249 c 0,30,31
 230 -249 230 -249 230 -211 c 1,16,-1
EndSplineSet
EndChar

StartChar: section
Encoding: 167 167 103
Width: 445
GlyphClass: 2
Flags: W
LayerCount: 2
Fore
SplineSet
129 406 m 1,0,1
 115 384 115 384 115 347.5 c 128,-1,2
 115 311 115 311 148 286 c 128,-1,3
 181 261 181 261 237.5 236 c 128,-1,4
 294 211 294 211 321 188 c 1,5,6
 335 211 335 211 335 243.5 c 128,-1,7
 335 276 335 276 312.5 299.5 c 128,-1,8
 290 323 290 323 261 334 c 0,9,10
 166 372 166 372 129 406 c 1,0,1
81.5 251 m 128,-1,12
 55 284 55 284 55 340.5 c 128,-1,13
 55 397 55 397 102 439 c 1,14,15
 77 488 77 488 77 532 c 0,16,17
 77 594 77 594 123 633 c 128,-1,18
 169 672 169 672 244 672 c 0,19,20
 291 672 291 672 336 651 c 128,-1,21
 381 630 381 630 381 596 c 128,-1,22
 381 562 381 562 336 551 c 1,23,24
 325 580 325 580 291 598 c 128,-1,25
 257 616 257 616 220.5 616 c 128,-1,26
 184 616 184 616 160 598.5 c 128,-1,27
 136 581 136 581 136 546 c 128,-1,28
 136 511 136 511 155 485.5 c 128,-1,29
 174 460 174 460 203 446 c 128,-1,30
 232 432 232 432 265.5 415 c 128,-1,31
 299 398 299 398 328 381.5 c 128,-1,32
 357 365 357 365 376 334 c 128,-1,33
 395 303 395 303 395 261 c 0,34,35
 395 199 395 199 349 155 c 1,36,37
 375 112 375 112 375 68 c 0,38,39
 375 7 375 7 329 -35.5 c 128,-1,40
 283 -78 283 -78 211.5 -78 c 128,-1,41
 140 -78 140 -78 92.5 -55 c 128,-1,42
 45 -32 45 -32 45 2 c 0,43,44
 45 31 45 31 90 44 c 1,45,46
 113 -21 113 -21 223 -21 c 0,47,48
 263 -21 263 -21 288 -2.5 c 128,-1,49
 313 16 313 16 313 56 c 128,-1,50
 313 96 313 96 286.5 123 c 128,-1,51
 260 150 260 150 222 166.5 c 128,-1,52
 184 183 184 183 146 200.5 c 128,-1,11
 108 218 108 218 81.5 251 c 128,-1,12
EndSplineSet
EndChar

StartChar: dieresis
Encoding: 168 168 104
Width: 257
GlyphClass: 2
Flags: W
LayerCount: 2
Fore
SplineSet
252 536.5 m 128,-1,1
 236 521 236 521 215.5 521 c 128,-1,2
 195 521 195 521 180 536 c 128,-1,3
 165 551 165 551 165 574 c 128,-1,4
 165 597 165 597 181 612.5 c 128,-1,5
 197 628 197 628 217.5 628 c 128,-1,6
 238 628 238 628 253 612.5 c 128,-1,7
 268 597 268 597 268 574.5 c 128,-1,0
 268 552 268 552 252 536.5 c 128,-1,1
74 536.5 m 128,-1,9
 58 521 58 521 37.5 521 c 128,-1,10
 17 521 17 521 2 536 c 128,-1,11
 -13 551 -13 551 -13 574 c 128,-1,12
 -13 597 -13 597 3 612.5 c 128,-1,13
 19 628 19 628 39.5 628 c 128,-1,14
 60 628 60 628 75 612.5 c 128,-1,15
 90 597 90 597 90 574.5 c 128,-1,8
 90 552 90 552 74 536.5 c 128,-1,9
EndSplineSet
EndChar

StartChar: copyright
Encoding: 169 169 105
Width: 888
GlyphClass: 2
Flags: W
LayerCount: 2
Fore
SplineSet
588 195 m 1,0,1
 617 179 617 179 617 156 c 128,-1,2
 617 133 617 133 580 115.5 c 128,-1,3
 543 98 543 98 499 98 c 128,-1,4
 455 98 455 98 419.5 109.5 c 128,-1,5
 384 121 384 121 352.5 145.5 c 128,-1,6
 321 170 321 170 302 214.5 c 128,-1,7
 283 259 283 259 283 318 c 0,8,9
 283 431 283 431 345.5 489.5 c 128,-1,10
 408 548 408 548 487 548 c 0,11,12
 552 548 552 548 594 512 c 1,13,14
 618 493 618 493 618 467 c 0,15,16
 618 433 618 433 575 427 c 1,17,18
 566 458 566 458 538.5 473.5 c 128,-1,19
 511 489 511 489 480 489 c 0,20,21
 432 489 432 489 399.5 445 c 128,-1,22
 367 401 367 401 367 320.5 c 128,-1,23
 367 240 367 240 407 198.5 c 128,-1,24
 447 157 447 157 504 157 c 128,-1,25
 561 157 561 157 588 195 c 1,0,1
670.5 105 m 128,-1,27
 750 187 750 187 750 319.5 c 128,-1,28
 750 452 750 452 670.5 534.5 c 128,-1,29
 591 617 591 617 476 617 c 128,-1,30
 361 617 361 617 281.5 535 c 128,-1,31
 202 453 202 453 202 320 c 128,-1,32
 202 187 202 187 281.5 105 c 128,-1,33
 361 23 361 23 476 23 c 128,-1,26
 591 23 591 23 670.5 105 c 128,-1,27
722 573 m 128,-1,35
 822 472 822 472 822 321 c 128,-1,36
 822 170 822 170 721.5 68 c 128,-1,37
 621 -34 621 -34 475.5 -34 c 128,-1,38
 330 -34 330 -34 230 67.5 c 128,-1,39
 130 169 130 169 130 320.5 c 128,-1,40
 130 472 130 472 230 573 c 128,-1,41
 330 674 330 674 476 674 c 128,-1,34
 622 674 622 674 722 573 c 128,-1,35
EndSplineSet
EndChar

StartChar: ordfeminine
Encoding: 170 170 106
Width: 302
GlyphClass: 2
Flags: W
LayerCount: 2
Fore
SplineSet
236 256 m 1,0,-1
 148 264 l 1,1,2
 83 264 83 264 33 256 c 1,3,4
 30 268 30 268 30 281 c 128,-1,5
 30 294 30 294 39 304.5 c 128,-1,6
 48 315 48 315 66 315 c 0,7,8
 68 315 68 315 102 311.5 c 128,-1,9
 136 308 136 308 185.5 308 c 128,-1,10
 235 308 235 308 269 315 c 1,11,12
 272 304 272 304 272 290.5 c 128,-1,13
 272 277 272 277 262.5 266.5 c 128,-1,14
 253 256 253 256 236 256 c 1,0,-1
250 553 m 2,15,-1
 249 479 l 2,16,17
 249 414 249 414 259 384 c 1,18,19
 247 380 247 380 232 380 c 0,20,21
 204 380 204 380 201 404 c 1,22,23
 167 376 167 376 130 376 c 0,24,25
 43 376 43 376 43 455 c 0,26,27
 43 505 43 505 94 518 c 1,28,29
 137 530 137 530 200 532 c 1,30,31
 200 574 200 574 189 589.5 c 128,-1,32
 178 605 178 605 152 605 c 0,33,34
 98 605 98 605 82 569 c 1,35,36
 52 576 52 576 52 593 c 0,37,38
 52 616 52 616 82 629.5 c 128,-1,39
 112 643 112 643 157 643 c 128,-1,40
 202 643 202 643 226 623.5 c 128,-1,41
 250 604 250 604 250 553 c 2,15,-1
198 500 m 1,42,43
 117 491 117 491 104 476 c 0,44,45
 98 469 98 469 98 457 c 0,46,47
 98 413 98 413 142 413 c 0,48,49
 178 413 178 413 196 434 c 1,50,-1
 196 459 l 2,51,52
 196 486 196 486 198 500 c 1,42,43
EndSplineSet
EndChar

StartChar: guillemotleft
Encoding: 171 171 107
Width: 474
GlyphClass: 2
Flags: W
LayerCount: 2
Fore
SplineSet
308 235 m 1,0,1
 343 192 343 192 378.5 139 c 128,-1,2
 414 86 414 86 414 72.5 c 128,-1,3
 414 59 414 59 394 44 c 1,4,5
 328 99 328 99 229 235 c 1,6,7
 328 371 328 371 394 426 c 1,8,9
 414 411 414 411 414 397.5 c 128,-1,10
 414 384 414 384 378.5 331 c 128,-1,11
 343 278 343 278 308 235 c 1,0,1
119 235 m 1,12,13
 154 192 154 192 189.5 139 c 128,-1,14
 225 86 225 86 225 72.5 c 128,-1,15
 225 59 225 59 205 44 c 1,16,17
 139 99 139 99 40 235 c 1,18,19
 139 371 139 371 205 426 c 1,20,21
 225 411 225 411 225 397.5 c 128,-1,22
 225 384 225 384 189.5 331 c 128,-1,23
 154 278 154 278 119 235 c 1,12,13
EndSplineSet
EndChar

StartChar: logicalnot
Encoding: 172 172 108
Width: 535
GlyphClass: 2
Flags: W
LayerCount: 2
Fore
SplineSet
447 324 m 1,0,-1
 449 102 l 2,1,2
 449 74 449 74 440 62.5 c 128,-1,3
 431 51 431 51 409 51 c 128,-1,4
 387 51 387 51 371 59 c 1,5,6
 388 115 388 115 388 236 c 2,7,-1
 388 272 l 1,8,-1
 157 272 l 2,9,10
 101 272 101 272 57 257 c 1,11,12
 50 274 50 274 50 287 c 0,13,14
 50 324 50 324 92 324 c 2,15,-1
 447 324 l 1,0,-1
EndSplineSet
EndChar

StartChar: registered
Encoding: 174 174 109
Width: 607
GlyphClass: 2
Flags: W
LayerCount: 2
Fore
SplineSet
498 440 m 128,-1,1
 498 522 498 522 449 572.5 c 128,-1,2
 400 623 400 623 328.5 623 c 128,-1,3
 257 623 257 623 208 572.5 c 128,-1,4
 159 522 159 522 159 440 c 128,-1,5
 159 358 159 358 208 307.5 c 128,-1,6
 257 257 257 257 328.5 257 c 128,-1,7
 400 257 400 257 449 307.5 c 128,-1,0
 498 358 498 358 498 440 c 128,-1,1
557 440 m 128,-1,9
 557 341 557 341 490.5 274 c 128,-1,10
 424 207 424 207 328 207 c 128,-1,11
 232 207 232 207 166 274 c 128,-1,12
 100 341 100 341 100 440.5 c 128,-1,13
 100 540 100 540 166 606.5 c 128,-1,14
 232 673 232 673 328 673 c 128,-1,15
 424 673 424 673 490.5 606 c 128,-1,8
 557 539 557 539 557 440 c 128,-1,9
240 348 m 2,16,-1
 242 408 l 1,17,-1
 242 477 l 2,18,19
 242 529 242 529 238 558 c 1,20,21
 300 563 300 563 319 563 c 0,22,23
 427 563 427 563 427 491 c 0,24,25
 427 437 427 437 363 424 c 1,26,27
 383 390 383 390 410 360 c 0,28,29
 418 352 418 352 432 352 c 1,30,31
 434 348 434 348 434 341 c 0,32,33
 434 323 434 323 408.5 323 c 128,-1,34
 383 323 383 323 366 348 c 0,35,36
 363 353 363 353 342.5 380.5 c 128,-1,37
 322 408 322 408 315 420 c 1,38,39
 303 420 303 420 293 423 c 1,40,-1
 293 397 l 2,41,42
 293 353 293 353 301 330 c 1,43,44
 292 325 292 325 271 325 c 0,45,46
 240 325 240 325 240 348 c 2,16,-1
293 449 m 1,47,48
 313 445 313 445 328.5 445 c 128,-1,49
 344 445 344 445 360.5 456 c 128,-1,50
 377 467 377 467 377 491 c 0,51,52
 377 531 377 531 315 531 c 0,53,54
 308 531 308 531 292 529 c 1,55,56
 293 519 293 519 293 449 c 1,47,48
EndSplineSet
EndChar

StartChar: macron
Encoding: 175 175 110
Width: 272
GlyphClass: 2
Flags: W
LayerCount: 2
Fore
SplineSet
30 615 m 1,0,-1
 132 609 l 1,1,-1
 154 609 l 2,2,3
 220 609 220 609 270 615 c 1,4,5
 272 602 272 602 272 588 c 0,6,7
 272 551 272 551 242 551 c 0,8,9
 239 551 239 551 222 552 c 0,10,11
 169 557 169 557 128 557 c 2,12,-1
 106 557 l 2,13,14
 46 557 46 557 2 551 c 1,15,16
 0 561 0 561 0 578 c 0,17,18
 0 615 0 615 30 615 c 1,0,-1
EndSplineSet
EndChar

StartChar: degree
Encoding: 176 176 111
Width: 406
GlyphClass: 2
Flags: W
LayerCount: 2
Fore
SplineSet
110 547 m 128,-1,1
 110 501 110 501 133 472 c 128,-1,2
 156 443 156 443 199 443 c 128,-1,3
 242 443 242 443 266 473.5 c 128,-1,4
 290 504 290 504 290 550 c 128,-1,5
 290 596 290 596 267.5 625.5 c 128,-1,6
 245 655 245 655 202 655 c 128,-1,7
 159 655 159 655 134.5 624 c 128,-1,0
 110 593 110 593 110 547 c 128,-1,1
90.5 438 m 128,-1,9
 48 481 48 481 48 547.5 c 128,-1,10
 48 614 48 614 91.5 658.5 c 128,-1,11
 135 703 135 703 202 703 c 128,-1,12
 269 703 269 703 311 659.5 c 128,-1,13
 353 616 353 616 353 549.5 c 128,-1,14
 353 483 353 483 310 439 c 128,-1,15
 267 395 267 395 200 395 c 128,-1,8
 133 395 133 395 90.5 438 c 128,-1,9
EndSplineSet
EndChar

StartChar: plusminus
Encoding: 177 177 112
Width: 535
GlyphClass: 2
Flags: W
LayerCount: 2
Fore
SplineSet
420 6 m 2,0,-1
 264 14 l 1,1,2
 150 14 150 14 62 6 c 1,3,4
 59 21 59 21 59 36.5 c 128,-1,5
 59 52 59 52 68 65 c 128,-1,6
 77 78 77 78 95 78 c 0,7,8
 98 78 98 78 158 74.5 c 128,-1,9
 218 71 218 71 305 71 c 128,-1,10
 392 71 392 71 453 78 c 1,11,12
 456 69 456 69 456 49.5 c 128,-1,13
 456 30 456 30 446 18 c 128,-1,14
 436 6 436 6 420 6 c 2,0,-1
303 445 m 2,15,-1
 296 320 l 1,16,17
 404 320 404 320 473 328 c 1,18,19
 476 319 476 319 476 299.5 c 128,-1,20
 476 280 476 280 466 268 c 128,-1,21
 456 256 456 256 440 256 c 2,22,-1
 295 263 l 1,23,24
 295 204 295 204 303 116 c 1,25,26
 288 113 288 113 272 113 c 128,-1,27
 256 113 256 113 243.5 122.5 c 128,-1,28
 231 132 231 132 231 143.5 c 128,-1,29
 231 155 231 155 234 187 c 128,-1,30
 237 219 237 219 238 264 c 1,31,32
 151 263 151 263 62 256 c 1,33,34
 59 271 59 271 59 286.5 c 128,-1,35
 59 302 59 302 68 315 c 128,-1,36
 77 328 77 328 95 328 c 2,37,-1
 239 321 l 1,38,39
 239 409 239 409 231 478 c 1,40,41
 240 481 240 481 259.5 481 c 128,-1,42
 279 481 279 481 291 471 c 128,-1,43
 303 461 303 461 303 445 c 2,15,-1
EndSplineSet
EndChar

StartChar: twosuperior
Encoding: 178 178 113
Width: 450
GlyphClass: 2
Flags: W
LayerCount: 2
Fore
SplineSet
105 549 m 1,0,1
 73 552 73 552 73 577 c 0,2,3
 73 608 73 608 118.5 640.5 c 128,-1,4
 164 673 164 673 222 673 c 128,-1,5
 280 673 280 673 317 639 c 128,-1,6
 354 605 354 605 354 546.5 c 128,-1,7
 354 488 354 488 297 415 c 128,-1,8
 240 342 240 342 124 275 c 1,9,10
 153 274 153 274 209 274 c 0,11,12
 318 274 318 274 372 298 c 1,13,14
 385 278 385 278 385 259.5 c 128,-1,15
 385 241 385 241 362 232 c 0,16,17
 330 220 330 220 241 220 c 128,-1,18
 152 220 152 220 106 221 c 128,-1,19
 60 222 60 222 60 262 c 0,20,21
 60 276 60 276 61 279 c 1,22,23
 173 345 173 345 231 415.5 c 128,-1,24
 289 486 289 486 289 543 c 0,25,26
 289 578 289 578 266 600 c 128,-1,27
 243 622 243 622 211.5 622 c 128,-1,28
 180 622 180 622 151 601 c 128,-1,29
 122 580 122 580 105 549 c 1,0,1
EndSplineSet
EndChar

StartChar: threesuperior
Encoding: 179 179 114
Width: 424
GlyphClass: 2
Flags: W
LayerCount: 2
Fore
SplineSet
166 472 m 0,0,1
 224 477 224 477 252.5 495 c 128,-1,2
 281 513 281 513 281 550 c 128,-1,3
 281 587 281 587 264 604.5 c 128,-1,4
 247 622 247 622 199 622 c 128,-1,5
 151 622 151 622 107 569 c 1,6,7
 75 575 75 575 75 601 c 0,8,9
 75 620 75 620 96 636 c 0,10,11
 145 673 145 673 211.5 673 c 128,-1,12
 278 673 278 673 312 644 c 128,-1,13
 346 615 346 615 346 566 c 0,14,15
 346 486 346 486 260 458 c 1,16,17
 308 443 308 443 331 412.5 c 128,-1,18
 354 382 354 382 354 344 c 0,19,20
 354 290 354 290 310 249 c 128,-1,21
 266 208 266 208 184 208 c 0,22,23
 135 208 135 208 97.5 225 c 128,-1,24
 60 242 60 242 60 266.5 c 128,-1,25
 60 291 60 291 88 300 c 1,26,27
 127 259 127 259 190 259 c 0,28,29
 234 259 234 259 261.5 281.5 c 128,-1,30
 289 304 289 304 289 344 c 0,31,32
 289 434 289 434 171 434 c 0,33,34
 155 434 155 434 151 440.5 c 128,-1,35
 147 447 147 447 147 456.5 c 128,-1,36
 147 466 147 466 148 471 c 1,37,38
 159 471 159 471 166 472 c 0,0,1
EndSplineSet
EndChar

StartChar: acute
Encoding: 180 180 115
Width: 201
GlyphClass: 2
Flags: W
LayerCount: 2
Fore
SplineSet
216 702 m 1,0,1
 251 682 251 682 251 659 c 128,-1,2
 251 636 251 636 227.5 619.5 c 128,-1,3
 204 603 204 603 146.5 569.5 c 128,-1,4
 89 536 89 536 76 524 c 1,5,6
 60 538 60 538 60 554 c 128,-1,7
 60 570 60 570 76 582.5 c 128,-1,8
 92 595 92 595 133.5 626 c 128,-1,9
 175 657 175 657 216 702 c 1,0,1
EndSplineSet
EndChar

StartChar: mu
Encoding: 181 181 116
Width: 513
GlyphClass: 2
Flags: W
LayerCount: 2
Fore
SplineSet
438 430 m 2,0,-1
 434 203 l 1,1,2
 434 76 434 76 453 5 c 1,3,4
 433 -3 433 -3 416 -3 c 0,5,6
 370 -3 370 -3 370 47 c 1,7,8
 340 22 340 22 298 6 c 128,-1,9
 256 -10 256 -10 208.5 -10 c 128,-1,10
 161 -10 161 -10 127 20 c 1,11,12
 119 -14 119 -14 119 -51 c 0,13,14
 119 -141 119 -141 156 -245 c 1,15,16
 138 -253 138 -253 112.5 -253 c 128,-1,17
 87 -253 87 -253 77 -240 c 128,-1,18
 67 -227 67 -227 67 -196 c 0,19,20
 67 -58 67 -58 69 132 c 1,21,-1
 72 309 l 1,22,23
 72 400 72 400 55 460 c 1,24,25
 75 468 75 468 97.5 468 c 128,-1,26
 120 468 120 468 131.5 456.5 c 128,-1,27
 143 445 143 445 143 417 c 2,28,-1
 137 158 l 1,29,30
 137 104 137 104 163.5 75 c 128,-1,31
 190 46 190 46 232 46 c 0,32,33
 304 46 304 46 367 101 c 1,34,35
 366 144 366 144 366 261 c 128,-1,36
 366 378 366 378 359 465 c 1,37,38
 375 468 375 468 393 468 c 0,39,40
 438 468 438 468 438 430 c 2,0,-1
EndSplineSet
EndChar

StartChar: paragraph
Encoding: 182 182 117
Width: 483
GlyphClass: 2
Flags: W
LayerCount: 2
Fore
SplineSet
225 575 m 1,0,-1
 371 571 l 1,1,2
 427 571 427 571 458 572 c 1,3,4
 463 557 463 557 463 548 c 0,5,6
 463 514 463 514 405 514 c 2,7,-1
 383 514 l 1,8,9
 370 362 370 362 370 166 c 1,10,-1
 374 -75 l 2,11,12
 374 -99 374 -99 364 -112.5 c 128,-1,13
 354 -126 354 -126 330 -126 c 128,-1,14
 306 -126 306 -126 286 -118 c 1,15,16
 303 -70 303 -70 303 152 c 128,-1,17
 303 374 303 374 313 514 c 1,18,19
 267 514 267 514 258 516 c 1,20,21
 248 425 248 425 248 235 c 0,22,23
 248 218 248 218 203 218 c 0,24,25
 138 218 138 218 91.5 266.5 c 128,-1,26
 45 315 45 315 45 395.5 c 128,-1,27
 45 476 45 476 96.5 525.5 c 128,-1,28
 148 575 148 575 225 575 c 1,0,-1
EndSplineSet
EndChar

StartChar: periodcentered
Encoding: 183 183 118
Width: 201
GlyphClass: 2
Flags: W
LayerCount: 2
Fore
SplineSet
101 197 m 128,-1,1
 76 197 76 197 58 215 c 128,-1,2
 40 233 40 233 40 260 c 128,-1,3
 40 287 40 287 58 305.5 c 128,-1,4
 76 324 76 324 101 324 c 128,-1,5
 126 324 126 324 143.5 305.5 c 128,-1,6
 161 287 161 287 161 260 c 128,-1,7
 161 233 161 233 143.5 215 c 128,-1,0
 126 197 126 197 101 197 c 128,-1,1
EndSplineSet
EndChar

StartChar: cedilla
Encoding: 184 184 119
Width: 155
GlyphClass: 2
Flags: W
LayerCount: 2
Fore
SplineSet
92 32 m 1,0,-1
 129 27 l 1,1,2
 111 -27 111 -27 111 -30 c 128,-1,3
 111 -33 111 -33 111.5 -36 c 128,-1,4
 112 -39 112 -39 114 -41 c 128,-1,5
 116 -43 116 -43 117 -45 c 128,-1,6
 118 -47 118 -47 121.5 -49.5 c 128,-1,7
 125 -52 125 -52 126 -53 c 0,8,9
 134 -58 134 -58 138 -60 c 0,10,11
 185 -87 185 -87 185 -129 c 128,-1,12
 185 -171 185 -171 150.5 -201.5 c 128,-1,13
 116 -232 116 -232 65 -232 c 0,14,15
 30 -232 30 -232 30 -207 c 0,16,17
 30 -191 30 -191 43 -178 c 1,18,19
 58 -187 58 -187 74 -187 c 0,20,21
 124 -187 124 -187 124 -147 c 0,22,23
 124 -124 124 -124 93.5 -98.5 c 128,-1,24
 63 -73 63 -73 63 -54 c 0,25,26
 63 -21 63 -21 92 32 c 1,0,-1
EndSplineSet
EndChar

StartChar: onesuperior
Encoding: 185 185 120
Width: 383
GlyphClass: 2
Flags: W
LayerCount: 2
Fore
SplineSet
167 271 m 1,0,-1
 169 462 l 2,1,2
 169 550 169 550 166 617 c 1,3,4
 98 606 98 606 76 598 c 1,5,6
 70 610 70 610 70 622 c 0,7,8
 70 651 70 651 104 659 c 0,9,10
 169 673 169 673 198 673 c 0,11,12
 234 673 234 673 234 639 c 0,13,14
 234 634 234 634 232 603 c 0,15,16
 227 526 227 526 227 437 c 2,17,-1
 227 390 l 2,18,19
 227 309 227 309 233 268 c 1,20,21
 271 268 271 268 309 272 c 1,22,23
 313 260 313 260 313 252 c 0,24,25
 313 218 313 218 278 218 c 2,26,-1
 154 220 l 2,27,28
 104 220 104 220 76 219 c 1,29,30
 71 232 71 232 71 240 c 0,31,32
 71 271 71 271 124 271 c 2,33,-1
 167 271 l 1,0,-1
EndSplineSet
EndChar

StartChar: ordmasculine
Encoding: 186 186 121
Width: 315
GlyphClass: 2
Flags: W
LayerCount: 2
Fore
SplineSet
243 256 m 1,0,-1
 155 264 l 1,1,2
 90 264 90 264 40 256 c 1,3,4
 37 268 37 268 37 281 c 128,-1,5
 37 294 37 294 46 304.5 c 128,-1,6
 55 315 55 315 73 315 c 0,7,8
 75 315 75 315 109 311.5 c 128,-1,9
 143 308 143 308 192.5 308 c 128,-1,10
 242 308 242 308 276 315 c 1,11,12
 279 304 279 304 279 290.5 c 128,-1,13
 279 277 279 277 269.5 266.5 c 128,-1,14
 260 256 260 256 243 256 c 1,0,-1
250 412 m 128,-1,16
 215 376 215 376 157.5 376 c 128,-1,17
 100 376 100 376 65 412.5 c 128,-1,18
 30 449 30 449 30 509.5 c 128,-1,19
 30 570 30 570 65 606.5 c 128,-1,20
 100 643 100 643 157.5 643 c 128,-1,21
 215 643 215 643 250 606.5 c 128,-1,22
 285 570 285 570 285 509 c 128,-1,15
 285 448 285 448 250 412 c 128,-1,16
212 438.5 m 128,-1,24
 232 462 232 462 232 503.5 c 128,-1,25
 232 545 232 545 212 574.5 c 128,-1,26
 192 604 192 604 157 604 c 128,-1,27
 122 604 122 604 103 580.5 c 128,-1,28
 84 557 84 557 84 515 c 128,-1,29
 84 473 84 473 103.5 444 c 128,-1,30
 123 415 123 415 157.5 415 c 128,-1,23
 192 415 192 415 212 438.5 c 128,-1,24
EndSplineSet
EndChar

StartChar: guillemotright
Encoding: 187 187 122
Width: 474
GlyphClass: 2
Flags: W
LayerCount: 2
Fore
SplineSet
146 235 m 1,0,1
 111 278 111 278 75.5 331 c 128,-1,2
 40 384 40 384 40 397.5 c 128,-1,3
 40 411 40 411 60 426 c 1,4,5
 126 371 126 371 225 235 c 1,6,7
 126 99 126 99 60 44 c 1,8,9
 40 59 40 59 40 72.5 c 128,-1,10
 40 86 40 86 75.5 139 c 128,-1,11
 111 192 111 192 146 235 c 1,0,1
335 235 m 1,12,13
 300 278 300 278 264.5 331 c 128,-1,14
 229 384 229 384 229 397.5 c 128,-1,15
 229 411 229 411 249 426 c 1,16,17
 315 371 315 371 414 235 c 1,18,19
 315 99 315 99 249 44 c 1,20,21
 229 59 229 59 229 72.5 c 128,-1,22
 229 86 229 86 264.5 139 c 128,-1,23
 300 192 300 192 335 235 c 1,12,13
EndSplineSet
EndChar

StartChar: onequarter
Encoding: 188 188 123
Width: 914
GlyphClass: 2
Flags: W
LayerCount: 2
Fore
SplineSet
231 -57 m 2,0,-1
 523 528 l 2,1,2
 587 656 587 656 622 740 c 1,3,4
 640 740 640 740 655.5 732 c 128,-1,5
 671 724 671 724 671 709 c 0,6,7
 671 700 671 700 615 589 c 0,8,9
 455 271 455 271 381.5 123.5 c 128,-1,10
 308 -24 308 -24 274 -107 c 1,11,12
 254 -107 254 -107 239.5 -99 c 128,-1,13
 225 -91 225 -91 225 -80 c 128,-1,14
 225 -69 225 -69 231 -57 c 2,0,-1
562 185 m 1,15,16
 595 183 595 183 711 183 c 1,17,18
 711 262 711 262 713 372 c 1,19,20
 704 362 704 362 678.5 335 c 128,-1,21
 653 308 653 308 641 294 c 0,22,23
 598 244 598 244 562 185 c 1,15,16
709 42 m 2,24,-1
 711 129 l 1,25,26
 577 129 577 129 527 136 c 1,27,28
 508 137 508 137 508 172 c 0,29,30
 508 189 508 189 509 195 c 1,31,32
 544 254 544 254 605.5 329 c 128,-1,33
 667 404 667 404 709 441 c 0,34,35
 721 452 721 452 754 452 c 0,36,37
 760 452 760 452 776 450 c 1,38,39
 776 448 776 448 774 414 c 0,40,41
 768 310 768 310 768 188 c 1,42,43
 816 191 816 191 836 200 c 1,44,45
 844 184 844 184 844 163.5 c 128,-1,46
 844 143 844 143 827 137 c 128,-1,47
 810 131 810 131 768 130 c 1,48,49
 768 49 768 49 784 -2 c 1,50,51
 768 -10 768 -10 747.5 -10 c 128,-1,52
 727 -10 727 -10 718 2 c 128,-1,53
 709 14 709 14 709 42 c 2,24,-1
167 271 m 1,54,-1
 169 462 l 2,55,56
 169 550 169 550 166 617 c 1,57,58
 98 606 98 606 76 598 c 1,59,60
 70 610 70 610 70 622 c 0,61,62
 70 651 70 651 104 659 c 0,63,64
 169 673 169 673 198 673 c 0,65,66
 234 673 234 673 234 639 c 0,67,68
 234 634 234 634 232 603 c 0,69,70
 227 526 227 526 227 437 c 2,71,-1
 227 390 l 2,72,73
 227 309 227 309 233 268 c 1,74,75
 271 268 271 268 309 272 c 1,76,77
 313 260 313 260 313 252 c 0,78,79
 313 218 313 218 278 218 c 2,80,-1
 154 220 l 2,81,82
 104 220 104 220 76 219 c 1,83,84
 71 232 71 232 71 240 c 0,85,86
 71 271 71 271 124 271 c 2,87,-1
 167 271 l 1,54,-1
EndSplineSet
EndChar

StartChar: onehalf
Encoding: 189 189 124
Width: 965
GlyphClass: 2
Flags: W
LayerCount: 2
Fore
SplineSet
232 -57 m 2,0,-1
 524 528 l 2,1,2
 588 656 588 656 623 740 c 1,3,4
 641 740 641 740 656.5 732 c 128,-1,5
 672 724 672 724 672 709 c 0,6,7
 672 700 672 700 616 589 c 0,8,9
 456 271 456 271 382.5 123.5 c 128,-1,10
 309 -24 309 -24 275 -107 c 1,11,12
 255 -107 255 -107 240.5 -99 c 128,-1,13
 226 -91 226 -91 226 -80 c 128,-1,14
 226 -69 226 -69 232 -57 c 2,0,-1
620 328 m 1,15,16
 588 331 588 331 588 356 c 0,17,18
 588 387 588 387 633.5 419.5 c 128,-1,19
 679 452 679 452 737 452 c 128,-1,20
 795 452 795 452 832 418 c 128,-1,21
 869 384 869 384 869 325.5 c 128,-1,22
 869 267 869 267 812 194 c 128,-1,23
 755 121 755 121 639 54 c 1,24,25
 668 53 668 53 724 53 c 0,26,27
 833 53 833 53 887 77 c 1,28,29
 900 58 900 58 900 39 c 128,-1,30
 900 20 900 20 877 11 c 0,31,32
 845 -1 845 -1 756 -1 c 128,-1,33
 667 -1 667 -1 621 0 c 128,-1,34
 575 1 575 1 575 41 c 0,35,36
 575 55 575 55 576 58 c 1,37,38
 688 124 688 124 746 194.5 c 128,-1,39
 804 265 804 265 804 322 c 0,40,41
 804 357 804 357 781 379 c 128,-1,42
 758 401 758 401 726.5 401 c 128,-1,43
 695 401 695 401 666 380 c 128,-1,44
 637 359 637 359 620 328 c 1,15,16
167 271 m 1,45,-1
 169 462 l 2,46,47
 169 550 169 550 166 617 c 1,48,49
 98 606 98 606 76 598 c 1,50,51
 70 610 70 610 70 622 c 0,52,53
 70 651 70 651 104 659 c 0,54,55
 169 673 169 673 198 673 c 0,56,57
 234 673 234 673 234 639 c 0,58,59
 234 634 234 634 232 603 c 0,60,61
 227 526 227 526 227 437 c 2,62,-1
 227 390 l 2,63,64
 227 309 227 309 233 268 c 1,65,66
 271 268 271 268 309 272 c 1,67,68
 313 260 313 260 313 252 c 0,69,70
 313 218 313 218 278 218 c 2,71,-1
 154 220 l 2,72,73
 104 220 104 220 76 219 c 1,74,75
 71 232 71 232 71 240 c 0,76,77
 71 271 71 271 124 271 c 2,78,-1
 167 271 l 1,45,-1
EndSplineSet
EndChar

StartChar: threequarters
Encoding: 190 190 125
Width: 938
GlyphClass: 2
Flags: W
LayerCount: 2
Fore
SplineSet
166 472 m 0,0,1
 224 477 224 477 252.5 495 c 128,-1,2
 281 513 281 513 281 550 c 128,-1,3
 281 587 281 587 264 604.5 c 128,-1,4
 247 622 247 622 199 622 c 128,-1,5
 151 622 151 622 107 569 c 1,6,7
 75 575 75 575 75 601 c 0,8,9
 75 620 75 620 96 636 c 0,10,11
 145 673 145 673 211.5 673 c 128,-1,12
 278 673 278 673 312 644 c 128,-1,13
 346 615 346 615 346 566 c 0,14,15
 346 486 346 486 260 458 c 1,16,17
 308 443 308 443 331 412.5 c 128,-1,18
 354 382 354 382 354 344 c 0,19,20
 354 290 354 290 310 249 c 128,-1,21
 266 208 266 208 184 208 c 0,22,23
 135 208 135 208 97.5 225 c 128,-1,24
 60 242 60 242 60 266.5 c 128,-1,25
 60 291 60 291 88 300 c 1,26,27
 127 259 127 259 190 259 c 0,28,29
 234 259 234 259 261.5 281.5 c 128,-1,30
 289 304 289 304 289 344 c 0,31,32
 289 434 289 434 171 434 c 0,33,34
 155 434 155 434 151 440.5 c 128,-1,35
 147 447 147 447 147 456.5 c 128,-1,36
 147 466 147 466 148 471 c 1,37,38
 159 471 159 471 166 472 c 0,0,1
586 185 m 1,39,40
 619 183 619 183 735 183 c 1,41,42
 735 262 735 262 737 372 c 1,43,44
 728 362 728 362 702.5 335 c 128,-1,45
 677 308 677 308 665 294 c 0,46,47
 622 244 622 244 586 185 c 1,39,40
733 42 m 2,48,-1
 735 129 l 1,49,50
 601 129 601 129 551 136 c 1,51,52
 532 137 532 137 532 172 c 0,53,54
 532 189 532 189 533 195 c 1,55,56
 568 254 568 254 629.5 329 c 128,-1,57
 691 404 691 404 733 441 c 0,58,59
 745 452 745 452 778 452 c 0,60,61
 784 452 784 452 800 450 c 1,62,63
 800 448 800 448 798 414 c 0,64,65
 792 310 792 310 792 188 c 1,66,67
 840 191 840 191 860 200 c 1,68,69
 868 184 868 184 868 163.5 c 128,-1,70
 868 143 868 143 851 137 c 128,-1,71
 834 131 834 131 792 130 c 1,72,73
 792 49 792 49 808 -2 c 1,74,75
 792 -10 792 -10 771.5 -10 c 128,-1,76
 751 -10 751 -10 742 2 c 128,-1,77
 733 14 733 14 733 42 c 2,48,-1
255 -57 m 2,78,-1
 547 528 l 2,79,80
 611 656 611 656 646 740 c 1,81,82
 664 740 664 740 679.5 732 c 128,-1,83
 695 724 695 724 695 709 c 0,84,85
 695 700 695 700 639 589 c 0,86,87
 479 271 479 271 405.5 123.5 c 128,-1,88
 332 -24 332 -24 298 -107 c 1,89,90
 278 -107 278 -107 263.5 -99 c 128,-1,91
 249 -91 249 -91 249 -80 c 128,-1,92
 249 -69 249 -69 255 -57 c 2,78,-1
EndSplineSet
EndChar

StartChar: questiondown
Encoding: 191 191 126
Width: 357
GlyphClass: 2
Flags: W
LayerCount: 2
Fore
SplineSet
163 266 m 1,0,1
 184 276 184 276 201 276 c 0,2,3
 247 276 247 276 247 208 c 0,4,5
 247 148 247 148 193 87 c 0,6,7
 171 62 171 62 148 37 c 0,8,9
 94 -24 94 -24 94 -88 c 0,10,11
 94 -130 94 -130 129 -151 c 0,12,13
 150 -163 150 -163 184 -163 c 128,-1,14
 218 -163 218 -163 252.5 -142.5 c 128,-1,15
 287 -122 287 -122 296 -88 c 1,16,17
 342 -95 342 -95 342 -132 c 0,18,19
 342 -172 342 -172 298 -195.5 c 128,-1,20
 254 -219 254 -219 189.5 -219 c 128,-1,21
 125 -219 125 -219 80 -192 c 0,22,23
 20 -157 20 -157 20 -86 c 0,24,25
 20 -41 20 -41 36 -5 c 128,-1,26
 52 31 52 31 74.5 54 c 128,-1,27
 97 77 97 77 120 98 c 0,28,29
 174 149 174 149 174 203 c 0,30,31
 174 233 174 233 163 266 c 1,0,1
200 475 m 128,-1,33
 225 475 225 475 243 457 c 128,-1,34
 261 439 261 439 261 412 c 128,-1,35
 261 385 261 385 243 366.5 c 128,-1,36
 225 348 225 348 200 348 c 128,-1,37
 175 348 175 348 157.5 366.5 c 128,-1,38
 140 385 140 385 140 412 c 128,-1,39
 140 439 140 439 157.5 457 c 128,-1,32
 175 475 175 475 200 475 c 128,-1,33
EndSplineSet
EndChar

StartChar: Agrave
Encoding: 192 192 127
Width: 551
GlyphClass: 2
Flags: W
LayerCount: 2
Fore
SplineSet
197 894 m 1,0,1
 234 853 234 853 275 821.5 c 128,-1,2
 316 790 316 790 334 775.5 c 128,-1,3
 352 761 352 761 352 746 c 128,-1,4
 352 731 352 731 336 717 c 1,5,6
 308 738 308 738 259.5 765 c 128,-1,7
 211 792 211 792 186.5 810 c 128,-1,8
 162 828 162 828 162 851 c 128,-1,9
 162 874 162 874 197 894 c 1,0,1
388 268 m 1,10,11
 354 357 354 357 285 569 c 1,12,13
 276 546 276 546 239 441 c 128,-1,14
 202 336 202 336 174 268 c 1,15,16
 252 266 252 266 305 266 c 128,-1,17
 358 266 358 266 388 268 c 1,10,11
409 209 m 1,18,19
 297 207 297 207 273 207 c 128,-1,20
 249 207 249 207 149 209 c 1,21,22
 82 40 82 40 65 -21 c 1,23,24
 32 -14 32 -14 18.5 -5 c 128,-1,25
 5 4 5 4 5 17.5 c 128,-1,26
 5 31 5 31 48 131 c 0,27,28
 192 470 192 470 247 660 c 1,29,30
 266 663 266 663 290 663 c 128,-1,31
 314 663 314 663 324 654.5 c 128,-1,32
 334 646 334 646 345 610 c 0,33,34
 408 407 408 407 471.5 241.5 c 128,-1,35
 535 76 535 76 569 10 c 1,36,37
 541 -10 541 -10 521 -10 c 0,38,39
 489 -10 489 -10 478 17 c 0,40,41
 459 66 459 66 409 209 c 1,18,19
EndSplineSet
EndChar

StartChar: Aacute
Encoding: 193 193 128
Width: 551
GlyphClass: 2
Flags: W
LayerCount: 2
Fore
SplineSet
391 894 m 1,0,1
 426 874 426 874 426 851 c 128,-1,2
 426 828 426 828 402.5 811.5 c 128,-1,3
 379 795 379 795 321.5 761.5 c 128,-1,4
 264 728 264 728 251 716 c 1,5,6
 235 730 235 730 235 746 c 128,-1,7
 235 762 235 762 251 774.5 c 128,-1,8
 267 787 267 787 308.5 818 c 128,-1,9
 350 849 350 849 391 894 c 1,0,1
388 268 m 1,10,11
 354 357 354 357 285 569 c 1,12,13
 276 546 276 546 239 441 c 128,-1,14
 202 336 202 336 174 268 c 1,15,16
 252 266 252 266 305 266 c 128,-1,17
 358 266 358 266 388 268 c 1,10,11
409 209 m 1,18,19
 297 207 297 207 273 207 c 128,-1,20
 249 207 249 207 149 209 c 1,21,22
 82 40 82 40 65 -21 c 1,23,24
 32 -14 32 -14 18.5 -5 c 128,-1,25
 5 4 5 4 5 17.5 c 128,-1,26
 5 31 5 31 48 131 c 0,27,28
 192 470 192 470 247 660 c 1,29,30
 266 663 266 663 290 663 c 128,-1,31
 314 663 314 663 324 654.5 c 128,-1,32
 334 646 334 646 345 610 c 0,33,34
 408 407 408 407 471.5 241.5 c 128,-1,35
 535 76 535 76 569 10 c 1,36,37
 541 -10 541 -10 521 -10 c 0,38,39
 489 -10 489 -10 478 17 c 0,40,41
 459 66 459 66 409 209 c 1,18,19
EndSplineSet
EndChar

StartChar: Acircumflex
Encoding: 194 194 129
Width: 551
GlyphClass: 2
Flags: W
LayerCount: 2
Fore
SplineSet
303 871 m 1,0,1
 350 841 350 841 391.5 803.5 c 128,-1,2
 433 766 433 766 433 743.5 c 128,-1,3
 433 721 433 721 410 711 c 1,4,5
 391 735 391 735 364 757 c 128,-1,6
 337 779 337 779 319 790 c 2,7,-1
 301 800 l 1,8,9
 295 795 295 795 282.5 784.5 c 128,-1,10
 270 774 270 774 262.5 768 c 128,-1,11
 255 762 255 762 244 753.5 c 128,-1,12
 233 745 233 745 225.5 739.5 c 128,-1,13
 218 734 218 734 210 729 c 0,14,15
 195 719 195 719 185 719 c 128,-1,16
 175 719 175 719 162 737 c 1,17,18
 226 814 226 814 303 871 c 1,0,1
388 268 m 1,19,20
 354 357 354 357 285 569 c 1,21,22
 276 546 276 546 239 441 c 128,-1,23
 202 336 202 336 174 268 c 1,24,25
 252 266 252 266 305 266 c 128,-1,26
 358 266 358 266 388 268 c 1,19,20
409 209 m 1,27,28
 297 207 297 207 273 207 c 128,-1,29
 249 207 249 207 149 209 c 1,30,31
 82 40 82 40 65 -21 c 1,32,33
 32 -14 32 -14 18.5 -5 c 128,-1,34
 5 4 5 4 5 17.5 c 128,-1,35
 5 31 5 31 48 131 c 0,36,37
 192 470 192 470 247 660 c 1,38,39
 266 663 266 663 290 663 c 128,-1,40
 314 663 314 663 324 654.5 c 128,-1,41
 334 646 334 646 345 610 c 0,42,43
 408 407 408 407 471.5 241.5 c 128,-1,44
 535 76 535 76 569 10 c 1,45,46
 541 -10 541 -10 521 -10 c 0,47,48
 489 -10 489 -10 478 17 c 0,49,50
 459 66 459 66 409 209 c 1,27,28
EndSplineSet
EndChar

StartChar: Atilde
Encoding: 195 195 130
Width: 551
GlyphClass: 2
Flags: W
LayerCount: 2
Fore
SplineSet
388 268 m 1,0,1
 354 357 354 357 285 569 c 1,2,3
 276 546 276 546 239 441 c 128,-1,4
 202 336 202 336 174 268 c 1,5,6
 252 266 252 266 305 266 c 128,-1,7
 358 266 358 266 388 268 c 1,0,1
409 209 m 1,8,9
 297 207 297 207 273 207 c 128,-1,10
 249 207 249 207 149 209 c 1,11,12
 82 40 82 40 65 -21 c 1,13,14
 32 -14 32 -14 18.5 -5 c 128,-1,15
 5 4 5 4 5 17.5 c 128,-1,16
 5 31 5 31 48 131 c 0,17,18
 192 470 192 470 247 660 c 1,19,20
 266 663 266 663 290 663 c 128,-1,21
 314 663 314 663 324 654.5 c 128,-1,22
 334 646 334 646 345 610 c 0,23,24
 408 407 408 407 471.5 241.5 c 128,-1,25
 535 76 535 76 569 10 c 1,26,27
 541 -10 541 -10 521 -10 c 0,28,29
 489 -10 489 -10 478 17 c 0,30,31
 459 66 459 66 409 209 c 1,8,9
438 798 m 0,32,33
 438 770 438 770 407 744 c 128,-1,34
 376 718 376 718 348 718 c 128,-1,35
 320 718 320 718 282.5 740.5 c 128,-1,36
 245 763 245 763 227 763 c 128,-1,37
 209 763 209 763 168 721 c 1,38,39
 152 728 152 728 152 742 c 0,40,41
 152 769 152 769 183.5 795.5 c 128,-1,42
 215 822 215 822 250 822 c 0,43,44
 268 822 268 822 307 799.5 c 128,-1,45
 346 777 346 777 366 777 c 128,-1,46
 386 777 386 777 422 819 c 1,47,48
 438 813 438 813 438 798 c 0,32,33
EndSplineSet
EndChar

StartChar: Adieresis
Encoding: 196 196 131
Width: 551
GlyphClass: 2
Flags: W
LayerCount: 2
Fore
SplineSet
388 268 m 1,0,1
 354 357 354 357 285 569 c 1,2,3
 276 546 276 546 239 441 c 128,-1,4
 202 336 202 336 174 268 c 1,5,6
 252 266 252 266 305 266 c 128,-1,7
 358 266 358 266 388 268 c 1,0,1
409 209 m 1,8,9
 297 207 297 207 273 207 c 128,-1,10
 249 207 249 207 149 209 c 1,11,12
 82 40 82 40 65 -21 c 1,13,14
 32 -14 32 -14 18.5 -5 c 128,-1,15
 5 4 5 4 5 17.5 c 128,-1,16
 5 31 5 31 48 131 c 0,17,18
 192 470 192 470 247 660 c 1,19,20
 266 663 266 663 290 663 c 128,-1,21
 314 663 314 663 324 654.5 c 128,-1,22
 334 646 334 646 345 610 c 0,23,24
 408 407 408 407 471.5 241.5 c 128,-1,25
 535 76 535 76 569 10 c 1,26,27
 541 -10 541 -10 521 -10 c 0,28,29
 489 -10 489 -10 478 17 c 0,30,31
 459 66 459 66 409 209 c 1,8,9
400 727.5 m 128,-1,33
 384 712 384 712 363.5 712 c 128,-1,34
 343 712 343 712 328 727 c 128,-1,35
 313 742 313 742 313 765 c 128,-1,36
 313 788 313 788 329 803.5 c 128,-1,37
 345 819 345 819 365.5 819 c 128,-1,38
 386 819 386 819 401 803.5 c 128,-1,39
 416 788 416 788 416 765.5 c 128,-1,32
 416 743 416 743 400 727.5 c 128,-1,33
222 727.5 m 128,-1,41
 206 712 206 712 185.5 712 c 128,-1,42
 165 712 165 712 150 727 c 128,-1,43
 135 742 135 742 135 765 c 128,-1,44
 135 788 135 788 151 803.5 c 128,-1,45
 167 819 167 819 187.5 819 c 128,-1,46
 208 819 208 819 223 803.5 c 128,-1,47
 238 788 238 788 238 765.5 c 128,-1,40
 238 743 238 743 222 727.5 c 128,-1,41
EndSplineSet
EndChar

StartChar: Aring
Encoding: 197 197 132
Width: 551
GlyphClass: 2
Flags: W
LayerCount: 2
Fore
SplineSet
361 736.5 m 128,-1,1
 337 712 337 712 297.5 712 c 128,-1,2
 258 712 258 712 233.5 736.5 c 128,-1,3
 209 761 209 761 209 801 c 128,-1,4
 209 841 209 841 233.5 865.5 c 128,-1,5
 258 890 258 890 297.5 890 c 128,-1,6
 337 890 337 890 361 865.5 c 128,-1,7
 385 841 385 841 385 801 c 128,-1,0
 385 761 385 761 361 736.5 c 128,-1,1
331 758.5 m 128,-1,9
 343 772 343 772 343 797.5 c 128,-1,10
 343 823 343 823 331 840 c 128,-1,11
 319 857 319 857 297.5 857 c 128,-1,12
 276 857 276 857 263.5 843 c 128,-1,13
 251 829 251 829 251 804 c 128,-1,14
 251 779 251 779 263.5 762 c 128,-1,15
 276 745 276 745 297.5 745 c 128,-1,8
 319 745 319 745 331 758.5 c 128,-1,9
388 268 m 1,16,17
 354 357 354 357 285 569 c 1,18,19
 276 546 276 546 239 441 c 128,-1,20
 202 336 202 336 174 268 c 1,21,22
 252 266 252 266 305 266 c 128,-1,23
 358 266 358 266 388 268 c 1,16,17
409 209 m 1,24,25
 297 207 297 207 273 207 c 128,-1,26
 249 207 249 207 149 209 c 1,27,28
 82 40 82 40 65 -21 c 1,29,30
 32 -14 32 -14 18.5 -5 c 128,-1,31
 5 4 5 4 5 17.5 c 128,-1,32
 5 31 5 31 48 131 c 0,33,34
 192 470 192 470 247 660 c 1,35,36
 266 663 266 663 290 663 c 128,-1,37
 314 663 314 663 324 654.5 c 128,-1,38
 334 646 334 646 345 610 c 0,39,40
 408 407 408 407 471.5 241.5 c 128,-1,41
 535 76 535 76 569 10 c 1,42,43
 541 -10 541 -10 521 -10 c 0,44,45
 489 -10 489 -10 478 17 c 0,46,47
 459 66 459 66 409 209 c 1,24,25
EndSplineSet
EndChar

StartChar: AE
Encoding: 198 198 133
Width: 764
GlyphClass: 2
Flags: W
LayerCount: 2
Fore
SplineSet
353 578 m 1,0,1
 338 549 338 549 286 441.5 c 128,-1,2
 234 334 234 334 198 268 c 1,3,4
 276 266 276 266 318 266 c 2,5,-1
 358 266 l 1,6,-1
 358 424 l 2,7,8
 358 503 358 503 353 578 c 1,0,1
429 599 m 1,9,10
 433 555 433 555 433 387 c 1,11,-1
 512 387 l 2,12,13
 596 387 596 387 632 391 c 1,14,15
 636 383 636 383 636 362.5 c 128,-1,16
 636 342 636 342 625.5 334 c 128,-1,17
 615 326 615 326 590.5 325 c 128,-1,18
 566 324 566 324 521 324 c 2,19,-1
 433 324 l 1,20,21
 433 106 433 106 440 62 c 1,22,23
 484 60 484 60 511 60 c 0,24,25
 679 60 679 60 726 83 c 1,26,27
 734 63 734 63 734 42 c 128,-1,28
 734 21 734 21 725 13 c 0,29,30
 707 -2 707 -2 571 -2 c 128,-1,31
 435 -2 435 -2 405.5 -0.5 c 128,-1,32
 376 1 376 1 366 14 c 128,-1,33
 356 27 356 27 356 59 c 128,-1,34
 356 91 356 91 358 207 c 1,35,-1
 290 207 l 2,36,37
 266 207 266 207 166 209 c 1,38,39
 78 40 78 40 59 -10 c 1,40,41
 0 -1 0 -1 0 31 c 0,42,43
 0 44 0 44 66 162 c 128,-1,44
 132 280 132 280 154 321 c 0,45,46
 252 503 252 503 314 654 c 1,47,48
 433 666 433 666 569.5 666 c 128,-1,49
 706 666 706 666 724 651 c 0,50,51
 733 643 733 643 733 622 c 128,-1,52
 733 601 733 601 725 581 c 1,53,54
 668 602 668 602 539 602 c 0,55,56
 486 602 486 602 429 599 c 1,9,10
EndSplineSet
EndChar

StartChar: Ccedilla
Encoding: 199 199 134
Width: 602
GlyphClass: 2
Flags: W
LayerCount: 2
Fore
SplineSet
514 134 m 1,0,1
 558 116 558 116 558 83 c 128,-1,2
 558 50 558 50 503.5 21 c 128,-1,3
 449 -8 449 -8 368 -10 c 1,4,5
 364 -26 364 -26 364 -29.5 c 128,-1,6
 364 -33 364 -33 364.5 -36 c 128,-1,7
 365 -39 365 -39 367 -41 c 128,-1,8
 369 -43 369 -43 370 -45 c 128,-1,9
 371 -47 371 -47 374.5 -49.5 c 128,-1,10
 378 -52 378 -52 380 -53 c 0,11,12
 387 -58 387 -58 391 -60 c 0,13,14
 438 -87 438 -87 438 -129 c 128,-1,15
 438 -171 438 -171 403.5 -201.5 c 128,-1,16
 369 -232 369 -232 318 -232 c 0,17,18
 283 -232 283 -232 283 -207 c 0,19,20
 283 -191 283 -191 296 -178 c 1,21,22
 311 -187 311 -187 327 -187 c 0,23,24
 377 -187 377 -187 377 -147 c 0,25,26
 377 -124 377 -124 346.5 -98.5 c 128,-1,27
 316 -73 316 -73 316 -55 c 128,-1,28
 316 -37 316 -37 327 -8 c 1,29,30
 200 2 200 2 124.5 95 c 128,-1,31
 49 188 49 188 49 340 c 128,-1,32
 49 492 49 492 134 582.5 c 128,-1,33
 219 673 219 673 364 673 c 0,34,35
 442 673 442 673 495 641.5 c 128,-1,36
 548 610 548 610 548 564 c 0,37,38
 548 523 548 523 491 514 c 1,39,40
 472 563 472 563 431 587.5 c 128,-1,41
 390 612 390 612 344 612 c 0,42,43
 250 612 250 612 190.5 537.5 c 128,-1,44
 131 463 131 463 131 343.5 c 128,-1,45
 131 224 131 224 191 137.5 c 128,-1,46
 251 51 251 51 359 51 c 0,47,48
 407 51 407 51 448.5 72 c 128,-1,49
 490 93 490 93 514 134 c 1,0,1
EndSplineSet
EndChar

StartChar: Egrave
Encoding: 200 200 135
Width: 486
GlyphClass: 2
Flags: W
LayerCount: 2
Fore
SplineSet
135 899 m 1,0,1
 172 858 172 858 213 826.5 c 128,-1,2
 254 795 254 795 272 780.5 c 128,-1,3
 290 766 290 766 290 751 c 128,-1,4
 290 736 290 736 274 722 c 1,5,6
 246 743 246 743 197.5 770 c 128,-1,7
 149 797 149 797 124.5 815 c 128,-1,8
 100 833 100 833 100 856 c 128,-1,9
 100 879 100 879 135 899 c 1,0,1
78 57 m 2,10,-1
 80 224 l 1,11,-1
 80 424 l 2,12,13
 80 567 80 567 66 657 c 1,14,15
 173 666 173 666 300.5 666 c 128,-1,16
 428 666 428 666 446 651 c 0,17,18
 455 643 455 643 455 622 c 128,-1,19
 455 601 455 601 447 581 c 1,20,21
 390 602 390 602 261 602 c 0,22,23
 208 602 208 602 151 599 c 1,24,25
 155 555 155 555 155 387 c 1,26,-1
 234 387 l 2,27,28
 318 387 318 387 354 391 c 1,29,30
 358 383 358 383 358 362.5 c 128,-1,31
 358 342 358 342 347.5 334 c 128,-1,32
 337 326 337 326 312.5 325 c 128,-1,33
 288 324 288 324 243 324 c 2,34,-1
 155 324 l 1,35,36
 155 106 155 106 162 62 c 1,37,38
 206 60 206 60 233 60 c 0,39,40
 401 60 401 60 448 83 c 1,41,42
 456 63 456 63 456 42 c 128,-1,43
 456 21 456 21 447 13 c 0,44,45
 429 -2 429 -2 293 -2 c 128,-1,46
 157 -2 157 -2 127.5 -0.5 c 128,-1,47
 98 1 98 1 88 14 c 128,-1,48
 78 27 78 27 78 57 c 2,10,-1
EndSplineSet
EndChar

StartChar: Eacute
Encoding: 201 201 136
Width: 486
GlyphClass: 2
Flags: W
LayerCount: 2
Fore
SplineSet
366 899 m 1,0,1
 401 879 401 879 401 856 c 128,-1,2
 401 833 401 833 377.5 816.5 c 128,-1,3
 354 800 354 800 296.5 766.5 c 128,-1,4
 239 733 239 733 226 721 c 1,5,6
 210 735 210 735 210 751 c 128,-1,7
 210 767 210 767 226 779.5 c 128,-1,8
 242 792 242 792 283.5 823 c 128,-1,9
 325 854 325 854 366 899 c 1,0,1
78 57 m 2,10,-1
 80 224 l 1,11,-1
 80 424 l 2,12,13
 80 567 80 567 66 657 c 1,14,15
 173 666 173 666 300.5 666 c 128,-1,16
 428 666 428 666 446 651 c 0,17,18
 455 643 455 643 455 622 c 128,-1,19
 455 601 455 601 447 581 c 1,20,21
 390 602 390 602 261 602 c 0,22,23
 208 602 208 602 151 599 c 1,24,25
 155 555 155 555 155 387 c 1,26,-1
 234 387 l 2,27,28
 318 387 318 387 354 391 c 1,29,30
 358 383 358 383 358 362.5 c 128,-1,31
 358 342 358 342 347.5 334 c 128,-1,32
 337 326 337 326 312.5 325 c 128,-1,33
 288 324 288 324 243 324 c 2,34,-1
 155 324 l 1,35,36
 155 106 155 106 162 62 c 1,37,38
 206 60 206 60 233 60 c 0,39,40
 401 60 401 60 448 83 c 1,41,42
 456 63 456 63 456 42 c 128,-1,43
 456 21 456 21 447 13 c 0,44,45
 429 -2 429 -2 293 -2 c 128,-1,46
 157 -2 157 -2 127.5 -0.5 c 128,-1,47
 98 1 98 1 88 14 c 128,-1,48
 78 27 78 27 78 57 c 2,10,-1
EndSplineSet
EndChar

StartChar: Ecircumflex
Encoding: 202 202 137
Width: 486
GlyphClass: 2
Flags: W
LayerCount: 2
Fore
SplineSet
251 869 m 1,0,1
 298 839 298 839 339.5 801.5 c 128,-1,2
 381 764 381 764 381 741.5 c 128,-1,3
 381 719 381 719 358 709 c 1,4,5
 339 733 339 733 312 755.5 c 128,-1,6
 285 778 285 778 267 788 c 2,7,-1
 249 798 l 1,8,9
 243 793 243 793 230.5 782.5 c 128,-1,10
 218 772 218 772 210.5 766 c 128,-1,11
 203 760 203 760 192 751.5 c 128,-1,12
 181 743 181 743 173.5 737.5 c 128,-1,13
 166 732 166 732 158 727 c 0,14,15
 143 717 143 717 133 717 c 128,-1,16
 123 717 123 717 110 735 c 1,17,18
 174 812 174 812 251 869 c 1,0,1
78 57 m 2,19,-1
 80 224 l 1,20,-1
 80 424 l 2,21,22
 80 567 80 567 66 657 c 1,23,24
 173 666 173 666 300.5 666 c 128,-1,25
 428 666 428 666 446 651 c 0,26,27
 455 643 455 643 455 622 c 128,-1,28
 455 601 455 601 447 581 c 1,29,30
 390 602 390 602 261 602 c 0,31,32
 208 602 208 602 151 599 c 1,33,34
 155 555 155 555 155 387 c 1,35,-1
 234 387 l 2,36,37
 318 387 318 387 354 391 c 1,38,39
 358 383 358 383 358 362.5 c 128,-1,40
 358 342 358 342 347.5 334 c 128,-1,41
 337 326 337 326 312.5 325 c 128,-1,42
 288 324 288 324 243 324 c 2,43,-1
 155 324 l 1,44,45
 155 106 155 106 162 62 c 1,46,47
 206 60 206 60 233 60 c 0,48,49
 401 60 401 60 448 83 c 1,50,51
 456 63 456 63 456 42 c 128,-1,52
 456 21 456 21 447 13 c 0,53,54
 429 -2 429 -2 293 -2 c 128,-1,55
 157 -2 157 -2 127.5 -0.5 c 128,-1,56
 98 1 98 1 88 14 c 128,-1,57
 78 27 78 27 78 57 c 2,19,-1
EndSplineSet
EndChar

StartChar: Edieresis
Encoding: 203 203 138
Width: 486
GlyphClass: 2
Flags: W
LayerCount: 2
Fore
SplineSet
78 57 m 2,0,-1
 80 224 l 1,1,-1
 80 424 l 2,2,3
 80 567 80 567 66 657 c 1,4,5
 173 666 173 666 300.5 666 c 128,-1,6
 428 666 428 666 446 651 c 0,7,8
 455 643 455 643 455 622 c 128,-1,9
 455 601 455 601 447 581 c 1,10,11
 390 602 390 602 261 602 c 0,12,13
 208 602 208 602 151 599 c 1,14,15
 155 555 155 555 155 387 c 1,16,-1
 234 387 l 2,17,18
 318 387 318 387 354 391 c 1,19,20
 358 383 358 383 358 362.5 c 128,-1,21
 358 342 358 342 347.5 334 c 128,-1,22
 337 326 337 326 312.5 325 c 128,-1,23
 288 324 288 324 243 324 c 2,24,-1
 155 324 l 1,25,26
 155 106 155 106 162 62 c 1,27,28
 206 60 206 60 233 60 c 0,29,30
 401 60 401 60 448 83 c 1,31,32
 456 63 456 63 456 42 c 128,-1,33
 456 21 456 21 447 13 c 0,34,35
 429 -2 429 -2 293 -2 c 128,-1,36
 157 -2 157 -2 127.5 -0.5 c 128,-1,37
 98 1 98 1 88 14 c 128,-1,38
 78 27 78 27 78 57 c 2,0,-1
367 727.5 m 128,-1,40
 351 712 351 712 330.5 712 c 128,-1,41
 310 712 310 712 295 727 c 128,-1,42
 280 742 280 742 280 765 c 128,-1,43
 280 788 280 788 296 803.5 c 128,-1,44
 312 819 312 819 332.5 819 c 128,-1,45
 353 819 353 819 368 803.5 c 128,-1,46
 383 788 383 788 383 765.5 c 128,-1,39
 383 743 383 743 367 727.5 c 128,-1,40
189 727.5 m 128,-1,48
 173 712 173 712 152.5 712 c 128,-1,49
 132 712 132 712 117 727 c 128,-1,50
 102 742 102 742 102 765 c 128,-1,51
 102 788 102 788 118 803.5 c 128,-1,52
 134 819 134 819 154.5 819 c 128,-1,53
 175 819 175 819 190 803.5 c 128,-1,54
 205 788 205 788 205 765.5 c 128,-1,47
 205 743 205 743 189 727.5 c 128,-1,48
EndSplineSet
EndChar

StartChar: Igrave
Encoding: 204 204 139
Width: 221
GlyphClass: 2
Flags: W
LayerCount: 2
Fore
SplineSet
71 54 m 2,0,-1
 73 231 l 1,1,-1
 73 431 l 2,2,3
 73 572 73 572 66 663 c 1,4,5
 83 666 83 666 107 666 c 0,6,7
 156 666 156 666 156 628 c 0,8,9
 156 622 156 622 154 588 c 0,10,11
 148 484 148 484 148 404 c 2,12,-1
 148 203 l 2,13,14
 148 68 148 68 167 5 c 1,15,16
 149 -3 149 -3 120 -3 c 128,-1,17
 91 -3 91 -3 81 10 c 128,-1,18
 71 23 71 23 71 54 c 2,0,-1
1 899 m 1,19,20
 38 858 38 858 79 826.5 c 128,-1,21
 120 795 120 795 138 780.5 c 128,-1,22
 156 766 156 766 156 751 c 128,-1,23
 156 736 156 736 140 722 c 1,24,25
 112 743 112 743 63.5 770 c 128,-1,26
 15 797 15 797 -9.5 815 c 128,-1,27
 -34 833 -34 833 -34 856 c 128,-1,28
 -34 879 -34 879 1 899 c 1,19,20
EndSplineSet
EndChar

StartChar: Iacute
Encoding: 205 205 140
Width: 221
GlyphClass: 2
Flags: W
LayerCount: 2
Fore
SplineSet
71 54 m 2,0,-1
 73 231 l 1,1,-1
 73 431 l 2,2,3
 73 572 73 572 66 663 c 1,4,5
 83 666 83 666 107 666 c 0,6,7
 156 666 156 666 156 628 c 0,8,9
 156 622 156 622 154 588 c 0,10,11
 148 484 148 484 148 404 c 2,12,-1
 148 203 l 2,13,14
 148 68 148 68 167 5 c 1,15,16
 149 -3 149 -3 120 -3 c 128,-1,17
 91 -3 91 -3 81 10 c 128,-1,18
 71 23 71 23 71 54 c 2,0,-1
232 899 m 1,19,20
 267 879 267 879 267 856 c 128,-1,21
 267 833 267 833 243.5 816.5 c 128,-1,22
 220 800 220 800 162.5 766.5 c 128,-1,23
 105 733 105 733 92 721 c 1,24,25
 76 735 76 735 76 751 c 128,-1,26
 76 767 76 767 92 779.5 c 128,-1,27
 108 792 108 792 149.5 823 c 128,-1,28
 191 854 191 854 232 899 c 1,19,20
EndSplineSet
EndChar

StartChar: Icircumflex
Encoding: 206 206 141
Width: 221
GlyphClass: 2
Flags: W
LayerCount: 2
Fore
SplineSet
71 54 m 2,0,-1
 73 231 l 1,1,-1
 73 431 l 2,2,3
 73 572 73 572 66 663 c 1,4,5
 83 666 83 666 107 666 c 0,6,7
 156 666 156 666 156 628 c 0,8,9
 156 622 156 622 154 588 c 0,10,11
 148 484 148 484 148 404 c 2,12,-1
 148 203 l 2,13,14
 148 68 148 68 167 5 c 1,15,16
 149 -3 149 -3 120 -3 c 128,-1,17
 91 -3 91 -3 81 10 c 128,-1,18
 71 23 71 23 71 54 c 2,0,-1
117 869 m 1,19,20
 164 839 164 839 205.5 801.5 c 128,-1,21
 247 764 247 764 247 741.5 c 128,-1,22
 247 719 247 719 224 709 c 1,23,24
 205 733 205 733 178 755.5 c 128,-1,25
 151 778 151 778 133 788 c 2,26,-1
 115 798 l 1,27,28
 109 793 109 793 96.5 782.5 c 128,-1,29
 84 772 84 772 76.5 766 c 128,-1,30
 69 760 69 760 58 751.5 c 128,-1,31
 47 743 47 743 39.5 737.5 c 128,-1,32
 32 732 32 732 24 727 c 0,33,34
 10 717 10 717 -0.5 717 c 128,-1,35
 -11 717 -11 717 -24 735 c 1,36,37
 40 812 40 812 117 869 c 1,19,20
EndSplineSet
EndChar

StartChar: Idieresis
Encoding: 207 207 142
Width: 221
GlyphClass: 2
Flags: W
LayerCount: 2
Fore
SplineSet
71 54 m 2,0,-1
 73 231 l 1,1,-1
 73 431 l 2,2,3
 73 572 73 572 66 663 c 1,4,5
 83 666 83 666 107 666 c 0,6,7
 156 666 156 666 156 628 c 0,8,9
 156 622 156 622 154 588 c 0,10,11
 148 484 148 484 148 404 c 2,12,-1
 148 203 l 2,13,14
 148 68 148 68 167 5 c 1,15,16
 149 -3 149 -3 120 -3 c 128,-1,17
 91 -3 91 -3 81 10 c 128,-1,18
 71 23 71 23 71 54 c 2,0,-1
54 727.5 m 128,-1,20
 38 712 38 712 17.5 712 c 128,-1,21
 -3 712 -3 712 -18 727 c 128,-1,22
 -33 742 -33 742 -33 765 c 128,-1,23
 -33 788 -33 788 -17 803.5 c 128,-1,24
 -1 819 -1 819 19.5 819 c 128,-1,25
 40 819 40 819 55 803.5 c 128,-1,26
 70 788 70 788 70 765.5 c 128,-1,19
 70 743 70 743 54 727.5 c 128,-1,20
232 727.5 m 128,-1,28
 216 712 216 712 195.5 712 c 128,-1,29
 175 712 175 712 160 727 c 128,-1,30
 145 742 145 742 145 765 c 128,-1,31
 145 788 145 788 161 803.5 c 128,-1,32
 177 819 177 819 197.5 819 c 128,-1,33
 218 819 218 819 233 803.5 c 128,-1,34
 248 788 248 788 248 765.5 c 128,-1,27
 248 743 248 743 232 727.5 c 128,-1,28
EndSplineSet
EndChar

StartChar: Eth
Encoding: 208 208 143
Width: 635
GlyphClass: 2
Flags: W
LayerCount: 2
Fore
SplineSet
153 608 m 1,0,1
 157 539 157 539 157 445 c 2,2,-1
 157 387 l 1,3,-1
 221 387 l 2,4,5
 304 387 304 387 335 391 c 1,6,7
 339 379 339 379 339 362 c 128,-1,8
 339 345 339 345 330 335.5 c 128,-1,9
 321 326 321 326 291.5 325 c 128,-1,10
 262 324 262 324 156 324 c 1,11,12
 153 185 153 185 143 87 c 1,13,14
 197 51 197 51 268 51 c 128,-1,15
 339 51 339 51 385 75 c 128,-1,16
 431 99 431 99 456 140 c 0,17,18
 502 216 502 216 502 313 c 0,19,20
 502 462 502 462 428 537 c 128,-1,21
 354 612 354 612 217 612 c 0,22,23
 195 612 195 612 153 608 c 1,0,1
28 386 m 2,24,-1
 82 387 l 1,25,26
 82 564 82 564 69 661 c 1,27,28
 129 673 129 673 215.5 673 c 128,-1,29
 302 673 302 673 364 656 c 128,-1,30
 426 639 426 639 477.5 601.5 c 128,-1,31
 529 564 529 564 557.5 496 c 128,-1,32
 586 428 586 428 586 333 c 0,33,34
 586 183 586 183 506 86.5 c 128,-1,35
 426 -10 426 -10 284 -10 c 128,-1,36
 142 -10 142 -10 66 53 c 1,37,38
 79 137 79 137 81 324 c 1,39,40
 23 324 23 324 -12 320 c 1,41,42
 -16 332 -16 332 -16 349 c 128,-1,43
 -16 366 -16 366 -7 375.5 c 128,-1,44
 2 385 2 385 28 386 c 2,24,-1
EndSplineSet
EndChar

StartChar: Ntilde
Encoding: 209 209 144
Width: 618
GlyphClass: 2
Flags: W
LayerCount: 2
Fore
SplineSet
485 119 m 1,0,1
 479 191 479 191 479 371 c 2,2,-1
 479 431 l 2,3,4
 479 572 479 572 472 663 c 1,5,6
 489 666 489 666 503 666 c 0,7,8
 552 666 552 666 552 628 c 0,9,10
 552 622 552 622 550 588 c 0,11,12
 544 484 544 484 544 404 c 2,13,-1
 544 233 l 2,14,15
 544 92 544 92 551 1 c 1,16,17
 535 -3 535 -3 518 -3 c 0,18,19
 484 -3 484 -3 466 24 c 0,20,21
 425 87 425 87 324 265.5 c 128,-1,22
 223 444 223 444 151 552 c 1,23,24
 150 514 150 514 150 203 c 0,25,26
 150 68 150 68 169 5 c 1,27,28
 151 -3 151 -3 127 -3 c 128,-1,29
 103 -3 103 -3 93 10 c 128,-1,30
 83 23 83 23 83 54 c 2,31,-1
 85 231 l 1,32,-1
 85 431 l 2,33,34
 85 598 85 598 66 659 c 1,35,36
 85 667 85 667 109 667 c 128,-1,37
 133 667 133 667 144 660 c 0,38,39
 187 634 187 634 297 451.5 c 128,-1,40
 407 269 407 269 485 119 c 1,0,1
457 803 m 0,41,42
 457 775 457 775 426 749 c 128,-1,43
 395 723 395 723 367 723 c 128,-1,44
 339 723 339 723 301.5 745.5 c 128,-1,45
 264 768 264 768 246 768 c 128,-1,46
 228 768 228 768 187 726 c 1,47,48
 171 733 171 733 171 747 c 0,49,50
 171 774 171 774 202.5 800.5 c 128,-1,51
 234 827 234 827 269 827 c 0,52,53
 287 827 287 827 326 804.5 c 128,-1,54
 365 782 365 782 385 782 c 128,-1,55
 405 782 405 782 441 824 c 1,56,57
 457 818 457 818 457 803 c 0,41,42
EndSplineSet
EndChar

StartChar: Ograve
Encoding: 210 210 145
Width: 712
GlyphClass: 2
Flags: W
LayerCount: 2
Fore
SplineSet
240 899 m 1,0,1
 277 858 277 858 318 826.5 c 128,-1,2
 359 795 359 795 377 780.5 c 128,-1,3
 395 766 395 766 395 751 c 128,-1,4
 395 736 395 736 379 722 c 1,5,6
 351 743 351 743 302.5 770 c 128,-1,7
 254 797 254 797 229.5 815 c 128,-1,8
 205 833 205 833 205 856 c 128,-1,9
 205 879 205 879 240 899 c 1,0,1
579.5 83 m 128,-1,11
 496 -10 496 -10 355.5 -10 c 128,-1,12
 215 -10 215 -10 132 83 c 128,-1,13
 49 176 49 176 49 332 c 128,-1,14
 49 488 49 488 132 580.5 c 128,-1,15
 215 673 215 673 355.5 673 c 128,-1,16
 496 673 496 673 579.5 580.5 c 128,-1,17
 663 488 663 488 663 332 c 128,-1,10
 663 176 663 176 579.5 83 c 128,-1,11
529 515 m 0,18,19
 504 559 504 559 459 585.5 c 128,-1,20
 414 612 414 612 356 612 c 0,21,22
 253 612 253 612 192 541.5 c 128,-1,23
 131 471 131 471 131 362 c 0,24,25
 131 243 131 243 181 151 c 0,26,27
 206 105 206 105 250.5 78 c 128,-1,28
 295 51 295 51 354 51 c 0,29,30
 462 51 462 51 520.5 123.5 c 128,-1,31
 579 196 579 196 579 311.5 c 128,-1,32
 579 427 579 427 529 515 c 0,18,19
EndSplineSet
EndChar

StartChar: Oacute
Encoding: 211 211 146
Width: 712
GlyphClass: 2
Flags: W
LayerCount: 2
Fore
SplineSet
471 899 m 1,0,1
 506 879 506 879 506 856 c 128,-1,2
 506 833 506 833 482.5 816.5 c 128,-1,3
 459 800 459 800 401.5 766.5 c 128,-1,4
 344 733 344 733 331 721 c 1,5,6
 315 735 315 735 315 751 c 128,-1,7
 315 767 315 767 331 779.5 c 128,-1,8
 347 792 347 792 388.5 823 c 128,-1,9
 430 854 430 854 471 899 c 1,0,1
579.5 83 m 128,-1,11
 496 -10 496 -10 355.5 -10 c 128,-1,12
 215 -10 215 -10 132 83 c 128,-1,13
 49 176 49 176 49 332 c 128,-1,14
 49 488 49 488 132 580.5 c 128,-1,15
 215 673 215 673 355.5 673 c 128,-1,16
 496 673 496 673 579.5 580.5 c 128,-1,17
 663 488 663 488 663 332 c 128,-1,10
 663 176 663 176 579.5 83 c 128,-1,11
529 515 m 0,18,19
 504 559 504 559 459 585.5 c 128,-1,20
 414 612 414 612 356 612 c 0,21,22
 253 612 253 612 192 541.5 c 128,-1,23
 131 471 131 471 131 362 c 0,24,25
 131 243 131 243 181 151 c 0,26,27
 206 105 206 105 250.5 78 c 128,-1,28
 295 51 295 51 354 51 c 0,29,30
 462 51 462 51 520.5 123.5 c 128,-1,31
 579 196 579 196 579 311.5 c 128,-1,32
 579 427 579 427 529 515 c 0,18,19
EndSplineSet
EndChar

StartChar: Ocircumflex
Encoding: 212 212 147
Width: 712
GlyphClass: 2
Flags: W
LayerCount: 2
Fore
SplineSet
356 868 m 1,0,1
 403 838 403 838 444.5 800.5 c 128,-1,2
 486 763 486 763 486 740.5 c 128,-1,3
 486 718 486 718 463 708 c 1,4,5
 444 732 444 732 417 754 c 128,-1,6
 390 776 390 776 372 786 c 2,7,-1
 354 797 l 1,8,9
 348 792 348 792 335.5 781.5 c 128,-1,10
 323 771 323 771 315.5 765 c 128,-1,11
 308 759 308 759 297 750.5 c 128,-1,12
 286 742 286 742 278.5 736.5 c 128,-1,13
 271 731 271 731 264 726 c 0,14,15
 248 716 248 716 238 716 c 128,-1,16
 228 716 228 716 215 734 c 1,17,18
 279 811 279 811 356 868 c 1,0,1
579.5 83 m 128,-1,20
 496 -10 496 -10 355.5 -10 c 128,-1,21
 215 -10 215 -10 132 83 c 128,-1,22
 49 176 49 176 49 332 c 128,-1,23
 49 488 49 488 132 580.5 c 128,-1,24
 215 673 215 673 355.5 673 c 128,-1,25
 496 673 496 673 579.5 580.5 c 128,-1,26
 663 488 663 488 663 332 c 128,-1,19
 663 176 663 176 579.5 83 c 128,-1,20
529 515 m 0,27,28
 504 559 504 559 459 585.5 c 128,-1,29
 414 612 414 612 356 612 c 0,30,31
 253 612 253 612 192 541.5 c 128,-1,32
 131 471 131 471 131 362 c 0,33,34
 131 243 131 243 181 151 c 0,35,36
 206 105 206 105 250.5 78 c 128,-1,37
 295 51 295 51 354 51 c 0,38,39
 462 51 462 51 520.5 123.5 c 128,-1,40
 579 196 579 196 579 311.5 c 128,-1,41
 579 427 579 427 529 515 c 0,27,28
EndSplineSet
EndChar

StartChar: Otilde
Encoding: 213 213 148
Width: 712
GlyphClass: 2
Flags: W
LayerCount: 2
Fore
SplineSet
499 803 m 0,0,1
 499 775 499 775 468 749 c 128,-1,2
 437 723 437 723 409 723 c 128,-1,3
 381 723 381 723 343.5 745.5 c 128,-1,4
 306 768 306 768 288 768 c 128,-1,5
 270 768 270 768 229 726 c 1,6,7
 213 733 213 733 213 747 c 0,8,9
 213 774 213 774 244.5 800.5 c 128,-1,10
 276 827 276 827 311 827 c 0,11,12
 329 827 329 827 368 804.5 c 128,-1,13
 407 782 407 782 427 782 c 128,-1,14
 447 782 447 782 483 824 c 1,15,16
 499 818 499 818 499 803 c 0,0,1
579.5 83 m 128,-1,18
 496 -10 496 -10 355.5 -10 c 128,-1,19
 215 -10 215 -10 132 83 c 128,-1,20
 49 176 49 176 49 332 c 128,-1,21
 49 488 49 488 132 580.5 c 128,-1,22
 215 673 215 673 355.5 673 c 128,-1,23
 496 673 496 673 579.5 580.5 c 128,-1,24
 663 488 663 488 663 332 c 128,-1,17
 663 176 663 176 579.5 83 c 128,-1,18
529 515 m 0,25,26
 504 559 504 559 459 585.5 c 128,-1,27
 414 612 414 612 356 612 c 0,28,29
 253 612 253 612 192 541.5 c 128,-1,30
 131 471 131 471 131 362 c 0,31,32
 131 243 131 243 181 151 c 0,33,34
 206 105 206 105 250.5 78 c 128,-1,35
 295 51 295 51 354 51 c 0,36,37
 462 51 462 51 520.5 123.5 c 128,-1,38
 579 196 579 196 579 311.5 c 128,-1,39
 579 427 579 427 529 515 c 0,25,26
EndSplineSet
EndChar

StartChar: Odieresis
Encoding: 214 214 149
Width: 712
GlyphClass: 2
Flags: W
LayerCount: 2
Fore
SplineSet
579.5 83 m 128,-1,1
 496 -10 496 -10 355.5 -10 c 128,-1,2
 215 -10 215 -10 132 83 c 128,-1,3
 49 176 49 176 49 332 c 128,-1,4
 49 488 49 488 132 580.5 c 128,-1,5
 215 673 215 673 355.5 673 c 128,-1,6
 496 673 496 673 579.5 580.5 c 128,-1,7
 663 488 663 488 663 332 c 128,-1,0
 663 176 663 176 579.5 83 c 128,-1,1
529 515 m 0,8,9
 504 559 504 559 459 585.5 c 128,-1,10
 414 612 414 612 356 612 c 0,11,12
 253 612 253 612 192 541.5 c 128,-1,13
 131 471 131 471 131 362 c 0,14,15
 131 243 131 243 181 151 c 0,16,17
 206 105 206 105 250.5 78 c 128,-1,18
 295 51 295 51 354 51 c 0,19,20
 462 51 462 51 520.5 123.5 c 128,-1,21
 579 196 579 196 579 311.5 c 128,-1,22
 579 427 579 427 529 515 c 0,8,9
480 727.5 m 128,-1,24
 464 712 464 712 443.5 712 c 128,-1,25
 423 712 423 712 408 727 c 128,-1,26
 393 742 393 742 393 765 c 128,-1,27
 393 788 393 788 409 803.5 c 128,-1,28
 425 819 425 819 445.5 819 c 128,-1,29
 466 819 466 819 481 803.5 c 128,-1,30
 496 788 496 788 496 765.5 c 128,-1,23
 496 743 496 743 480 727.5 c 128,-1,24
302 727.5 m 128,-1,32
 286 712 286 712 265.5 712 c 128,-1,33
 245 712 245 712 230 727 c 128,-1,34
 215 742 215 742 215 765 c 128,-1,35
 215 788 215 788 231 803.5 c 128,-1,36
 247 819 247 819 267.5 819 c 128,-1,37
 288 819 288 819 303 803.5 c 128,-1,38
 318 788 318 788 318 765.5 c 128,-1,31
 318 743 318 743 302 727.5 c 128,-1,32
EndSplineSet
EndChar

StartChar: multiply
Encoding: 215 215 150
Width: 535
GlyphClass: 2
Flags: W
LayerCount: 2
Fore
SplineSet
307 252 m 1,0,1
 417 142 417 142 473 97 c 1,2,3
 451 60 451 60 422 60 c 0,4,5
 409 60 409 60 397.5 71.5 c 128,-1,6
 386 83 386 83 334 139.5 c 128,-1,7
 282 196 282 196 266 212 c 1,8,9
 167 115 167 115 111 46 c 1,10,11
 73 72 73 72 73 97 c 0,12,13
 73 110 73 110 83 120 c 2,14,-1
 226 253 l 1,15,16
 101 373 101 373 61 408 c 1,17,18
 85 446 85 446 111 446 c 0,19,20
 124 446 124 446 132.5 437.5 c 128,-1,21
 141 429 141 429 162.5 405.5 c 128,-1,22
 184 382 184 382 215 349 c 128,-1,23
 246 316 246 316 267 293 c 1,24,25
 377 403 377 403 422 459 c 1,26,27
 436 451 436 451 447.5 437 c 128,-1,28
 459 423 459 423 459 409 c 128,-1,29
 459 395 459 395 447.5 383.5 c 128,-1,30
 436 372 436 372 379.5 320 c 128,-1,31
 323 268 323 268 307 252 c 1,0,1
EndSplineSet
EndChar

StartChar: Oslash
Encoding: 216 216 151
Width: 712
GlyphClass: 2
Flags: W
LayerCount: 2
Fore
SplineSet
579 313 m 0,0,1
 579 455 579 455 512 539 c 1,2,-1
 256 75 l 1,3,4
 298 51 298 51 354 51 c 0,5,6
 462 51 462 51 520.5 123.5 c 128,-1,7
 579 196 579 196 579 313 c 0,0,1
131 362 m 0,8,9
 131 194 131 194 213 108 c 1,10,-1
 472 577 l 1,11,12
 423 612 423 612 356 612 c 0,13,14
 253 612 253 612 192 541.5 c 128,-1,15
 131 471 131 471 131 362 c 0,8,9
135 -33 m 2,16,-1
 177 43 l 1,17,18
 49 133 49 133 49 331 c 0,19,20
 49 488 49 488 132 580.5 c 128,-1,21
 215 673 215 673 355 673 c 0,22,23
 438 673 438 673 504 639 c 1,24,25
 539 705 539 705 557 744 c 1,26,27
 574 743 574 743 588.5 734.5 c 128,-1,28
 603 726 603 726 603 715 c 128,-1,29
 603 704 603 704 597 693 c 2,30,-1
 550 608 l 1,31,32
 663 517 663 517 663 331 c 0,33,34
 663 176 663 176 579.5 83 c 128,-1,35
 496 -10 496 -10 355 -10 c 0,36,37
 284 -10 284 -10 225 15 c 1,38,39
 194 -43 194 -43 175 -84 c 1,40,41
 129 -78 129 -78 129 -52 c 0,42,43
 129 -45 129 -45 135 -33 c 2,16,-1
EndSplineSet
EndChar

StartChar: Ugrave
Encoding: 217 217 152
Width: 644
GlyphClass: 2
Flags: W
LayerCount: 2
Fore
SplineSet
209 899 m 1,0,1
 246 858 246 858 287 826.5 c 128,-1,2
 328 795 328 795 346 780.5 c 128,-1,3
 364 766 364 766 364 751 c 128,-1,4
 364 736 364 736 348 722 c 1,5,6
 320 743 320 743 271.5 770 c 128,-1,7
 223 797 223 797 198.5 815 c 128,-1,8
 174 833 174 833 174 856 c 128,-1,9
 174 879 174 879 209 899 c 1,0,1
80 192 m 1,10,-1
 89 501 l 1,11,12
 89 596 89 596 72 658 c 1,13,14
 92 666 92 666 119 666 c 128,-1,15
 146 666 146 666 159.5 654.5 c 128,-1,16
 173 643 173 643 173 607.5 c 128,-1,17
 173 572 173 572 165.5 425.5 c 128,-1,18
 158 279 158 279 158 203.5 c 128,-1,19
 158 128 158 128 198.5 91 c 128,-1,20
 239 54 239 54 290 54 c 128,-1,21
 341 54 341 54 395 78 c 128,-1,22
 449 102 449 102 483 134 c 1,23,-1
 484 262 l 1,24,-1
 484 431 l 2,25,26
 484 572 484 572 477 663 c 1,27,28
 494 666 494 666 518 666 c 0,29,30
 567 666 567 666 567 628 c 0,31,32
 567 626 567 626 565 591 c 0,33,34
 559 486 559 486 559 320 c 128,-1,35
 559 154 559 154 562 101.5 c 128,-1,36
 565 49 565 49 578 5 c 1,37,38
 560 -3 560 -3 531.5 -3 c 128,-1,39
 503 -3 503 -3 492.5 9.5 c 128,-1,40
 482 22 482 22 482 56 c 2,41,-1
 482 67 l 1,42,43
 442 33 442 33 386 11.5 c 128,-1,44
 330 -10 330 -10 283 -10 c 0,45,46
 189 -10 189 -10 134.5 34.5 c 128,-1,47
 80 79 80 79 80 192 c 1,10,-1
EndSplineSet
EndChar

StartChar: Uacute
Encoding: 218 218 153
Width: 644
GlyphClass: 2
Flags: W
LayerCount: 2
Fore
SplineSet
440 899 m 1,0,1
 475 879 475 879 475 856 c 128,-1,2
 475 833 475 833 451.5 816.5 c 128,-1,3
 428 800 428 800 370.5 766.5 c 128,-1,4
 313 733 313 733 300 721 c 1,5,6
 284 735 284 735 284 751 c 128,-1,7
 284 767 284 767 300 779.5 c 128,-1,8
 316 792 316 792 357.5 823 c 128,-1,9
 399 854 399 854 440 899 c 1,0,1
80 192 m 1,10,-1
 89 501 l 1,11,12
 89 596 89 596 72 658 c 1,13,14
 92 666 92 666 119 666 c 128,-1,15
 146 666 146 666 159.5 654.5 c 128,-1,16
 173 643 173 643 173 607.5 c 128,-1,17
 173 572 173 572 165.5 425.5 c 128,-1,18
 158 279 158 279 158 203.5 c 128,-1,19
 158 128 158 128 198.5 91 c 128,-1,20
 239 54 239 54 290 54 c 128,-1,21
 341 54 341 54 395 78 c 128,-1,22
 449 102 449 102 483 134 c 1,23,-1
 484 262 l 1,24,-1
 484 431 l 2,25,26
 484 572 484 572 477 663 c 1,27,28
 494 666 494 666 518 666 c 0,29,30
 567 666 567 666 567 628 c 0,31,32
 567 626 567 626 565 591 c 0,33,34
 559 486 559 486 559 320 c 128,-1,35
 559 154 559 154 562 101.5 c 128,-1,36
 565 49 565 49 578 5 c 1,37,38
 560 -3 560 -3 531.5 -3 c 128,-1,39
 503 -3 503 -3 492.5 9.5 c 128,-1,40
 482 22 482 22 482 56 c 2,41,-1
 482 67 l 1,42,43
 442 33 442 33 386 11.5 c 128,-1,44
 330 -10 330 -10 283 -10 c 0,45,46
 189 -10 189 -10 134.5 34.5 c 128,-1,47
 80 79 80 79 80 192 c 1,10,-1
EndSplineSet
EndChar

StartChar: Ucircumflex
Encoding: 219 219 154
Width: 644
GlyphClass: 2
Flags: W
LayerCount: 2
Fore
SplineSet
325 869 m 1,0,1
 372 839 372 839 413.5 801.5 c 128,-1,2
 455 764 455 764 455 741.5 c 128,-1,3
 455 719 455 719 432 709 c 1,4,5
 413 733 413 733 386 755.5 c 128,-1,6
 359 778 359 778 341 788 c 2,7,-1
 323 798 l 1,8,9
 317 793 317 793 304.5 782.5 c 128,-1,10
 292 772 292 772 284.5 766 c 128,-1,11
 277 760 277 760 266 751.5 c 128,-1,12
 255 743 255 743 247.5 737.5 c 128,-1,13
 240 732 240 732 232 727 c 0,14,15
 218 717 218 717 207.5 717 c 128,-1,16
 197 717 197 717 184 735 c 1,17,18
 248 812 248 812 325 869 c 1,0,1
80 192 m 1,19,-1
 89 501 l 1,20,21
 89 596 89 596 72 658 c 1,22,23
 92 666 92 666 119 666 c 128,-1,24
 146 666 146 666 159.5 654.5 c 128,-1,25
 173 643 173 643 173 607.5 c 128,-1,26
 173 572 173 572 165.5 425.5 c 128,-1,27
 158 279 158 279 158 203.5 c 128,-1,28
 158 128 158 128 198.5 91 c 128,-1,29
 239 54 239 54 290 54 c 128,-1,30
 341 54 341 54 395 78 c 128,-1,31
 449 102 449 102 483 134 c 1,32,-1
 484 262 l 1,33,-1
 484 431 l 2,34,35
 484 572 484 572 477 663 c 1,36,37
 494 666 494 666 518 666 c 0,38,39
 567 666 567 666 567 628 c 0,40,41
 567 626 567 626 565 591 c 0,42,43
 559 486 559 486 559 320 c 128,-1,44
 559 154 559 154 562 101.5 c 128,-1,45
 565 49 565 49 578 5 c 1,46,47
 560 -3 560 -3 531.5 -3 c 128,-1,48
 503 -3 503 -3 492.5 9.5 c 128,-1,49
 482 22 482 22 482 56 c 2,50,-1
 482 67 l 1,51,52
 442 33 442 33 386 11.5 c 128,-1,53
 330 -10 330 -10 283 -10 c 0,54,55
 189 -10 189 -10 134.5 34.5 c 128,-1,56
 80 79 80 79 80 192 c 1,19,-1
EndSplineSet
EndChar

StartChar: Udieresis
Encoding: 220 220 155
Width: 644
GlyphClass: 2
Flags: W
LayerCount: 2
Fore
SplineSet
80 192 m 1,0,-1
 89 501 l 1,1,2
 89 596 89 596 72 658 c 1,3,4
 92 666 92 666 119 666 c 128,-1,5
 146 666 146 666 159.5 654.5 c 128,-1,6
 173 643 173 643 173 607.5 c 128,-1,7
 173 572 173 572 165.5 425.5 c 128,-1,8
 158 279 158 279 158 203.5 c 128,-1,9
 158 128 158 128 198.5 91 c 128,-1,10
 239 54 239 54 290 54 c 128,-1,11
 341 54 341 54 395 78 c 128,-1,12
 449 102 449 102 483 134 c 1,13,-1
 484 262 l 1,14,-1
 484 431 l 2,15,16
 484 572 484 572 477 663 c 1,17,18
 494 666 494 666 518 666 c 0,19,20
 567 666 567 666 567 628 c 0,21,22
 567 626 567 626 565 591 c 0,23,24
 559 486 559 486 559 320 c 128,-1,25
 559 154 559 154 562 101.5 c 128,-1,26
 565 49 565 49 578 5 c 1,27,28
 560 -3 560 -3 531.5 -3 c 128,-1,29
 503 -3 503 -3 492.5 9.5 c 128,-1,30
 482 22 482 22 482 56 c 2,31,-1
 482 67 l 1,32,33
 442 33 442 33 386 11.5 c 128,-1,34
 330 -10 330 -10 283 -10 c 0,35,36
 189 -10 189 -10 134.5 34.5 c 128,-1,37
 80 79 80 79 80 192 c 1,0,-1
446 727.5 m 128,-1,39
 430 712 430 712 409.5 712 c 128,-1,40
 389 712 389 712 374 727 c 128,-1,41
 359 742 359 742 359 765 c 128,-1,42
 359 788 359 788 375 803.5 c 128,-1,43
 391 819 391 819 411.5 819 c 128,-1,44
 432 819 432 819 447 803.5 c 128,-1,45
 462 788 462 788 462 765.5 c 128,-1,38
 462 743 462 743 446 727.5 c 128,-1,39
268 727.5 m 128,-1,47
 252 712 252 712 231.5 712 c 128,-1,48
 211 712 211 712 196 727 c 128,-1,49
 181 742 181 742 181 765 c 128,-1,50
 181 788 181 788 197 803.5 c 128,-1,51
 213 819 213 819 233.5 819 c 128,-1,52
 254 819 254 819 269 803.5 c 128,-1,53
 284 788 284 788 284 765.5 c 128,-1,46
 284 743 284 743 268 727.5 c 128,-1,47
EndSplineSet
EndChar

StartChar: Yacute
Encoding: 221 221 156
Width: 501
GlyphClass: 2
Flags: W
LayerCount: 2
Fore
SplineSet
362 899 m 1,0,1
 397 879 397 879 397 856 c 128,-1,2
 397 833 397 833 373.5 816.5 c 128,-1,3
 350 800 350 800 292.5 766.5 c 128,-1,4
 235 733 235 733 222 721 c 1,5,6
 206 735 206 735 206 751 c 128,-1,7
 206 767 206 767 222 779.5 c 128,-1,8
 238 792 238 792 279.5 823 c 128,-1,9
 321 854 321 854 362 899 c 1,0,1
496 627 m 0,10,11
 496 602 496 602 420 485.5 c 128,-1,12
 344 369 344 369 287 301 c 1,13,-1
 287 216 l 2,14,15
 287 70 287 70 306 5 c 1,16,17
 288 -3 288 -3 259 -3 c 128,-1,18
 230 -3 230 -3 220 10 c 128,-1,19
 210 23 210 23 210 54 c 0,20,21
 211 146 211 146 212 232 c 1,22,-1
 212 294 l 1,23,24
 67 567 67 567 -10 619 c 1,25,26
 5 639 5 639 12 645 c 128,-1,27
 19 651 19 651 26 657 c 0,28,29
 38 667 38 667 53 667 c 0,30,31
 78 667 78 667 101 633 c 0,32,33
 161 546 161 546 261 361 c 1,34,35
 309 424 309 424 363.5 529.5 c 128,-1,36
 418 635 418 635 420 672 c 1,37,38
 496 667 496 667 496 627 c 0,10,11
EndSplineSet
EndChar

StartChar: Thorn
Encoding: 222 222 157
Width: 512
GlyphClass: 2
Flags: W
LayerCount: 2
Fore
SplineSet
148 214 m 1,0,1
 192 189 192 189 254 189 c 128,-1,2
 316 189 316 189 354.5 228.5 c 128,-1,3
 393 268 393 268 393 335 c 0,4,5
 393 427 393 427 350 462 c 128,-1,6
 307 497 307 497 216 497 c 0,7,8
 193 497 193 497 149 493 c 1,9,10
 148 465 148 465 148 338 c 2,11,-1
 148 214 l 1,0,1
71 54 m 2,12,-1
 73 231 l 1,13,-1
 73 431 l 2,14,15
 73 572 73 572 66 663 c 1,16,17
 83 666 83 666 107 666 c 0,18,19
 156 666 156 666 156 628 c 0,20,21
 156 611 156 611 152 555 c 1,22,23
 184 558 184 558 209 558 c 0,24,25
 477 558 477 558 477 342 c 0,26,27
 477 238 477 238 414.5 183 c 128,-1,28
 352 128 352 128 274.5 128 c 128,-1,29
 197 128 197 128 148 160 c 1,30,31
 148 67 148 67 167 5 c 1,32,33
 149 -3 149 -3 120 -3 c 128,-1,34
 91 -3 91 -3 81 10 c 128,-1,35
 71 23 71 23 71 54 c 2,12,-1
EndSplineSet
EndChar

StartChar: germandbls
Encoding: 223 223 158
Width: 520
GlyphClass: 2
Flags: W
LayerCount: 2
Fore
SplineSet
151 196 m 1,0,-1
 152 49 l 2,1,2
 152 21 152 21 141.5 9 c 128,-1,3
 131 -3 131 -3 107 -3 c 128,-1,4
 83 -3 83 -3 65 5 c 1,5,6
 85 72 85 72 85 202 c 2,7,-1
 85 464 l 2,8,9
 85 567 85 567 136.5 620 c 128,-1,10
 188 673 188 673 252.5 673 c 128,-1,11
 317 673 317 673 357 644 c 128,-1,12
 397 615 397 615 397 563 c 0,13,14
 397 492 397 492 352 454 c 0,15,16
 334 438 334 438 315 426 c 0,17,18
 270 398 270 398 270 368 c 0,19,20
 270 333 270 333 342 288 c 0,21,22
 372 270 372 270 402.5 249.5 c 128,-1,23
 433 229 433 229 454 197 c 128,-1,24
 475 165 475 165 475 127 c 0,25,26
 475 73 475 73 434 31.5 c 128,-1,27
 393 -10 393 -10 340.5 -10 c 128,-1,28
 288 -10 288 -10 252.5 13 c 128,-1,29
 217 36 217 36 217 70 c 0,30,31
 217 99 217 99 262 112 c 1,32,33
 268 80 268 80 291.5 63 c 128,-1,34
 315 46 315 46 341 46 c 128,-1,35
 367 46 367 46 386 66.5 c 128,-1,36
 405 87 405 87 405 116.5 c 128,-1,37
 405 146 405 146 385 171.5 c 128,-1,38
 365 197 365 197 336.5 216 c 128,-1,39
 308 235 308 235 279 254 c 0,40,41
 210 301 210 301 210 364 c 0,42,43
 210 390 210 390 228.5 412.5 c 128,-1,44
 247 435 247 435 268.5 449.5 c 128,-1,45
 290 464 290 464 308.5 489 c 128,-1,46
 327 514 327 514 327 546 c 128,-1,47
 327 578 327 578 306.5 597.5 c 128,-1,48
 286 617 286 617 248.5 617 c 128,-1,49
 211 617 211 617 181 585.5 c 128,-1,50
 151 554 151 554 151 491 c 2,51,-1
 151 196 l 1,0,-1
EndSplineSet
EndChar

StartChar: agrave
Encoding: 224 224 159
Width: 464
GlyphClass: 2
Flags: W
LayerCount: 2
Fore
SplineSet
119 702 m 1,0,1
 156 661 156 661 197 629.5 c 128,-1,2
 238 598 238 598 256 583.5 c 128,-1,3
 274 569 274 569 274 554 c 128,-1,4
 274 539 274 539 258 525 c 1,5,6
 230 546 230 546 181.5 573 c 128,-1,7
 133 600 133 600 108.5 618 c 128,-1,8
 84 636 84 636 84 659 c 128,-1,9
 84 682 84 682 119 702 c 1,0,1
392 312 m 1,10,-1
 390 177 l 1,11,12
 390 62 390 62 409 5 c 1,13,14
 393 -3 393 -3 370.5 -3 c 128,-1,15
 348 -3 348 -3 339 7.5 c 128,-1,16
 330 18 330 18 327 41 c 1,17,18
 265 -10 265 -10 199 -10 c 0,19,20
 45 -10 45 -10 45 131 c 0,21,22
 45 182 45 182 69 206 c 128,-1,23
 93 230 93 230 135 242 c 0,24,25
 210 262 210 262 325 269 c 1,26,27
 325 354 325 354 304 386.5 c 128,-1,28
 283 419 283 419 215 419 c 0,29,30
 187 419 187 419 157 401 c 128,-1,31
 127 383 127 383 112 349 c 1,32,33
 66 358 66 358 66 389 c 0,34,35
 66 428 66 428 114 451.5 c 128,-1,36
 162 475 162 475 237 475 c 128,-1,37
 312 475 312 475 352 439.5 c 128,-1,38
 392 404 392 404 392 312 c 1,10,-1
324 218 m 1,39,40
 295 215 295 215 280.5 213 c 128,-1,41
 266 211 266 211 241.5 208 c 128,-1,42
 217 205 217 205 205 202 c 128,-1,43
 193 199 193 199 175.5 194 c 128,-1,44
 158 189 158 189 149.5 183 c 128,-1,45
 141 177 141 177 132 170 c 0,46,47
 115 156 115 156 115 131 c 0,48,49
 115 86 115 86 141 64.5 c 128,-1,50
 167 43 167 43 207 43 c 0,51,52
 275 43 275 43 322 88 c 1,53,54
 321 102 321 102 321 139 c 128,-1,55
 321 176 321 176 324 218 c 1,39,40
EndSplineSet
EndChar

StartChar: aacute
Encoding: 225 225 160
Width: 464
GlyphClass: 2
Flags: W
LayerCount: 2
Fore
SplineSet
350 702 m 1,0,1
 385 682 385 682 385 659 c 128,-1,2
 385 636 385 636 361.5 619.5 c 128,-1,3
 338 603 338 603 280.5 569.5 c 128,-1,4
 223 536 223 536 210 524 c 1,5,6
 194 538 194 538 194 554 c 128,-1,7
 194 570 194 570 210 582.5 c 128,-1,8
 226 595 226 595 267.5 626 c 128,-1,9
 309 657 309 657 350 702 c 1,0,1
392 312 m 1,10,-1
 390 177 l 1,11,12
 390 62 390 62 409 5 c 1,13,14
 393 -3 393 -3 370.5 -3 c 128,-1,15
 348 -3 348 -3 339 7.5 c 128,-1,16
 330 18 330 18 327 41 c 1,17,18
 265 -10 265 -10 199 -10 c 0,19,20
 45 -10 45 -10 45 131 c 0,21,22
 45 182 45 182 69 206 c 128,-1,23
 93 230 93 230 135 242 c 0,24,25
 210 262 210 262 325 269 c 1,26,27
 325 354 325 354 304 386.5 c 128,-1,28
 283 419 283 419 215 419 c 0,29,30
 187 419 187 419 157 401 c 128,-1,31
 127 383 127 383 112 349 c 1,32,33
 66 358 66 358 66 389 c 0,34,35
 66 428 66 428 114 451.5 c 128,-1,36
 162 475 162 475 237 475 c 128,-1,37
 312 475 312 475 352 439.5 c 128,-1,38
 392 404 392 404 392 312 c 1,10,-1
324 218 m 1,39,40
 295 215 295 215 280.5 213 c 128,-1,41
 266 211 266 211 241.5 208 c 128,-1,42
 217 205 217 205 205 202 c 128,-1,43
 193 199 193 199 175.5 194 c 128,-1,44
 158 189 158 189 149.5 183 c 128,-1,45
 141 177 141 177 132 170 c 0,46,47
 115 156 115 156 115 131 c 0,48,49
 115 86 115 86 141 64.5 c 128,-1,50
 167 43 167 43 207 43 c 0,51,52
 275 43 275 43 322 88 c 1,53,54
 321 102 321 102 321 139 c 128,-1,55
 321 176 321 176 324 218 c 1,39,40
EndSplineSet
EndChar

StartChar: acircumflex
Encoding: 226 226 161
Width: 464
GlyphClass: 2
Flags: W
LayerCount: 2
Fore
SplineSet
235 679 m 1,0,1
 282 649 282 649 323.5 611.5 c 128,-1,2
 365 574 365 574 365 551.5 c 128,-1,3
 365 529 365 529 342 519 c 1,4,5
 323 543 323 543 296 565.5 c 128,-1,6
 269 588 269 588 251 598 c 2,7,-1
 233 608 l 1,8,9
 227 603 227 603 214.5 592.5 c 128,-1,10
 202 582 202 582 194.5 576 c 128,-1,11
 187 570 187 570 176 561.5 c 128,-1,12
 165 553 165 553 157.5 547.5 c 128,-1,13
 150 542 150 542 142 537 c 0,14,15
 128 527 128 527 117.5 527 c 128,-1,16
 107 527 107 527 94 545 c 1,17,18
 158 622 158 622 235 679 c 1,0,1
392 312 m 1,19,-1
 390 177 l 1,20,21
 390 62 390 62 409 5 c 1,22,23
 393 -3 393 -3 370.5 -3 c 128,-1,24
 348 -3 348 -3 339 7.5 c 128,-1,25
 330 18 330 18 327 41 c 1,26,27
 265 -10 265 -10 199 -10 c 0,28,29
 45 -10 45 -10 45 131 c 0,30,31
 45 182 45 182 69 206 c 128,-1,32
 93 230 93 230 135 242 c 0,33,34
 210 262 210 262 325 269 c 1,35,36
 325 354 325 354 304 386.5 c 128,-1,37
 283 419 283 419 215 419 c 0,38,39
 187 419 187 419 157 401 c 128,-1,40
 127 383 127 383 112 349 c 1,41,42
 66 358 66 358 66 389 c 0,43,44
 66 428 66 428 114 451.5 c 128,-1,45
 162 475 162 475 237 475 c 128,-1,46
 312 475 312 475 352 439.5 c 128,-1,47
 392 404 392 404 392 312 c 1,19,-1
324 218 m 1,48,49
 295 215 295 215 280.5 213 c 128,-1,50
 266 211 266 211 241.5 208 c 128,-1,51
 217 205 217 205 205 202 c 128,-1,52
 193 199 193 199 175.5 194 c 128,-1,53
 158 189 158 189 149.5 183 c 128,-1,54
 141 177 141 177 132 170 c 0,55,56
 115 156 115 156 115 131 c 0,57,58
 115 86 115 86 141 64.5 c 128,-1,59
 167 43 167 43 207 43 c 0,60,61
 275 43 275 43 322 88 c 1,62,63
 321 102 321 102 321 139 c 128,-1,64
 321 176 321 176 324 218 c 1,48,49
EndSplineSet
EndChar

StartChar: atilde
Encoding: 227 227 162
Width: 464
GlyphClass: 2
Flags: W
LayerCount: 2
Fore
SplineSet
377 620 m 0,0,1
 377 592 377 592 346 566 c 128,-1,2
 315 540 315 540 287 540 c 128,-1,3
 259 540 259 540 221.5 562.5 c 128,-1,4
 184 585 184 585 166 585 c 128,-1,5
 148 585 148 585 107 543 c 1,6,7
 91 550 91 550 91 564 c 0,8,9
 91 591 91 591 122.5 617.5 c 128,-1,10
 154 644 154 644 189 644 c 0,11,12
 207 644 207 644 246 621.5 c 128,-1,13
 285 599 285 599 305 599 c 128,-1,14
 325 599 325 599 361 641 c 1,15,16
 377 635 377 635 377 620 c 0,0,1
392 312 m 1,17,-1
 390 177 l 1,18,19
 390 62 390 62 409 5 c 1,20,21
 393 -3 393 -3 370.5 -3 c 128,-1,22
 348 -3 348 -3 339 7.5 c 128,-1,23
 330 18 330 18 327 41 c 1,24,25
 265 -10 265 -10 199 -10 c 0,26,27
 45 -10 45 -10 45 131 c 0,28,29
 45 182 45 182 69 206 c 128,-1,30
 93 230 93 230 135 242 c 0,31,32
 210 262 210 262 325 269 c 1,33,34
 325 354 325 354 304 386.5 c 128,-1,35
 283 419 283 419 215 419 c 0,36,37
 187 419 187 419 157 401 c 128,-1,38
 127 383 127 383 112 349 c 1,39,40
 66 358 66 358 66 389 c 0,41,42
 66 428 66 428 114 451.5 c 128,-1,43
 162 475 162 475 237 475 c 128,-1,44
 312 475 312 475 352 439.5 c 128,-1,45
 392 404 392 404 392 312 c 1,17,-1
324 218 m 1,46,47
 295 215 295 215 280.5 213 c 128,-1,48
 266 211 266 211 241.5 208 c 128,-1,49
 217 205 217 205 205 202 c 128,-1,50
 193 199 193 199 175.5 194 c 128,-1,51
 158 189 158 189 149.5 183 c 128,-1,52
 141 177 141 177 132 170 c 0,53,54
 115 156 115 156 115 131 c 0,55,56
 115 86 115 86 141 64.5 c 128,-1,57
 167 43 167 43 207 43 c 0,58,59
 275 43 275 43 322 88 c 1,60,61
 321 102 321 102 321 139 c 128,-1,62
 321 176 321 176 324 218 c 1,46,47
EndSplineSet
EndChar

StartChar: adieresis
Encoding: 228 228 163
Width: 464
GlyphClass: 2
Flags: W
LayerCount: 2
Fore
SplineSet
392 312 m 1,0,-1
 390 177 l 1,1,2
 390 62 390 62 409 5 c 1,3,4
 393 -3 393 -3 370.5 -3 c 128,-1,5
 348 -3 348 -3 339 7.5 c 128,-1,6
 330 18 330 18 327 41 c 1,7,8
 265 -10 265 -10 199 -10 c 0,9,10
 45 -10 45 -10 45 131 c 0,11,12
 45 182 45 182 69 206 c 128,-1,13
 93 230 93 230 135 242 c 0,14,15
 210 262 210 262 325 269 c 1,16,17
 325 354 325 354 304 386.5 c 128,-1,18
 283 419 283 419 215 419 c 0,19,20
 187 419 187 419 157 401 c 128,-1,21
 127 383 127 383 112 349 c 1,22,23
 66 358 66 358 66 389 c 0,24,25
 66 428 66 428 114 451.5 c 128,-1,26
 162 475 162 475 237 475 c 128,-1,27
 312 475 312 475 352 439.5 c 128,-1,28
 392 404 392 404 392 312 c 1,0,-1
324 218 m 1,29,30
 295 215 295 215 280.5 213 c 128,-1,31
 266 211 266 211 241.5 208 c 128,-1,32
 217 205 217 205 205 202 c 128,-1,33
 193 199 193 199 175.5 194 c 128,-1,34
 158 189 158 189 149.5 183 c 128,-1,35
 141 177 141 177 132 170 c 0,36,37
 115 156 115 156 115 131 c 0,38,39
 115 86 115 86 141 64.5 c 128,-1,40
 167 43 167 43 207 43 c 0,41,42
 275 43 275 43 322 88 c 1,43,44
 321 102 321 102 321 139 c 128,-1,45
 321 176 321 176 324 218 c 1,29,30
356 536.5 m 128,-1,47
 340 521 340 521 319.5 521 c 128,-1,48
 299 521 299 521 284 536 c 128,-1,49
 269 551 269 551 269 574 c 128,-1,50
 269 597 269 597 285 612.5 c 128,-1,51
 301 628 301 628 321.5 628 c 128,-1,52
 342 628 342 628 357 612.5 c 128,-1,53
 372 597 372 597 372 574.5 c 128,-1,46
 372 552 372 552 356 536.5 c 128,-1,47
178 536.5 m 128,-1,55
 162 521 162 521 141.5 521 c 128,-1,56
 121 521 121 521 106 536 c 128,-1,57
 91 551 91 551 91 574 c 128,-1,58
 91 597 91 597 107 612.5 c 128,-1,59
 123 628 123 628 143.5 628 c 128,-1,60
 164 628 164 628 179 612.5 c 128,-1,61
 194 597 194 597 194 574.5 c 128,-1,54
 194 552 194 552 178 536.5 c 128,-1,55
EndSplineSet
EndChar

StartChar: aring
Encoding: 229 229 164
Width: 464
GlyphClass: 2
Flags: W
LayerCount: 2
Fore
SplineSet
298 544.5 m 128,-1,1
 274 520 274 520 234.5 520 c 128,-1,2
 195 520 195 520 170.5 544.5 c 128,-1,3
 146 569 146 569 146 609 c 128,-1,4
 146 649 146 649 170.5 673.5 c 128,-1,5
 195 698 195 698 234.5 698 c 128,-1,6
 274 698 274 698 298 673.5 c 128,-1,7
 322 649 322 649 322 609 c 128,-1,0
 322 569 322 569 298 544.5 c 128,-1,1
268 566.5 m 128,-1,9
 280 580 280 580 280 605.5 c 128,-1,10
 280 631 280 631 268 648 c 128,-1,11
 256 665 256 665 234.5 665 c 128,-1,12
 213 665 213 665 200.5 651 c 128,-1,13
 188 637 188 637 188 612 c 128,-1,14
 188 587 188 587 200.5 570 c 128,-1,15
 213 553 213 553 234.5 553 c 128,-1,8
 256 553 256 553 268 566.5 c 128,-1,9
392 312 m 1,16,-1
 390 177 l 1,17,18
 390 62 390 62 409 5 c 1,19,20
 393 -3 393 -3 370.5 -3 c 128,-1,21
 348 -3 348 -3 339 7.5 c 128,-1,22
 330 18 330 18 327 41 c 1,23,24
 265 -10 265 -10 199 -10 c 0,25,26
 45 -10 45 -10 45 131 c 0,27,28
 45 182 45 182 69 206 c 128,-1,29
 93 230 93 230 135 242 c 0,30,31
 210 262 210 262 325 269 c 1,32,33
 325 354 325 354 304 386.5 c 128,-1,34
 283 419 283 419 215 419 c 0,35,36
 187 419 187 419 157 401 c 128,-1,37
 127 383 127 383 112 349 c 1,38,39
 66 358 66 358 66 389 c 0,40,41
 66 428 66 428 114 451.5 c 128,-1,42
 162 475 162 475 237 475 c 128,-1,43
 312 475 312 475 352 439.5 c 128,-1,44
 392 404 392 404 392 312 c 1,16,-1
324 218 m 1,45,46
 295 215 295 215 280.5 213 c 128,-1,47
 266 211 266 211 241.5 208 c 128,-1,48
 217 205 217 205 205 202 c 128,-1,49
 193 199 193 199 175.5 194 c 128,-1,50
 158 189 158 189 149.5 183 c 128,-1,51
 141 177 141 177 132 170 c 0,52,53
 115 156 115 156 115 131 c 0,54,55
 115 86 115 86 141 64.5 c 128,-1,56
 167 43 167 43 207 43 c 0,57,58
 275 43 275 43 322 88 c 1,59,60
 321 102 321 102 321 139 c 128,-1,61
 321 176 321 176 324 218 c 1,45,46
EndSplineSet
EndChar

StartChar: ae
Encoding: 230 230 165
Width: 749
GlyphClass: 2
Flags: W
LayerCount: 2
Fore
SplineSet
207 43 m 0,0,1
 285 43 285 43 348 109 c 1,2,3
 325 157 325 157 324 218 c 1,4,5
 161 203 161 203 130 170 c 0,6,7
 115 154 115 154 115 131 c 0,8,9
 115 86 115 86 141 64.5 c 128,-1,10
 167 43 167 43 207 43 c 0,0,1
543 420 m 0,11,12
 484 420 484 420 441.5 379 c 128,-1,13
 399 338 399 338 397 252 c 1,14,15
 540 252 540 252 587 273 c 0,16,17
 635 295 635 295 635 341 c 0,18,19
 635 373 635 373 608.5 396.5 c 128,-1,20
 582 420 582 420 543 420 c 0,11,12
547 475 m 0,21,22
 617 475 617 475 660.5 435.5 c 128,-1,23
 704 396 704 396 704 350 c 128,-1,24
 704 304 704 304 690 278 c 128,-1,25
 676 252 676 252 653.5 237 c 128,-1,26
 631 222 631 222 588 214 c 0,27,28
 525 202 525 202 397 202 c 1,29,30
 405 133 405 133 447.5 89.5 c 128,-1,31
 490 46 490 46 556.5 46 c 128,-1,32
 623 46 623 46 660 94 c 1,33,34
 691 76 691 76 691 50 c 128,-1,35
 691 24 691 24 649 7 c 128,-1,36
 607 -10 607 -10 553 -10 c 0,37,38
 432 -10 432 -10 370 73 c 1,39,40
 337 31 337 31 289.5 10.5 c 128,-1,41
 242 -10 242 -10 199 -10 c 0,42,43
 45 -10 45 -10 45 131 c 0,44,45
 45 182 45 182 69 206 c 128,-1,46
 93 230 93 230 135 242 c 0,47,48
 210 262 210 262 325 269 c 1,49,50
 325 354 325 354 304 386.5 c 128,-1,51
 283 419 283 419 215 419 c 0,52,53
 187 419 187 419 157 401 c 128,-1,54
 127 383 127 383 112 349 c 1,55,56
 66 358 66 358 66 389 c 0,57,58
 66 428 66 428 114 451.5 c 128,-1,59
 162 475 162 475 226 475 c 0,60,61
 346 475 346 475 377 397 c 1,62,63
 442 475 442 475 547 475 c 0,21,22
EndSplineSet
EndChar

StartChar: ccedilla
Encoding: 231 231 166
Width: 446
GlyphClass: 2
Flags: W
LayerCount: 2
Fore
SplineSet
161 93.5 m 128,-1,1
 206 46 206 46 271.5 46 c 128,-1,2
 337 46 337 46 375 94 c 1,3,4
 406 76 406 76 406 50 c 128,-1,5
 406 24 406 24 364 7 c 128,-1,6
 322 -10 322 -10 268 -10 c 2,7,-1
 261 -10 l 1,8,9
 257 -26 257 -26 257 -29.5 c 128,-1,10
 257 -33 257 -33 257.5 -36 c 128,-1,11
 258 -39 258 -39 260 -41 c 128,-1,12
 262 -43 262 -43 263 -45 c 128,-1,13
 264 -47 264 -47 267.5 -49.5 c 128,-1,14
 271 -52 271 -52 272 -53 c 0,15,16
 280 -58 280 -58 284 -60 c 0,17,18
 331 -87 331 -87 331 -129 c 128,-1,19
 331 -171 331 -171 296.5 -201.5 c 128,-1,20
 262 -232 262 -232 211 -232 c 0,21,22
 176 -232 176 -232 176 -207 c 0,23,24
 176 -191 176 -191 189 -178 c 1,25,26
 204 -187 204 -187 220 -187 c 0,27,28
 270 -187 270 -187 270 -147 c 0,29,30
 270 -124 270 -124 239.5 -98.5 c 128,-1,31
 209 -73 209 -73 209 -55.5 c 128,-1,32
 209 -38 209 -38 221 -5 c 1,33,34
 144 9 144 9 94.5 67 c 128,-1,35
 45 125 45 125 45 227 c 0,36,37
 45 290 45 290 65 339.5 c 128,-1,38
 85 389 85 389 118 418 c 0,39,40
 185 475 185 475 265 475 c 0,41,42
 313 475 313 475 360 452 c 128,-1,43
 407 429 407 429 407 390 c 128,-1,44
 407 351 407 351 361 344 c 1,45,46
 350 380 350 380 317 399.5 c 128,-1,47
 284 419 284 419 249 419 c 0,48,49
 193 419 193 419 154.5 369.5 c 128,-1,50
 116 320 116 320 116 230.5 c 128,-1,0
 116 141 116 141 161 93.5 c 128,-1,1
EndSplineSet
EndChar

StartChar: egrave
Encoding: 232 232 167
Width: 470
GlyphClass: 2
Flags: W
LayerCount: 2
Fore
SplineSet
159 702 m 1,0,1
 196 661 196 661 237 629.5 c 128,-1,2
 278 598 278 598 296 583.5 c 128,-1,3
 314 569 314 569 314 554 c 128,-1,4
 314 539 314 539 298 525 c 1,5,6
 270 546 270 546 221.5 573 c 128,-1,7
 173 600 173 600 148.5 618 c 128,-1,8
 124 636 124 636 124 659 c 128,-1,9
 124 682 124 682 159 702 c 1,0,1
268 475 m 0,10,11
 338 475 338 475 381.5 435.5 c 128,-1,12
 425 396 425 396 425 350 c 128,-1,13
 425 304 425 304 411 278 c 128,-1,14
 397 252 397 252 374.5 237 c 128,-1,15
 352 222 352 222 310 214 c 0,16,17
 246 202 246 202 118 202 c 1,18,19
 126 130 126 130 161.5 88 c 128,-1,20
 197 46 197 46 267 46 c 128,-1,21
 337 46 337 46 366 98 c 1,22,23
 406 82 406 82 406 54 c 128,-1,24
 406 26 406 26 360.5 8 c 128,-1,25
 315 -10 315 -10 259 -10 c 0,26,27
 165 -10 165 -10 105 49.5 c 128,-1,28
 45 109 45 109 45 228.5 c 128,-1,29
 45 348 45 348 111.5 411.5 c 128,-1,30
 178 475 178 475 268 475 c 0,10,11
264 420 m 0,31,32
 204 420 204 420 161.5 379 c 128,-1,33
 119 338 119 338 117 252 c 1,34,35
 260 252 260 252 307 273 c 0,36,37
 327 282 327 282 341.5 299 c 128,-1,38
 356 316 356 316 356 344.5 c 128,-1,39
 356 373 356 373 329.5 396.5 c 128,-1,40
 303 420 303 420 264 420 c 0,31,32
EndSplineSet
EndChar

StartChar: eacute
Encoding: 233 233 168
Width: 470
GlyphClass: 2
Flags: W
LayerCount: 2
Fore
SplineSet
360 702 m 1,0,1
 395 682 395 682 395 659 c 128,-1,2
 395 636 395 636 371.5 619.5 c 128,-1,3
 348 603 348 603 290.5 569.5 c 128,-1,4
 233 536 233 536 220 524 c 1,5,6
 204 538 204 538 204 554 c 128,-1,7
 204 570 204 570 220 582.5 c 128,-1,8
 236 595 236 595 277.5 626 c 128,-1,9
 319 657 319 657 360 702 c 1,0,1
268 475 m 0,10,11
 338 475 338 475 381.5 435.5 c 128,-1,12
 425 396 425 396 425 350 c 128,-1,13
 425 304 425 304 411 278 c 128,-1,14
 397 252 397 252 374.5 237 c 128,-1,15
 352 222 352 222 310 214 c 0,16,17
 246 202 246 202 118 202 c 1,18,19
 126 130 126 130 161.5 88 c 128,-1,20
 197 46 197 46 267 46 c 128,-1,21
 337 46 337 46 366 98 c 1,22,23
 406 82 406 82 406 54 c 128,-1,24
 406 26 406 26 360.5 8 c 128,-1,25
 315 -10 315 -10 259 -10 c 0,26,27
 165 -10 165 -10 105 49.5 c 128,-1,28
 45 109 45 109 45 228.5 c 128,-1,29
 45 348 45 348 111.5 411.5 c 128,-1,30
 178 475 178 475 268 475 c 0,10,11
264 420 m 0,31,32
 204 420 204 420 161.5 379 c 128,-1,33
 119 338 119 338 117 252 c 1,34,35
 260 252 260 252 307 273 c 0,36,37
 327 282 327 282 341.5 299 c 128,-1,38
 356 316 356 316 356 344.5 c 128,-1,39
 356 373 356 373 329.5 396.5 c 128,-1,40
 303 420 303 420 264 420 c 0,31,32
EndSplineSet
EndChar

StartChar: ecircumflex
Encoding: 234 234 169
Width: 470
GlyphClass: 2
Flags: W
LayerCount: 2
Fore
SplineSet
265 679 m 1,0,1
 312 649 312 649 353.5 611.5 c 128,-1,2
 395 574 395 574 395 551.5 c 128,-1,3
 395 529 395 529 372 519 c 1,4,5
 353 543 353 543 326 565.5 c 128,-1,6
 299 588 299 588 281 598 c 2,7,-1
 263 608 l 1,8,9
 257 603 257 603 244.5 592.5 c 128,-1,10
 232 582 232 582 224.5 576 c 128,-1,11
 217 570 217 570 206 561.5 c 128,-1,12
 195 553 195 553 187.5 547.5 c 128,-1,13
 180 542 180 542 172 537 c 0,14,15
 158 527 158 527 147.5 527 c 128,-1,16
 137 527 137 527 124 545 c 1,17,18
 188 622 188 622 265 679 c 1,0,1
268 475 m 0,19,20
 338 475 338 475 381.5 435.5 c 128,-1,21
 425 396 425 396 425 350 c 128,-1,22
 425 304 425 304 411 278 c 128,-1,23
 397 252 397 252 374.5 237 c 128,-1,24
 352 222 352 222 310 214 c 0,25,26
 246 202 246 202 118 202 c 1,27,28
 126 130 126 130 161.5 88 c 128,-1,29
 197 46 197 46 267 46 c 128,-1,30
 337 46 337 46 366 98 c 1,31,32
 406 82 406 82 406 54 c 128,-1,33
 406 26 406 26 360.5 8 c 128,-1,34
 315 -10 315 -10 259 -10 c 0,35,36
 165 -10 165 -10 105 49.5 c 128,-1,37
 45 109 45 109 45 228.5 c 128,-1,38
 45 348 45 348 111.5 411.5 c 128,-1,39
 178 475 178 475 268 475 c 0,19,20
264 420 m 0,40,41
 204 420 204 420 161.5 379 c 128,-1,42
 119 338 119 338 117 252 c 1,43,44
 260 252 260 252 307 273 c 0,45,46
 327 282 327 282 341.5 299 c 128,-1,47
 356 316 356 316 356 344.5 c 128,-1,48
 356 373 356 373 329.5 396.5 c 128,-1,49
 303 420 303 420 264 420 c 0,40,41
EndSplineSet
EndChar

StartChar: edieresis
Encoding: 235 235 170
Width: 470
GlyphClass: 2
Flags: W
LayerCount: 2
Fore
SplineSet
268 475 m 0,0,1
 338 475 338 475 381.5 435.5 c 128,-1,2
 425 396 425 396 425 350 c 128,-1,3
 425 304 425 304 411 278 c 128,-1,4
 397 252 397 252 374.5 237 c 128,-1,5
 352 222 352 222 310 214 c 0,6,7
 246 202 246 202 118 202 c 1,8,9
 126 130 126 130 161.5 88 c 128,-1,10
 197 46 197 46 267 46 c 128,-1,11
 337 46 337 46 366 98 c 1,12,13
 406 82 406 82 406 54 c 128,-1,14
 406 26 406 26 360.5 8 c 128,-1,15
 315 -10 315 -10 259 -10 c 0,16,17
 165 -10 165 -10 105 49.5 c 128,-1,18
 45 109 45 109 45 228.5 c 128,-1,19
 45 348 45 348 111.5 411.5 c 128,-1,20
 178 475 178 475 268 475 c 0,0,1
264 420 m 0,21,22
 204 420 204 420 161.5 379 c 128,-1,23
 119 338 119 338 117 252 c 1,24,25
 260 252 260 252 307 273 c 0,26,27
 327 282 327 282 341.5 299 c 128,-1,28
 356 316 356 316 356 344.5 c 128,-1,29
 356 373 356 373 329.5 396.5 c 128,-1,30
 303 420 303 420 264 420 c 0,21,22
387 536.5 m 128,-1,32
 371 521 371 521 350.5 521 c 128,-1,33
 330 521 330 521 315 536 c 128,-1,34
 300 551 300 551 300 574 c 128,-1,35
 300 597 300 597 316 612.5 c 128,-1,36
 332 628 332 628 352.5 628 c 128,-1,37
 373 628 373 628 388 612.5 c 128,-1,38
 403 597 403 597 403 574.5 c 128,-1,31
 403 552 403 552 387 536.5 c 128,-1,32
209 536.5 m 128,-1,40
 193 521 193 521 172.5 521 c 128,-1,41
 152 521 152 521 137 536 c 128,-1,42
 122 551 122 551 122 574 c 128,-1,43
 122 597 122 597 138 612.5 c 128,-1,44
 154 628 154 628 174.5 628 c 128,-1,45
 195 628 195 628 210 612.5 c 128,-1,46
 225 597 225 597 225 574.5 c 128,-1,39
 225 552 225 552 209 536.5 c 128,-1,40
EndSplineSet
EndChar

StartChar: igrave
Encoding: 236 236 171
Width: 213
GlyphClass: 2
Flags: W
LayerCount: 2
Fore
SplineSet
11 702 m 1,0,1
 48 661 48 661 89 629.5 c 128,-1,2
 130 598 130 598 148 583.5 c 128,-1,3
 166 569 166 569 166 554 c 128,-1,4
 166 539 166 539 150 525 c 1,5,6
 122 546 122 546 73.5 573 c 128,-1,7
 25 600 25 600 0.5 618 c 128,-1,8
 -24 636 -24 636 -24 659 c 128,-1,9
 -24 682 -24 682 11 702 c 1,0,1
71 54 m 2,10,-1
 73 231 l 1,11,12
 73 374 73 374 66 465 c 1,13,14
 82 468 82 468 100 468 c 0,15,16
 147 468 147 468 147 430 c 0,17,18
 147 425 147 425 145 390 c 0,19,20
 139 283 139 283 139 175.5 c 128,-1,21
 139 68 139 68 158 5 c 1,22,23
 140 -3 140 -3 115.5 -3 c 128,-1,24
 91 -3 91 -3 81 10 c 128,-1,25
 71 23 71 23 71 54 c 2,10,-1
EndSplineSet
EndChar

StartChar: iacute
Encoding: 237 237 172
Width: 213
GlyphClass: 2
Flags: W
LayerCount: 2
Fore
SplineSet
192 702 m 1,0,1
 227 682 227 682 227 659 c 128,-1,2
 227 636 227 636 203.5 619.5 c 128,-1,3
 180 603 180 603 122.5 569.5 c 128,-1,4
 65 536 65 536 52 524 c 1,5,6
 36 538 36 538 36 554 c 128,-1,7
 36 570 36 570 52 582.5 c 128,-1,8
 68 595 68 595 109.5 626 c 128,-1,9
 151 657 151 657 192 702 c 1,0,1
71 54 m 2,10,-1
 73 231 l 1,11,12
 73 374 73 374 66 465 c 1,13,14
 82 468 82 468 100 468 c 0,15,16
 147 468 147 468 147 430 c 0,17,18
 147 425 147 425 145 390 c 0,19,20
 139 283 139 283 139 175.5 c 128,-1,21
 139 68 139 68 158 5 c 1,22,23
 140 -3 140 -3 115.5 -3 c 128,-1,24
 91 -3 91 -3 81 10 c 128,-1,25
 71 23 71 23 71 54 c 2,10,-1
EndSplineSet
EndChar

StartChar: icircumflex
Encoding: 238 238 173
Width: 213
GlyphClass: 2
Flags: W
LayerCount: 2
Fore
SplineSet
110 679 m 1,0,1
 157 649 157 649 198.5 611.5 c 128,-1,2
 240 574 240 574 240 551.5 c 128,-1,3
 240 529 240 529 217 519 c 1,4,5
 198 543 198 543 171 565.5 c 128,-1,6
 144 588 144 588 126 598 c 2,7,-1
 108 608 l 1,8,9
 102 603 102 603 89.5 592.5 c 128,-1,10
 77 582 77 582 69.5 576 c 128,-1,11
 62 570 62 570 51 561.5 c 128,-1,12
 40 553 40 553 32.5 547.5 c 128,-1,13
 25 542 25 542 18 537 c 0,14,15
 2 527 2 527 -8 527 c 128,-1,16
 -18 527 -18 527 -31 545 c 1,17,18
 33 622 33 622 110 679 c 1,0,1
71 54 m 2,19,-1
 73 231 l 1,20,21
 73 374 73 374 66 465 c 1,22,23
 82 468 82 468 100 468 c 0,24,25
 147 468 147 468 147 430 c 0,26,27
 147 425 147 425 145 390 c 0,28,29
 139 283 139 283 139 175.5 c 128,-1,30
 139 68 139 68 158 5 c 1,31,32
 140 -3 140 -3 115.5 -3 c 128,-1,33
 91 -3 91 -3 81 10 c 128,-1,34
 71 23 71 23 71 54 c 2,19,-1
EndSplineSet
EndChar

StartChar: idieresis
Encoding: 239 239 174
Width: 213
GlyphClass: 2
Flags: W
LayerCount: 2
Fore
SplineSet
71 54 m 2,0,-1
 73 231 l 1,1,2
 73 374 73 374 66 465 c 1,3,4
 82 468 82 468 100 468 c 0,5,6
 147 468 147 468 147 430 c 0,7,8
 147 425 147 425 145 390 c 0,9,10
 139 283 139 283 139 175.5 c 128,-1,11
 139 68 139 68 158 5 c 1,12,13
 140 -3 140 -3 115.5 -3 c 128,-1,14
 91 -3 91 -3 81 10 c 128,-1,15
 71 23 71 23 71 54 c 2,0,-1
231 536.5 m 128,-1,17
 215 521 215 521 194.5 521 c 128,-1,18
 174 521 174 521 159 536 c 128,-1,19
 144 551 144 551 144 574 c 128,-1,20
 144 597 144 597 160 612.5 c 128,-1,21
 176 628 176 628 196.5 628 c 128,-1,22
 217 628 217 628 232 612.5 c 128,-1,23
 247 597 247 597 247 574.5 c 128,-1,16
 247 552 247 552 231 536.5 c 128,-1,17
53 536.5 m 128,-1,25
 37 521 37 521 16.5 521 c 128,-1,26
 -4 521 -4 521 -19 536 c 128,-1,27
 -34 551 -34 551 -34 574 c 128,-1,28
 -34 597 -34 597 -18 612.5 c 128,-1,29
 -2 628 -2 628 18.5 628 c 128,-1,30
 39 628 39 628 54 612.5 c 128,-1,31
 69 597 69 597 69 574.5 c 128,-1,24
 69 552 69 552 53 536.5 c 128,-1,25
EndSplineSet
EndChar

StartChar: eth
Encoding: 240 240 175
Width: 529
GlyphClass: 2
Flags: W
LayerCount: 2
Fore
SplineSet
371 93 m 128,-1,1
 410 140 410 140 410 222 c 128,-1,2
 410 304 410 304 370 361.5 c 128,-1,3
 330 419 330 419 261 419 c 128,-1,4
 192 419 192 419 153.5 371.5 c 128,-1,5
 115 324 115 324 115 242 c 128,-1,6
 115 160 115 160 154 103 c 128,-1,7
 193 46 193 46 262.5 46 c 128,-1,0
 332 46 332 46 371 93 c 128,-1,1
279 586 m 1,8,-1
 175 509 l 1,9,10
 149 526 149 526 149 542.5 c 128,-1,11
 149 559 149 559 165 570 c 0,12,13
 194 589 194 589 234 616 c 1,14,15
 177 648 177 648 100 661 c 1,16,17
 99 666 99 666 99 676 c 0,18,19
 99 698 99 698 123 698 c 128,-1,20
 147 698 147 698 194.5 684 c 128,-1,21
 242 670 242 670 281 649 c 1,22,23
 353 700 353 700 390 731 c 1,24,25
 412 711 412 711 412 694 c 128,-1,26
 412 677 412 677 395 667 c 0,27,28
 385 660 385 660 361 643.5 c 128,-1,29
 337 627 337 627 326 619 c 1,30,31
 411 551 411 551 445.5 458.5 c 128,-1,32
 480 366 480 366 480 232 c 0,33,34
 480 122 480 122 420 56 c 128,-1,35
 360 -10 360 -10 262.5 -10 c 128,-1,36
 165 -10 165 -10 105 56 c 128,-1,37
 45 122 45 122 45 232 c 128,-1,38
 45 342 45 342 105 408.5 c 128,-1,39
 165 475 165 475 262 475 c 0,40,41
 338 475 338 475 385 434 c 1,42,43
 349 530 349 530 279 586 c 1,8,-1
EndSplineSet
EndChar

StartChar: ntilde
Encoding: 241 241 176
Width: 519
GlyphClass: 2
Flags: W
LayerCount: 2
Fore
SplineSet
371 48 m 2,0,-1
 377 307 l 1,1,2
 377 363 377 363 349.5 391 c 128,-1,3
 322 419 322 419 279 419 c 0,4,5
 211 419 211 419 145 364 c 1,6,7
 147 228 147 228 147 148.5 c 128,-1,8
 147 69 147 69 153 1 c 1,9,10
 137 -2 137 -2 119 -2 c 0,11,12
 74 -2 74 -2 74 36 c 0,13,14
 74 40 74 40 76.5 109.5 c 128,-1,15
 79 179 79 179 79 248 c 0,16,17
 79 412 79 412 60 460 c 1,18,19
 80 468 80 468 96 468 c 0,20,21
 142 468 142 468 142 418 c 1,22,23
 172 441 172 441 219 458 c 128,-1,24
 266 475 266 475 318 475 c 128,-1,25
 370 475 370 475 407.5 441.5 c 128,-1,26
 445 408 445 408 445 334 c 1,27,-1
 442 156 l 1,28,29
 442 64 442 64 459 5 c 1,30,31
 439 -3 439 -3 416.5 -3 c 128,-1,32
 394 -3 394 -3 382.5 8.5 c 128,-1,33
 371 20 371 20 371 48 c 2,0,-1
405 610 m 0,34,35
 405 582 405 582 374 556 c 128,-1,36
 343 530 343 530 315 530 c 128,-1,37
 287 530 287 530 249.5 552.5 c 128,-1,38
 212 575 212 575 194 575 c 128,-1,39
 176 575 176 575 135 533 c 1,40,41
 119 540 119 540 119 554 c 0,42,43
 119 581 119 581 150.5 607.5 c 128,-1,44
 182 634 182 634 217 634 c 0,45,46
 235 634 235 634 274 611.5 c 128,-1,47
 313 589 313 589 333 589 c 128,-1,48
 353 589 353 589 389 631 c 1,49,50
 405 625 405 625 405 610 c 0,34,35
EndSplineSet
EndChar

StartChar: ograve
Encoding: 242 242 177
Width: 525
GlyphClass: 2
Flags: W
LayerCount: 2
Fore
SplineSet
147 702 m 1,0,1
 184 661 184 661 225 629.5 c 128,-1,2
 266 598 266 598 284 583.5 c 128,-1,3
 302 569 302 569 302 554 c 128,-1,4
 302 539 302 539 286 525 c 1,5,6
 258 546 258 546 209.5 573 c 128,-1,7
 161 600 161 600 136.5 618 c 128,-1,8
 112 636 112 636 112 659 c 128,-1,9
 112 682 112 682 147 702 c 1,0,1
420 56 m 128,-1,11
 360 -10 360 -10 262.5 -10 c 128,-1,12
 165 -10 165 -10 105 56 c 128,-1,13
 45 122 45 122 45 232 c 128,-1,14
 45 342 45 342 105 408.5 c 128,-1,15
 165 475 165 475 262.5 475 c 128,-1,16
 360 475 360 475 420 408.5 c 128,-1,17
 480 342 480 342 480 232 c 128,-1,10
 480 122 480 122 420 56 c 128,-1,11
371 93 m 128,-1,19
 410 140 410 140 410 222 c 128,-1,20
 410 304 410 304 370 361.5 c 128,-1,21
 330 419 330 419 261 419 c 128,-1,22
 192 419 192 419 153.5 371.5 c 128,-1,23
 115 324 115 324 115 242 c 128,-1,24
 115 160 115 160 154 103 c 128,-1,25
 193 46 193 46 262.5 46 c 128,-1,18
 332 46 332 46 371 93 c 128,-1,19
EndSplineSet
EndChar

StartChar: oacute
Encoding: 243 243 178
Width: 525
GlyphClass: 2
Flags: W
LayerCount: 2
Fore
SplineSet
378 702 m 1,0,1
 413 682 413 682 413 659 c 128,-1,2
 413 636 413 636 389.5 619.5 c 128,-1,3
 366 603 366 603 308.5 569.5 c 128,-1,4
 251 536 251 536 238 524 c 1,5,6
 222 538 222 538 222 554 c 128,-1,7
 222 570 222 570 238 582.5 c 128,-1,8
 254 595 254 595 295.5 626 c 128,-1,9
 337 657 337 657 378 702 c 1,0,1
420 56 m 128,-1,11
 360 -10 360 -10 262.5 -10 c 128,-1,12
 165 -10 165 -10 105 56 c 128,-1,13
 45 122 45 122 45 232 c 128,-1,14
 45 342 45 342 105 408.5 c 128,-1,15
 165 475 165 475 262.5 475 c 128,-1,16
 360 475 360 475 420 408.5 c 128,-1,17
 480 342 480 342 480 232 c 128,-1,10
 480 122 480 122 420 56 c 128,-1,11
371 93 m 128,-1,19
 410 140 410 140 410 222 c 128,-1,20
 410 304 410 304 370 361.5 c 128,-1,21
 330 419 330 419 261 419 c 128,-1,22
 192 419 192 419 153.5 371.5 c 128,-1,23
 115 324 115 324 115 242 c 128,-1,24
 115 160 115 160 154 103 c 128,-1,25
 193 46 193 46 262.5 46 c 128,-1,18
 332 46 332 46 371 93 c 128,-1,19
EndSplineSet
EndChar

StartChar: ocircumflex
Encoding: 244 244 179
Width: 525
GlyphClass: 2
Flags: W
LayerCount: 2
Fore
SplineSet
263 679 m 1,0,1
 310 649 310 649 351.5 611.5 c 128,-1,2
 393 574 393 574 393 551.5 c 128,-1,3
 393 529 393 529 370 519 c 1,4,5
 351 543 351 543 324 565.5 c 128,-1,6
 297 588 297 588 279 598 c 2,7,-1
 261 608 l 1,8,9
 255 603 255 603 242.5 592.5 c 128,-1,10
 230 582 230 582 222.5 576 c 128,-1,11
 215 570 215 570 204 561.5 c 128,-1,12
 193 553 193 553 185.5 547.5 c 128,-1,13
 178 542 178 542 170 537 c 0,14,15
 155 527 155 527 145 527 c 128,-1,16
 135 527 135 527 122 545 c 1,17,18
 186 622 186 622 263 679 c 1,0,1
420 56 m 128,-1,20
 360 -10 360 -10 262.5 -10 c 128,-1,21
 165 -10 165 -10 105 56 c 128,-1,22
 45 122 45 122 45 232 c 128,-1,23
 45 342 45 342 105 408.5 c 128,-1,24
 165 475 165 475 262.5 475 c 128,-1,25
 360 475 360 475 420 408.5 c 128,-1,26
 480 342 480 342 480 232 c 128,-1,19
 480 122 480 122 420 56 c 128,-1,20
371 93 m 128,-1,28
 410 140 410 140 410 222 c 128,-1,29
 410 304 410 304 370 361.5 c 128,-1,30
 330 419 330 419 261 419 c 128,-1,31
 192 419 192 419 153.5 371.5 c 128,-1,32
 115 324 115 324 115 242 c 128,-1,33
 115 160 115 160 154 103 c 128,-1,34
 193 46 193 46 262.5 46 c 128,-1,27
 332 46 332 46 371 93 c 128,-1,28
EndSplineSet
EndChar

StartChar: otilde
Encoding: 245 245 180
Width: 525
GlyphClass: 2
Flags: W
LayerCount: 2
Fore
SplineSet
420 56 m 128,-1,1
 360 -10 360 -10 262.5 -10 c 128,-1,2
 165 -10 165 -10 105 56 c 128,-1,3
 45 122 45 122 45 232 c 128,-1,4
 45 342 45 342 105 408.5 c 128,-1,5
 165 475 165 475 262.5 475 c 128,-1,6
 360 475 360 475 420 408.5 c 128,-1,7
 480 342 480 342 480 232 c 128,-1,0
 480 122 480 122 420 56 c 128,-1,1
371 93 m 128,-1,9
 410 140 410 140 410 222 c 128,-1,10
 410 304 410 304 370 361.5 c 128,-1,11
 330 419 330 419 261 419 c 128,-1,12
 192 419 192 419 153.5 371.5 c 128,-1,13
 115 324 115 324 115 242 c 128,-1,14
 115 160 115 160 154 103 c 128,-1,15
 193 46 193 46 262.5 46 c 128,-1,8
 332 46 332 46 371 93 c 128,-1,9
405 610 m 0,16,17
 405 582 405 582 374 556 c 128,-1,18
 343 530 343 530 315 530 c 128,-1,19
 287 530 287 530 249.5 552.5 c 128,-1,20
 212 575 212 575 194 575 c 128,-1,21
 176 575 176 575 135 533 c 1,22,23
 119 540 119 540 119 554 c 0,24,25
 119 581 119 581 150.5 607.5 c 128,-1,26
 182 634 182 634 217 634 c 0,27,28
 235 634 235 634 274 611.5 c 128,-1,29
 313 589 313 589 333 589 c 128,-1,30
 353 589 353 589 389 631 c 1,31,32
 405 625 405 625 405 610 c 0,16,17
EndSplineSet
EndChar

StartChar: odieresis
Encoding: 246 246 181
Width: 525
GlyphClass: 2
Flags: W
LayerCount: 2
Fore
SplineSet
420 56 m 128,-1,1
 360 -10 360 -10 262.5 -10 c 128,-1,2
 165 -10 165 -10 105 56 c 128,-1,3
 45 122 45 122 45 232 c 128,-1,4
 45 342 45 342 105 408.5 c 128,-1,5
 165 475 165 475 262.5 475 c 128,-1,6
 360 475 360 475 420 408.5 c 128,-1,7
 480 342 480 342 480 232 c 128,-1,0
 480 122 480 122 420 56 c 128,-1,1
371 93 m 128,-1,9
 410 140 410 140 410 222 c 128,-1,10
 410 304 410 304 370 361.5 c 128,-1,11
 330 419 330 419 261 419 c 128,-1,12
 192 419 192 419 153.5 371.5 c 128,-1,13
 115 324 115 324 115 242 c 128,-1,14
 115 160 115 160 154 103 c 128,-1,15
 193 46 193 46 262.5 46 c 128,-1,8
 332 46 332 46 371 93 c 128,-1,9
387 536.5 m 128,-1,17
 371 521 371 521 350.5 521 c 128,-1,18
 330 521 330 521 315 536 c 128,-1,19
 300 551 300 551 300 574 c 128,-1,20
 300 597 300 597 316 612.5 c 128,-1,21
 332 628 332 628 352.5 628 c 128,-1,22
 373 628 373 628 388 612.5 c 128,-1,23
 403 597 403 597 403 574.5 c 128,-1,16
 403 552 403 552 387 536.5 c 128,-1,17
209 536.5 m 128,-1,25
 193 521 193 521 172.5 521 c 128,-1,26
 152 521 152 521 137 536 c 128,-1,27
 122 551 122 551 122 574 c 128,-1,28
 122 597 122 597 138 612.5 c 128,-1,29
 154 628 154 628 174.5 628 c 128,-1,30
 195 628 195 628 210 612.5 c 128,-1,31
 225 597 225 597 225 574.5 c 128,-1,24
 225 552 225 552 209 536.5 c 128,-1,25
EndSplineSet
EndChar

StartChar: divide
Encoding: 247 247 182
Width: 535
GlyphClass: 2
Flags: W
LayerCount: 2
Fore
SplineSet
430 216 m 2,0,-1
 274 224 l 1,1,2
 160 224 160 224 72 216 c 1,3,4
 69 231 69 231 69 246.5 c 128,-1,5
 69 262 69 262 78 275 c 128,-1,6
 87 288 87 288 105 288 c 0,7,8
 108 288 108 288 168 284.5 c 128,-1,9
 228 281 228 281 315 281 c 128,-1,10
 402 281 402 281 463 288 c 1,11,12
 466 279 466 279 466 259.5 c 128,-1,13
 466 240 466 240 456 228 c 128,-1,14
 446 216 446 216 430 216 c 2,0,-1
271 367 m 128,-1,16
 248 367 248 367 232 383 c 128,-1,17
 216 399 216 399 216 423.5 c 128,-1,18
 216 448 216 448 232 464.5 c 128,-1,19
 248 481 248 481 271 481 c 128,-1,20
 294 481 294 481 309.5 464.5 c 128,-1,21
 325 448 325 448 325 423.5 c 128,-1,22
 325 399 325 399 309.5 383 c 128,-1,15
 294 367 294 367 271 367 c 128,-1,16
271 23 m 128,-1,24
 248 23 248 23 232 39 c 128,-1,25
 216 55 216 55 216 79.5 c 128,-1,26
 216 104 216 104 232 120.5 c 128,-1,27
 248 137 248 137 271 137 c 128,-1,28
 294 137 294 137 309.5 120.5 c 128,-1,29
 325 104 325 104 325 79.5 c 128,-1,30
 325 55 325 55 309.5 39 c 128,-1,23
 294 23 294 23 271 23 c 128,-1,24
EndSplineSet
EndChar

StartChar: oslash
Encoding: 248 248 183
Width: 525
GlyphClass: 2
Flags: W
LayerCount: 2
Fore
SplineSet
371.5 93.5 m 128,-1,1
 410 141 410 141 410 223.5 c 128,-1,2
 410 306 410 306 367 365 c 1,3,-1
 199 62 l 1,4,5
 227 46 227 46 265 46 c 0,6,0
 333 46 333 46 371.5 93.5 c 128,-1,1
153 370.5 m 128,-1,8
 115 322 115 322 115 236 c 128,-1,9
 115 150 115 150 158 97 c 1,10,-1
 327 401 l 1,11,12
 296 419 296 419 259 419 c 0,13,7
 191 419 191 419 153 370.5 c 128,-1,8
85 -33 m 2,14,-1
 124 37 l 1,15,16
 45 102 45 102 45 231 c 0,17,18
 45 342 45 342 104.5 408.5 c 128,-1,19
 164 475 164 475 262 475 c 0,20,21
 313 475 313 475 356 455 c 1,22,23
 376 494 376 494 407 558 c 1,24,25
 424 557 424 557 438.5 549 c 128,-1,26
 453 541 453 541 453 531 c 128,-1,27
 453 521 453 521 447 507 c 1,28,-1
 402 426 l 1,29,30
 480 359 480 359 480 240.5 c 128,-1,31
 480 122 480 122 420 56 c 128,-1,32
 360 -10 360 -10 262 -10 c 0,33,34
 212 -10 212 -10 171 8 c 1,35,36
 138 -57 138 -57 125 -84 c 1,37,38
 79 -78 79 -78 79 -52 c 0,39,40
 79 -45 79 -45 85 -33 c 2,14,-1
EndSplineSet
EndChar

StartChar: ugrave
Encoding: 249 249 184
Width: 518
GlyphClass: 2
Flags: W
LayerCount: 2
Fore
SplineSet
146 702 m 1,0,1
 183 661 183 661 224 629.5 c 128,-1,2
 265 598 265 598 283 583.5 c 128,-1,3
 301 569 301 569 301 554 c 128,-1,4
 301 539 301 539 285 525 c 1,5,6
 257 546 257 546 208.5 573 c 128,-1,7
 160 600 160 600 135.5 618 c 128,-1,8
 111 636 111 636 111 659 c 128,-1,9
 111 682 111 682 146 702 c 1,0,1
443 430 m 2,10,-1
 439 203 l 1,11,12
 439 76 439 76 458 5 c 1,13,14
 438 -3 438 -3 421 -3 c 0,15,16
 375 -3 375 -3 375 47 c 1,17,18
 303 -10 303 -10 216 -10 c 0,19,20
 74 -10 74 -10 74 131 c 1,21,-1
 77 309 l 1,22,23
 77 400 77 400 60 460 c 1,24,25
 80 468 80 468 102.5 468 c 128,-1,26
 125 468 125 468 136.5 456.5 c 128,-1,27
 148 445 148 445 148 417 c 2,28,-1
 142 158 l 1,29,30
 142 104 142 104 168.5 75 c 128,-1,31
 195 46 195 46 237 46 c 0,32,33
 309 46 309 46 372 101 c 1,34,35
 371 144 371 144 371 261 c 128,-1,36
 371 378 371 378 364 465 c 1,37,38
 380 468 380 468 398 468 c 0,39,40
 443 468 443 468 443 430 c 2,10,-1
EndSplineSet
EndChar

StartChar: uacute
Encoding: 250 250 185
Width: 518
GlyphClass: 2
Flags: W
LayerCount: 2
Fore
SplineSet
377 702 m 1,0,1
 412 682 412 682 412 659 c 128,-1,2
 412 636 412 636 388.5 619.5 c 128,-1,3
 365 603 365 603 307.5 569.5 c 128,-1,4
 250 536 250 536 237 524 c 1,5,6
 221 538 221 538 221 554 c 128,-1,7
 221 570 221 570 237 582.5 c 128,-1,8
 253 595 253 595 294.5 626 c 128,-1,9
 336 657 336 657 377 702 c 1,0,1
443 430 m 2,10,-1
 439 203 l 1,11,12
 439 76 439 76 458 5 c 1,13,14
 438 -3 438 -3 421 -3 c 0,15,16
 375 -3 375 -3 375 47 c 1,17,18
 303 -10 303 -10 216 -10 c 0,19,20
 74 -10 74 -10 74 131 c 1,21,22
 74 131 74 131 77 309 c 1,23,24
 77 400 77 400 60 460 c 1,25,26
 80 468 80 468 102.5 468 c 128,-1,27
 125 468 125 468 136.5 456.5 c 128,-1,28
 148 445 148 445 148 417 c 2,29,-1
 142 158 l 1,30,31
 142 104 142 104 168.5 75 c 128,-1,32
 195 46 195 46 237 46 c 0,33,34
 309 46 309 46 372 101 c 1,35,36
 371 144 371 144 371 261 c 128,-1,37
 371 378 371 378 364 465 c 1,38,39
 380 468 380 468 398 468 c 0,40,41
 443 468 443 468 443 430 c 2,10,-1
EndSplineSet
EndChar

StartChar: ucircumflex
Encoding: 251 251 186
Width: 518
GlyphClass: 2
Flags: W
LayerCount: 2
Fore
SplineSet
262 679 m 1,0,1
 309 649 309 649 350.5 611.5 c 128,-1,2
 392 574 392 574 392 551.5 c 128,-1,3
 392 529 392 529 369 519 c 1,4,5
 350 543 350 543 323 565.5 c 128,-1,6
 296 588 296 588 278 598 c 2,7,-1
 260 608 l 1,8,9
 254 603 254 603 241.5 592.5 c 128,-1,10
 229 582 229 582 221.5 576 c 128,-1,11
 214 570 214 570 203 561.5 c 128,-1,12
 192 553 192 553 184.5 547.5 c 128,-1,13
 177 542 177 542 170 537 c 0,14,15
 154 527 154 527 144 527 c 128,-1,16
 134 527 134 527 121 545 c 1,17,18
 185 622 185 622 262 679 c 1,0,1
443 430 m 2,19,-1
 439 203 l 1,20,21
 439 76 439 76 458 5 c 1,22,23
 438 -3 438 -3 421 -3 c 0,24,25
 375 -3 375 -3 375 47 c 1,26,27
 303 -10 303 -10 216 -10 c 0,28,29
 74 -10 74 -10 74 131 c 1,30,-1
 77 309 l 1,31,32
 77 400 77 400 60 460 c 1,33,34
 80 468 80 468 102.5 468 c 128,-1,35
 125 468 125 468 136.5 456.5 c 128,-1,36
 148 445 148 445 148 417 c 2,37,-1
 142 158 l 1,38,39
 142 104 142 104 168.5 75 c 128,-1,40
 195 46 195 46 237 46 c 0,41,42
 309 46 309 46 372 101 c 1,43,44
 371 144 371 144 371 261 c 128,-1,45
 371 378 371 378 364 465 c 1,46,47
 380 468 380 468 398 468 c 0,48,49
 443 468 443 468 443 430 c 2,19,-1
EndSplineSet
EndChar

StartChar: udieresis
Encoding: 252 252 187
Width: 518
GlyphClass: 2
Flags: W
LayerCount: 2
Fore
SplineSet
443 430 m 2,0,-1
 439 203 l 1,1,2
 439 76 439 76 458 5 c 1,3,4
 438 -3 438 -3 421 -3 c 0,5,6
 375 -3 375 -3 375 47 c 1,7,8
 303 -10 303 -10 216 -10 c 0,9,10
 74 -10 74 -10 74 131 c 1,11,-1
 77 309 l 1,12,13
 77 400 77 400 60 460 c 1,14,15
 80 468 80 468 102.5 468 c 128,-1,16
 125 468 125 468 136.5 456.5 c 128,-1,17
 148 445 148 445 148 417 c 2,18,19
 148 417 148 417 142 158 c 1,20,21
 142 104 142 104 168.5 75 c 128,-1,22
 195 46 195 46 237 46 c 0,23,24
 309 46 309 46 372 101 c 1,25,26
 371 144 371 144 371 261 c 128,-1,27
 371 378 371 378 364 465 c 1,28,29
 380 468 380 468 398 468 c 0,30,31
 443 468 443 468 443 430 c 2,0,-1
383 536.5 m 128,-1,33
 367 521 367 521 346.5 521 c 128,-1,34
 326 521 326 521 311 536 c 128,-1,35
 296 551 296 551 296 574 c 128,-1,36
 296 597 296 597 312 612.5 c 128,-1,37
 328 628 328 628 348.5 628 c 128,-1,38
 369 628 369 628 384 612.5 c 128,-1,39
 399 597 399 597 399 574.5 c 128,-1,32
 399 552 399 552 383 536.5 c 128,-1,33
205 536.5 m 128,-1,41
 189 521 189 521 168.5 521 c 128,-1,42
 148 521 148 521 133 536 c 128,-1,43
 118 551 118 551 118 574 c 128,-1,44
 118 597 118 597 134 612.5 c 128,-1,45
 150 628 150 628 170.5 628 c 128,-1,46
 191 628 191 628 206 612.5 c 128,-1,47
 221 597 221 597 221 574.5 c 128,-1,40
 221 552 221 552 205 536.5 c 128,-1,41
EndSplineSet
EndChar

StartChar: yacute
Encoding: 253 253 188
Width: 441
GlyphClass: 2
Flags: W
LayerCount: 2
Fore
SplineSet
336 702 m 1,0,1
 371 682 371 682 371 659 c 128,-1,2
 371 636 371 636 347.5 619.5 c 128,-1,3
 324 603 324 603 266.5 569.5 c 128,-1,4
 209 536 209 536 196 524 c 1,5,6
 180 538 180 538 180 554 c 128,-1,7
 180 570 180 570 196 582.5 c 128,-1,8
 212 595 212 595 253.5 626 c 128,-1,9
 295 657 295 657 336 702 c 1,0,1
376 475 m 0,10,11
 411 475 411 475 411 431.5 c 128,-1,12
 411 388 411 388 375.5 275.5 c 128,-1,13
 340 163 340 163 291 59 c 0,14,15
 203 -128 203 -128 125 -225 c 0,16,17
 105 -251 105 -251 86 -251 c 0,18,19
 58 -251 58 -251 31 -211 c 1,20,21
 61 -192 61 -192 111 -133.5 c 128,-1,22
 161 -75 161 -75 198 -16 c 1,23,24
 163 100 163 100 103 248.5 c 128,-1,25
 43 397 43 397 0 438 c 1,26,27
 35 470 35 470 57.5 470 c 128,-1,28
 80 470 80 470 96 438 c 0,29,30
 120 390 120 390 167 270.5 c 128,-1,31
 214 151 214 151 237 72 c 1,32,33
 280 165 280 165 312.5 272 c 128,-1,34
 345 379 345 379 345 441 c 0,35,36
 345 446 345 446 343 470 c 1,37,38
 358 475 358 475 376 475 c 0,10,11
EndSplineSet
EndChar

StartChar: thorn
Encoding: 254 254 189
Width: 505
GlyphClass: 2
Flags: W
LayerCount: 2
Fore
SplineSet
134 365 m 1,0,-1
 135 76 l 1,1,2
 181 46 181 46 255 46 c 0,3,4
 300 46 300 46 332 76 c 1,5,6
 389 132 389 132 389 244 c 0,7,8
 389 334 389 334 354.5 376.5 c 128,-1,9
 320 419 320 419 260 419 c 128,-1,10
 200 419 200 419 134 365 c 1,0,-1
64 -196 m 2,11,-1
 67 229 l 1,12,-1
 67 473 l 2,13,14
 67 650 67 650 60 740 c 1,15,16
 76 743 76 743 95 743 c 0,17,18
 141 743 141 743 141 705 c 0,19,20
 141 700 141 700 140 660 c 0,21,22
 134 516 134 516 134 421 c 1,23,24
 209 475 209 475 286 475 c 128,-1,25
 363 475 363 475 411.5 421.5 c 128,-1,26
 460 368 460 368 460 259 c 0,27,28
 460 103 460 103 365 29 c 0,29,30
 315 -10 315 -10 250.5 -10 c 128,-1,31
 186 -10 186 -10 133 24 c 1,32,33
 133 -146 133 -146 140 -186.5 c 128,-1,34
 147 -227 147 -227 153 -245 c 1,35,36
 135 -253 135 -253 109.5 -253 c 128,-1,37
 84 -253 84 -253 74 -240 c 128,-1,38
 64 -227 64 -227 64 -196 c 2,11,-1
EndSplineSet
EndChar

StartChar: ydieresis
Encoding: 255 255 190
Width: 441
GlyphClass: 2
Flags: W
LayerCount: 2
Fore
SplineSet
332 536.5 m 128,-1,1
 316 521 316 521 295.5 521 c 128,-1,2
 275 521 275 521 260 536 c 128,-1,3
 245 551 245 551 245 574 c 128,-1,4
 245 597 245 597 261 612.5 c 128,-1,5
 277 628 277 628 297.5 628 c 128,-1,6
 318 628 318 628 333 612.5 c 128,-1,7
 348 597 348 597 348 574.5 c 128,-1,0
 348 552 348 552 332 536.5 c 128,-1,1
154 536.5 m 128,-1,9
 138 521 138 521 117.5 521 c 128,-1,10
 97 521 97 521 82 536 c 128,-1,11
 67 551 67 551 67 574 c 128,-1,12
 67 597 67 597 83 612.5 c 128,-1,13
 99 628 99 628 119.5 628 c 128,-1,14
 140 628 140 628 155 612.5 c 128,-1,15
 170 597 170 597 170 574.5 c 128,-1,8
 170 552 170 552 154 536.5 c 128,-1,9
376 475 m 0,16,17
 411 475 411 475 411 431.5 c 128,-1,18
 411 388 411 388 375.5 275.5 c 128,-1,19
 340 163 340 163 291 59 c 0,20,21
 203 -128 203 -128 125 -225 c 0,22,23
 105 -251 105 -251 86 -251 c 0,24,25
 58 -251 58 -251 31 -211 c 1,26,27
 61 -192 61 -192 111 -133.5 c 128,-1,28
 161 -75 161 -75 198 -16 c 1,29,30
 163 100 163 100 103 248.5 c 128,-1,31
 43 397 43 397 0 438 c 1,32,33
 35 470 35 470 57.5 470 c 128,-1,34
 80 470 80 470 96 438 c 0,35,36
 120 390 120 390 167 270.5 c 128,-1,37
 214 151 214 151 237 72 c 1,38,39
 280 165 280 165 312.5 272 c 128,-1,40
 345 379 345 379 345 441 c 0,41,42
 345 446 345 446 343 470 c 1,43,44
 358 475 358 475 376 475 c 0,16,17
EndSplineSet
EndChar

StartChar: dotlessi
Encoding: 305 305 191
Width: 213
GlyphClass: 2
Flags: W
LayerCount: 2
Fore
SplineSet
71 54 m 2,0,-1
 73 231 l 1,1,2
 73 374 73 374 66 465 c 1,3,4
 82 468 82 468 100 468 c 0,5,6
 147 468 147 468 147 430 c 0,7,8
 147 425 147 425 145 390 c 0,9,10
 139 283 139 283 139 175.5 c 128,-1,11
 139 68 139 68 158 5 c 1,12,13
 140 -3 140 -3 115.5 -3 c 128,-1,14
 91 -3 91 -3 81 10 c 128,-1,15
 71 23 71 23 71 54 c 2,0,-1
EndSplineSet
EndChar

StartChar: Lslash
Encoding: 321 321 192
Width: 429
GlyphClass: 2
Flags: W
LayerCount: 2
Fore
SplineSet
73 265 m 1,0,1
 37 237 37 237 -13 192 c 1,2,3
 -45 211 -45 211 -45 231 c 0,4,5
 -45 243 -45 243 -30 255 c 2,6,-1
 73 333 l 1,7,-1
 73 431 l 2,8,9
 73 572 73 572 66 663 c 1,10,11
 83 666 83 666 107 666 c 0,12,13
 156 666 156 666 156 628 c 0,14,15
 156 623 156 623 154 588 c 0,16,17
 148 481 148 481 148 391 c 1,18,19
 219 447 219 447 278 500 c 1,20,21
 310 484 310 484 310 462 c 0,22,23
 310 448 310 448 295 437 c 2,24,-1
 148 324 l 1,25,26
 148 106 148 106 155 62 c 1,27,28
 197 60 197 60 221 60 c 0,29,30
 377 60 377 60 422 83 c 1,31,32
 429 62 429 62 429 41.5 c 128,-1,33
 429 21 429 21 420 13 c 0,34,35
 403 -2 403 -2 275 -2 c 128,-1,36
 147 -2 147 -2 118.5 -0.5 c 128,-1,37
 90 1 90 1 80.5 14 c 128,-1,38
 71 27 71 27 71 57 c 2,39,-1
 73 224 l 1,40,-1
 73 265 l 1,0,1
EndSplineSet
EndChar

StartChar: lslash
Encoding: 322 322 193
Width: 213
GlyphClass: 2
Flags: W
LayerCount: 2
Fore
SplineSet
68 301 m 1,0,-1
 -37 212 l 1,1,2
 -69 231 -69 231 -69 251 c 0,3,4
 -69 263 -69 263 -54 275 c 2,5,-1
 68 368 l 1,6,-1
 68 451 l 2,7,8
 68 687 68 687 60 740 c 1,9,10
 76 743 76 743 95 743 c 0,11,12
 141 743 141 743 141 705 c 0,13,14
 141 700 141 700 140 660 c 0,15,16
 134 516 134 516 134 419 c 1,17,18
 193 466 193 466 254 520 c 1,19,20
 286 504 286 504 286 482 c 0,21,22
 286 468 286 468 271 457 c 2,23,-1
 134 352 l 1,24,-1
 134 202 l 2,25,26
 134 69 134 69 153 5 c 1,27,28
 135 -3 135 -3 111 -3 c 128,-1,29
 87 -3 87 -3 76.5 9 c 128,-1,30
 66 21 66 21 66 49 c 0,31,32
 66 117 66 117 68 301 c 1,0,-1
EndSplineSet
EndChar

